<?xml version="1.0" standalone="no"?>
<!DOCTYPE svg PUBLIC "-//W3C//DTD SVG 1.1//EN" "http://www.w3.org/Graphics/SVG/1.1/DTD/svg11.dtd" >
<svg xmlns="http://www.w3.org/2000/svg" xmlns:xlink="http://www.w3.org/1999/xlink" version="1.1">
<metadata>
Created by FontForge 20170731 at Mon Aug 24 16:15:04 2020
 By Aleksey,,,
Copyright (c) 2019, Jipatype (Anupap Jaichumnan) All rights reserved.
</metadata>
<defs>
<font id="." horiz-adv-x="0" >
  <font-face 
    font-family="."
    font-weight="400"
    font-stretch="normal"
    units-per-em="1000"
    panose-1="0 0 0 0 0 0 0 0 0 0"
    ascent="800"
    descent="-200"
    x-height="450"
    cap-height="630"
    bbox="-569 -495 1078 993"
    underline-thickness="30"
    underline-position="-174"
    unicode-range="U+0020-2212"
  />
<missing-glyph horiz-adv-x="364" 
d="M33 0v666h265v-666h-265zM66 33h199v600h-199v-600z" />
    <glyph glyph-name=".notdef" horiz-adv-x="364" 
d="M33 0v666h265v-666h-265zM66 33h199v600h-199v-600z" />
    <glyph glyph-name="glyph1" 
 />
    <glyph glyph-name="glyph2" horiz-adv-x="333" 
 />
    <glyph glyph-name="space" unicode=" " horiz-adv-x="231" 
 />
    <glyph glyph-name="exclam" unicode="!" horiz-adv-x="172" 
d="M47 310v320h79v-320l-16 -141h-47zM38 0v96h96v-96h-96z" />
    <glyph glyph-name="quotedbl" unicode="&#x22;" horiz-adv-x="308" 
d="M189 523v107h78v-107l-15 -124h-47zM41 523v107h79v-107l-17 -124h-46z" />
    <glyph glyph-name="numbersign" unicode="#" horiz-adv-x="618" 
d="M72 405v65h118l23 160h79l-23 -160h126l23 160h79l-23 -160h118v-65h-127l-26 -180h108v-65h-117l-23 -160h-79l23 160h-127l-22 -160h-79l22 160h-118v65h128l25 180h-108zM360 225l26 180h-127l-25 -180h126z" />
    <glyph glyph-name="dollar" unicode="$" horiz-adv-x="570" 
d="M248 720h75v-82q192 -14 192 -165h-82q0 97 -149 97q-75 0 -108.5 -22.5t-33.5 -72.5q0 -71 86 -98l167 -53q72 -22 103.5 -59t31.5 -106q0 -74 -50.5 -117.5t-156.5 -49.5v-82h-75v82q-207 14 -207 170h81q0 -102 169 -102q154 0 154 96q0 38 -18.5 59.5t-62.5 36.5
l-169 53q-68 21 -103 59.5t-35 107.5q0 78 46.5 119t144.5 47v82z" />
    <glyph glyph-name="percent" unicode="%" horiz-adv-x="710" 
d="M167 638q65 0 95.5 -43.5t30.5 -144.5t-30.5 -144.5t-95.5 -43.5t-95.5 43.5t-30.5 144.5t30.5 144.5t95.5 43.5zM167 594q-39 0 -55.5 -31.5t-16.5 -112.5t16.5 -112.5t55.5 -31.5t55.5 31.5t16.5 112.5t-16.5 112.5t-55.5 31.5zM462 630h60l-270 -630h-60zM544 368
q65 0 95.5 -43.5t30.5 -144.5t-30.5 -144.5t-95.5 -43.5t-95.5 43.5t-30.5 144.5t30.5 144.5t95.5 43.5zM544 324q-39 0 -55.5 -31.5t-16.5 -112.5t16.5 -112.5t55.5 -31.5t55.5 31.5t16.5 112.5t-16.5 112.5t-55.5 31.5z" />
    <glyph glyph-name="ampersand" unicode="&#x26;" horiz-adv-x="525" 
d="M218 320q-50 -32 -73 -65.5t-23 -80.5q0 -58 32 -88t90 -30q67 0 109 45zM387 47q-62 -56 -161 -56q-89 0 -137 44.5t-48 128.5q0 71 35 119t108 93q-47 74 -47 141q0 122 134 122q130 0 130 -122q0 -96 -117 -159l113 -182q20 57 20 147h62q0 -127 -43 -210l70 -113h-90
zM250 412q88 46 88 105q0 66 -59 66q-63 0 -63 -68q0 -46 34 -103z" />
    <glyph glyph-name="quotesingle" unicode="'" horiz-adv-x="160" 
d="M41 523v107h79v-107l-16 -124h-47z" />
    <glyph glyph-name="parenleft" unicode="(" horiz-adv-x="254" 
d="M41 315q0 86 14 159.5t33.5 117t39.5 74t34 42.5l14 12h70q-5 -4 -13.5 -13t-30.5 -43.5t-38.5 -77t-30 -115.5t-13.5 -156t13 -155.5t31.5 -116.5t37 -75.5t31.5 -44.5l13 -13h-70q-5 4 -14.5 12.5t-32.5 41.5t-41 75t-32.5 116t-14.5 160z" />
    <glyph glyph-name="parenright" unicode=")" horiz-adv-x="254" 
d="M9 -90q5 4 13.5 13t30.5 43.5t39 77t30.5 115.5t13.5 156t-13 155.5t-32 116.5t-37.5 75.5t-31.5 44.5l-13 13h70q5 -4 14.5 -12.5t32.5 -41.5t41 -75t32.5 -116t14.5 -160t-14 -159.5t-34 -117t-39.5 -74t-33.5 -42.5l-14 -12h-70z" />
    <glyph glyph-name="asterisk" unicode="*" horiz-adv-x="332" 
d="M41 518l17 52l82 -26v86h54v-86l82 26l17 -52l-82 -26l51 -70l-44 -32l-51 70l-51 -70l-44 32l51 70z" />
    <glyph glyph-name="plus" unicode="+" horiz-adv-x="396" 
d="M41 239v62h127v127h62v-127h126v-62h-126v-127h-62v127h-127z" />
    <glyph glyph-name="comma" unicode="," horiz-adv-x="173" 
d="M41 91h91v-130q0 -100 -108 -100v44q54 0 54 51v44h-37v91z" />
    <glyph glyph-name="hyphen" unicode="-" horiz-adv-x="351" 
d="M41 239v62h270v-62h-270z" />
    <glyph glyph-name="period" unicode="." horiz-adv-x="177" 
d="M41 0v96h96v-96h-96z" />
    <glyph glyph-name="slash" unicode="/" horiz-adv-x="231" 
d="M9 0l135 630h79l-135 -630h-79z" />
    <glyph glyph-name="zero" unicode="0" horiz-adv-x="517" 
d="M127 315q0 -143 30.5 -199t100.5 -56t101.5 56.5t31.5 198.5t-31.5 199t-101.5 57t-100.5 -56.5t-30.5 -199.5zM41 315q0 173 53 248.5t165 75.5t164.5 -75.5t52.5 -248.5t-52.5 -248.5t-164.5 -75.5t-165 75.5t-53 248.5z" />
    <glyph glyph-name="one" unicode="1" horiz-adv-x="352" 
d="M11 439v64q63 0 96.5 32.5t33.5 94.5h86v-630h-86v488q-44 -49 -130 -49z" />
    <glyph glyph-name="two" unicode="2" horiz-adv-x="488" 
d="M26 0v37q0 135 100 211l152 102q44 32 60 61.5t16 68.5q0 90 -109 90q-111 0 -111 -90h-85q0 159 197 159q193 0 193 -159q0 -59 -26 -102t-90 -92l-133 -89q-63 -48 -76 -128h348v-69h-436z" />
    <glyph glyph-name="three" unicode="3" horiz-adv-x="496" 
d="M42 161h86q0 -52 28.5 -76.5t91.5 -24.5q65 0 93 28t28 81t-29.5 82t-87.5 29h-78v15v40v15h78q58 0 87.5 29t29.5 82t-28 81t-93 28q-63 0 -92 -24.5t-29 -76.5h-85q0 86 49 128t153 42q112 0 161.5 -45t49.5 -130q0 -109 -82 -149q82 -40 82 -149q0 -85 -49.5 -130
t-161.5 -45q-104 0 -153 42t-49 128z" />
    <glyph glyph-name="four" unicode="4" horiz-adv-x="493" 
d="M11 145v65l270 420h120v-416h85v-69h-85v-145h-85v145h-305zM316 214v347l-224 -347h224z" />
    <glyph glyph-name="five" unicode="5" horiz-adv-x="496" 
d="M42 159h86q12 -100 116 -100q124 0 124 160q0 76 -30 112.5t-95 36.5q-83 0 -115 -88h-86l36 350h344v-69h-268l-16 -162q45 33 113 33q104 0 154 -52.5t50 -161.5q0 -111 -50.5 -169t-162.5 -58q-190 0 -200 168z" />
    <glyph glyph-name="six" unicode="6" horiz-adv-x="517" 
d="M41 315q0 171 54 247.5t170 76.5q96 0 141.5 -41.5t50.5 -121.5l-85 2q-6 47 -31 69.5t-78 22.5q-68 0 -100 -49.5t-36 -168.5q58 62 152 62q99 0 148 -49t49 -158q0 -105 -52.5 -160.5t-151.5 -55.5q-119 0 -175 76t-56 248zM128 275q5 -118 39.5 -166.5t104.5 -48.5
q119 0 119 146q0 74 -32 106.5t-99 32.5q-81 0 -132 -70z" />
    <glyph glyph-name="seven" unicode="7" horiz-adv-x="454" 
d="M22 561v69h411v-69q-7 -9 -19 -26.5t-43 -74t-54.5 -118t-42.5 -155t-19 -187.5h-86q0 95 18 186.5t47.5 164.5t55 121t52.5 89h-320z" />
    <glyph glyph-name="eight" unicode="8" horiz-adv-x="517" 
d="M127 183q0 -123 132 -123q67 0 99.5 29.5t32.5 93.5q0 65 -32 94t-100 29q-132 0 -132 -123zM148 470q0 -101 110 -101q112 0 112 101q0 100 -112 100q-110 0 -110 -100zM64 479q0 160 195 160t195 -160q0 -103 -82 -139q104 -38 104 -165q0 -184 -217 -184
q-107 0 -162.5 47t-55.5 137q0 125 106 164q-83 36 -83 140z" />
    <glyph glyph-name="nine" unicode="9" horiz-adv-x="517" 
d="M41 423q0 105 53 160.5t152 55.5q119 0 174.5 -76t55.5 -248q0 -171 -53.5 -247.5t-169.5 -76.5q-96 0 -142 41.5t-51 121.5l86 -2q6 -47 31 -69.5t78 -22.5q67 0 99 49.5t36 168.5q-58 -62 -152 -62q-99 0 -148 49t-49 158zM390 355q-5 118 -40 166.5t-105 48.5
q-118 0 -118 -146q0 -74 32 -107t98 -33q81 0 133 71z" />
    <glyph glyph-name="colon" unicode=":" horiz-adv-x="173" 
d="M41 393h91v-92h-91v92zM41 149h91v-92h-91v92z" />
    <glyph glyph-name="semicolon" unicode=";" horiz-adv-x="173" 
d="M41 393h92v-92h-92v92zM41 148h91v-130q0 -101 -108 -101v44q54 0 54 52v44h-37v91z" />
    <glyph glyph-name="less" unicode="&#x3c;" horiz-adv-x="432" 
d="M41 243v54l323 166l29 -60l-265 -133l265 -133l-29 -60z" />
    <glyph glyph-name="equal" unicode="=" horiz-adv-x="388" 
d="M41 363h307v-62h-307v62zM41 239h307v-62h-307v62z" />
    <glyph glyph-name="greater" unicode="&#x3e;" horiz-adv-x="432" 
d="M41 137l265 133l-265 133l29 60l323 -166v-54l-323 -166z" />
    <glyph glyph-name="question" unicode="?" horiz-adv-x="459" 
d="M229 639q190 0 190 -147q0 -40 -15.5 -75t-38 -61.5t-45 -52.5t-39.5 -60.5t-18 -73.5h-78q0 45 16 84t38.5 66t45.5 51.5t39 53t16 59.5q0 45 -26.5 66t-82.5 21q-111 0 -111 -91h-79q0 160 188 160zM176 96h95v-96h-95v96z" />
    <glyph glyph-name="at" unicode="@" horiz-adv-x="843" 
d="M422 639q174 0 278 -115t104 -298q0 -235 -150 -235q-85 0 -109 66q-52 -66 -144 -66q-185 0 -185 234t185 234q91 0 144 -67l17 58h53v-336q0 -66 57 -66q42 0 62.5 42t20.5 136q0 163 -91 264t-242 101q-154 0 -243.5 -98t-89.5 -267t90 -268t244 -99q42 0 81.5 10.5
t61.5 22.5t41 24t21 13l32 -37q-1 -1 -23 -15.5t-46.5 -28t-70.5 -25.5t-97 -12q-176 0 -279 112.5t-103 302.5t103 301.5t278 111.5zM536 115v220q-39 62 -115 62q-126 0 -126 -172t126 -172q76 0 115 62z" />
    <glyph glyph-name="A" unicode="A" horiz-adv-x="565" 
d="M230 630h105l222 -630h-91l-61 181h-245l-60 -181h-91zM283 550l-100 -300h200z" />
    <glyph glyph-name="B" unicode="B" horiz-adv-x="575" 
d="M62 0v630h246q100 0 146.5 -42.5t46.5 -127.5q0 -98 -65 -137q99 -32 99 -154q0 -85 -46 -127t-146 -42h-281zM147 282v-213h177q65 0 95 26.5t30 80.5t-30 80t-95 26h-177zM147 348h142q66 0 96 26t30 80t-30 80.5t-96 26.5h-142v-213z" />
    <glyph glyph-name="C" unicode="C" horiz-adv-x="613" 
d="M41 315q0 166 68 245t206 79q109 0 172.5 -49.5t85.5 -151.5h-85q-19 70 -61 101t-111 31q-96 0 -142.5 -60t-46.5 -195t46.5 -195t142.5 -60q69 0 111 31t61 101h85q-22 -102 -85.5 -151.5t-172.5 -49.5q-138 0 -206 79t-68 245z" />
    <glyph glyph-name="D" unicode="D" horiz-adv-x="627" 
d="M147 69h155q102 0 150.5 61t48.5 185t-48.5 185t-150.5 61h-155v-492zM61 0v630h257q135 0 202 -80.5t67 -234.5t-67 -234.5t-202 -80.5h-257z" />
    <glyph glyph-name="E" unicode="E" horiz-adv-x="545" 
d="M62 0v630h468v-69h-383v-212h288v-68h-288v-212h383v-69h-468z" />
    <glyph glyph-name="F" unicode="F" horiz-adv-x="545" 
d="M61 0v630h470v-69h-384v-229h288v-69h-288v-263h-86z" />
    <glyph glyph-name="G" unicode="G" horiz-adv-x="610" 
d="M313 639q211 0 253 -192h-85q-20 68 -61 97.5t-108 29.5q-95 0 -140 -61t-45 -198t47 -198t144 -61q110 0 163 77v147h-173v65h258v-345h-60l-12 58q-67 -67 -189 -67q-132 0 -198 79.5t-66 244.5q0 167 66.5 245.5t205.5 78.5z" />
    <glyph glyph-name="H" unicode="H" horiz-adv-x="625" 
d="M61 630h86v-281h332v281h85v-630h-85v281h-332v-281h-86v630z" />
    <glyph glyph-name="I" unicode="I" horiz-adv-x="207" 
d="M61 0v630h86v-630h-86z" />
    <glyph glyph-name="J" unicode="J" horiz-adv-x="294" 
d="M9 0v69h59q80 0 80 89v472h86v-480q0 -150 -143 -150h-82z" />
    <glyph glyph-name="K" unicode="K" horiz-adv-x="579" 
d="M61 0v630h86v-281h184l146 281h94l-163 -315l163 -315h-94l-146 281h-184v-281h-86z" />
    <glyph glyph-name="L" unicode="L" horiz-adv-x="538" 
d="M61 0v630h86v-561h384v-69h-470z" />
    <glyph glyph-name="M" unicode="M" horiz-adv-x="724" 
d="M61 0v630h112l190 -527l189 527h112v-630h-79v514l-185 -514h-76l-183 509v-509h-80z" />
    <glyph glyph-name="N" unicode="N" horiz-adv-x="625" 
d="M61 0v630h92l326 -496v496h85v-630h-91l-326 494v-494h-86z" />
    <glyph glyph-name="O" unicode="O" horiz-adv-x="629" 
d="M127 315q0 -135 46.5 -195t141.5 -60t141.5 60t46.5 195t-46.5 195.5t-141.5 60.5t-141.5 -60.5t-46.5 -195.5zM41 315q0 166 68 245t206 79t206 -79t68 -245t-68 -245t-206 -79t-206 79t-68 245z" />
    <glyph glyph-name="P" unicode="P" horiz-adv-x="570" 
d="M61 0v630h265q205 0 205 -213q0 -210 -205 -210h-179v-207h-86zM147 275h166q132 0 132 143t-132 143h-166v-286z" />
    <glyph glyph-name="Q" unicode="Q" horiz-adv-x="640" 
d="M320 639q140 0 210 -79t70 -245q0 -212 -116 -284l64 -121h-91l-47 90q-41 -9 -90 -9q-140 0 -209.5 79t-69.5 245t69.5 245t209.5 79zM320 571q-98 0 -145.5 -60.5t-47.5 -195.5t47.5 -195t145.5 -60q34 0 55 5l-79 149h91l61 -114q67 59 67 215q0 135 -48.5 195.5
t-146.5 60.5z" />
    <glyph glyph-name="R" unicode="R" horiz-adv-x="568" 
d="M60 630h266q203 0 203 -184q0 -138 -119 -171q37 -26 56 -71l94 -204h-90l-87 185q-33 65 -111 65h-126v-250h-86v630zM146 318h164q69 0 101.5 29.5t32.5 91.5q0 122 -134 122h-164v-243z" />
    <glyph glyph-name="S" unicode="S" horiz-adv-x="569" 
d="M40 162h81q0 -102 169 -102q153 0 153 95q0 40 -17.5 60.5t-62.5 35.5l-169 54q-68 23 -103 61t-35 106q0 85 55 126t171 41q111 0 171 -41.5t60 -124.5h-81q0 97 -150 97q-75 0 -108 -22t-33 -71q0 -39 21 -62t65 -38l166 -53q73 -24 104.5 -60.5t31.5 -104.5
q0 -79 -59 -123.5t-181 -44.5q-249 0 -249 171z" />
    <glyph glyph-name="T" unicode="T" horiz-adv-x="512" 
d="M9 561v69h494v-69h-204v-561h-86v561h-204z" />
    <glyph glyph-name="U" unicode="U" horiz-adv-x="625" 
d="M61 212v418h86v-416q0 -72 45.5 -113t120.5 -41t120.5 41t45.5 113v416h85v-418q0 -105 -66.5 -163t-184.5 -58t-185 58t-67 163z" />
    <glyph glyph-name="V" unicode="V" horiz-adv-x="565" 
d="M9 630h91l183 -549l183 549h91l-222 -630h-105z" />
    <glyph glyph-name="W" unicode="W" horiz-adv-x="764" 
d="M9 630h89l123 -499l125 499h72l125 -498l124 498h88l-159 -630h-91l-123 476l-123 -476h-90z" />
    <glyph glyph-name="X" unicode="X" horiz-adv-x="534" 
d="M9 0l206 315l-206 315h103l155 -245l155 245h103l-206 -315l206 -315h-103l-155 245l-155 -245h-103z" />
    <glyph glyph-name="Y" unicode="Y" horiz-adv-x="549" 
d="M9 630h93l174 -331l171 331h94l-222 -407v-223h-86v223z" />
    <glyph glyph-name="Z" unicode="Z" horiz-adv-x="557" 
d="M41 0v65l360 496h-360v69h476v-65l-360 -496h360v-69h-476z" />
    <glyph glyph-name="bracketleft" unicode="[" horiz-adv-x="263" 
d="M60 -90v810h195v-62h-117v-686h117v-62h-195z" />
    <glyph glyph-name="backslash" unicode="\" horiz-adv-x="231" 
d="M9 630h79l135 -630h-79z" />
    <glyph glyph-name="bracketright" unicode="]" horiz-adv-x="263" 
d="M9 -28h117v686h-117v62h195v-810h-195v62z" />
    <glyph glyph-name="asciicircum" unicode="^" horiz-adv-x="363" 
d="M41 414l115 219h54l115 -219l-54 -29l-88 168l-88 -168z" />
    <glyph glyph-name="underscore" unicode="_" horiz-adv-x="351" 
d="M41 0v62h270v-62h-270z" />
    <glyph glyph-name="grave" unicode="`" horiz-adv-x="302" 
d="M41 577l18 60l204 -81l-15 -46z" />
    <glyph glyph-name="a" unicode="a" horiz-adv-x="485" 
d="M71 326q0 133 174 133q173 0 173 -136v-216q0 -41 9 -50t50 -9v-49q-18 -8 -53 -8q-73 0 -83 62q-64 -62 -166 -62q-63 0 -99 31.5t-36 94.5q0 80 71 116t229 38v51q0 75 -95 75t-95 -71h-79zM340 219q-119 -1 -170.5 -22t-51.5 -72q0 -72 84 -72q86 0 138 64v102z" />
    <glyph glyph-name="b" unicode="b" horiz-adv-x="501" 
d="M61 675h79v-272q52 56 135 56q186 0 186 -234t-186 -234q-92 0 -144 66l-16 -57h-54v675zM140 336v-222q38 -61 116 -61q126 0 126 172t-126 172q-78 0 -116 -61z" />
    <glyph glyph-name="c" unicode="c" horiz-adv-x="481" 
d="M41 225q0 234 204 234q166 0 195 -154h-78q-23 92 -117 92q-64 0 -94.5 -41t-30.5 -131t30.5 -131t94.5 -41q94 0 117 92h78q-29 -154 -195 -154q-204 0 -204 234z" />
    <glyph glyph-name="d" unicode="d" horiz-adv-x="501" 
d="M362 675h78v-675h-53l-17 57q-52 -66 -144 -66q-185 0 -185 234t185 234q84 0 136 -56v272zM362 114v222q-38 61 -116 61q-126 0 -126 -172t126 -172q78 0 116 61z" />
    <glyph glyph-name="e" unicode="e" horiz-adv-x="485" 
d="M41 225q0 234 201 234q203 0 203 -234q0 -16 -1 -26h-324q4 -76 34.5 -111t89.5 -35q89 0 113 82h79q-32 -144 -192 -144q-203 0 -203 234zM366 251q-4 76 -34.5 111t-88.5 35t-88.5 -35t-34.5 -111h246z" />
    <glyph glyph-name="f" unicode="f" horiz-adv-x="295" 
d="M6 392v58h71v92q0 133 129 133h82v-62h-64q-68 0 -68 -73v-90h132v-58h-132v-392h-79v392h-71z" />
    <glyph glyph-name="g" unicode="g" horiz-adv-x="496" 
d="M382 450h53v-537q0 -70 -48 -108.5t-140 -38.5q-189 0 -189 145h79q0 -87 110 -87q53 0 81.5 24t28.5 67v132q-52 -56 -136 -56q-185 0 -185 234t185 234q91 0 144 -67zM357 335q-39 62 -116 62q-126 0 -126 -172t126 -172q77 0 116 62v220z" />
    <glyph glyph-name="h" unicode="h" horiz-adv-x="499" 
d="M61 0v675h79v-275q57 59 148 59q74 0 112 -36.5t38 -104.5v-318h-79v303q0 94 -96 94q-77 0 -123 -60v-337h-79z" />
    <glyph glyph-name="i" unicode="i" horiz-adv-x="200" 
d="M53 675h95v-87h-95v87zM61 450h79v-450h-79v450z" />
    <glyph glyph-name="j" unicode="j" horiz-adv-x="200" 
d="M53 675h95v-87h-95v87zM61 450h79v-547q0 -62 -32.5 -95t-95.5 -33h-64v62h44q69 0 69 75v538z" />
    <glyph glyph-name="k" unicode="k" horiz-adv-x="446" 
d="M61 0v675h79v-419h114l102 194h82l-118 -225l118 -225h-82l-102 195h-114v-195h-79z" />
    <glyph glyph-name="l" unicode="l" horiz-adv-x="200" 
d="M61 0v675h79v-675h-79z" />
    <glyph glyph-name="m" unicode="m" horiz-adv-x="681" 
d="M61 450h54l15 -49q46 58 128 58q86 0 112 -59q47 59 128 59q123 0 123 -119v-340h-79v327q0 70 -69 70q-59 0 -92 -50v-7v-340h-79v327q0 70 -70 70q-59 0 -92 -50v-347h-79v450z" />
    <glyph glyph-name="n" unicode="n" horiz-adv-x="499" 
d="M61 450h54l17 -59q60 68 156 68q74 0 112 -36.5t38 -104.5v-318h-79v303q0 94 -96 94q-77 0 -123 -60v-337h-79v450z" />
    <glyph glyph-name="o" unicode="o" horiz-adv-x="503" 
d="M120 225q0 -90 32.5 -131t99.5 -41t99.5 41t32.5 131t-32 131t-100 41q-67 0 -99.5 -41t-32.5 -131zM41 225q0 234 211 234t211 -234t-211 -234t-211 234z" />
    <glyph glyph-name="p" unicode="p" horiz-adv-x="501" 
d="M61 450h54l16 -58q53 67 144 67q186 0 186 -234t-186 -234q-83 0 -135 56v-272h-79v675zM140 336v-222q38 -61 116 -61q126 0 126 172t-126 172q-78 0 -116 -61z" />
    <glyph glyph-name="q" unicode="q" horiz-adv-x="501" 
d="M387 450h53v-675h-78v272q-52 -56 -136 -56q-185 0 -185 234t185 234q91 0 144 -67zM362 336q-38 61 -116 61q-126 0 -126 -172t126 -172q78 0 116 61v222z" />
    <glyph glyph-name="r" unicode="r" horiz-adv-x="331" 
d="M61 0v450h54l15 -54q46 63 132 63q21 0 36 -1.5t20 -3.5l5 -2v-55h-54q-91 0 -129 -74v-323h-79z" />
    <glyph glyph-name="s" unicode="s" horiz-adv-x="447" 
d="M37 125h70q0 -76 118 -76q50 0 76.5 17.5t26.5 47.5t-16 46.5t-56 26.5l-83 18q-121 27 -121 132q0 122 166 122q173 0 173 -125h-68q0 67 -100 67q-92 0 -92 -63q0 -56 70 -74l83 -18q66 -15 94.5 -46.5t28.5 -85.5q0 -58 -44.5 -90.5t-134.5 -32.5q-93 0 -142 34.5
t-49 99.5z" />
    <glyph glyph-name="t" unicode="t" horiz-adv-x="295" 
d="M6 392v58h71v135h79v-135h132v-58h-132v-257q0 -73 67 -73h65v-62h-82q-129 0 -129 133v259h-71z" />
    <glyph glyph-name="u" unicode="u" horiz-adv-x="499" 
d="M61 450h79v-303q0 -94 96 -94q77 0 123 60v337h79v-450h-53l-17 60q-59 -69 -157 -69q-74 0 -112 36.5t-38 104.5v318z" />
    <glyph glyph-name="v" unicode="v" horiz-adv-x="439" 
d="M9 450h82l129 -391l128 391h83l-155 -450h-112z" />
    <glyph glyph-name="w" unicode="w" horiz-adv-x="619" 
d="M9 450h79l91 -358l94 358h74l93 -358l92 358h79l-118 -450h-88l-95 355l-95 -355h-88z" />
    <glyph glyph-name="x" unicode="x" horiz-adv-x="394" 
d="M9 0l141 225l-141 225h82l106 -168l107 168h82l-142 -225l142 -225h-82l-107 168l-106 -168h-82z" />
    <glyph glyph-name="y" unicode="y" horiz-adv-x="439" 
d="M9 450h86l125 -348l126 348h85l-229 -601q-29 -74 -105 -74h-74v62h52q42 0 60 41l45 124z" />
    <glyph glyph-name="z" unicode="z" horiz-adv-x="458" 
d="M41 0v53l264 335h-264v62h377v-53l-264 -335h264v-62h-377z" />
    <glyph glyph-name="braceleft" unicode="{" horiz-adv-x="307" 
d="M9 285v61h31q33 0 54 22t21 54v164q0 56 39 95t94 39h51v-62h-30q-32 0 -54 -22t-22 -53v-155q0 -41 -22 -71.5t-57 -41.5q35 -11 57 -42.5t22 -70.5v-155q0 -31 21.5 -53t53.5 -22h31v-62h-51q-55 0 -94 39t-39 95v163q0 32 -22 55t-55 23h-29z" />
    <glyph glyph-name="bar" unicode="|" horiz-adv-x="200" 
d="M61 -90v810h79v-810h-79z" />
    <glyph glyph-name="braceright" unicode="}" horiz-adv-x="307" 
d="M9 -28h31q32 0 53.5 22t21.5 53v155q0 39 21.5 70.5t56.5 42.5q-35 11 -56.5 41.5t-21.5 71.5v155q0 31 -22 53t-54 22h-30v62h51q55 0 94 -39t39 -95v-164q0 -32 21 -54t54 -22h31v-61h-29q-33 0 -55 -23t-22 -55v-163q0 -56 -39 -95t-94 -39h-51v62z" />
    <glyph glyph-name="asciitilde" unicode="~" horiz-adv-x="387" 
d="M41 220v17q0 42 21 68t63 26q32 0 71 -29.5t60 -29.5q42 0 42 41v10h49v-19q0 -92 -84 -92q-33 0 -72 28.5t-60 28.5q-20 0 -31 -11t-11 -28v-10h-48z" />
    <glyph glyph-name="exclamdown" unicode="&#xa1;" horiz-adv-x="172" 
d="M39 450h95v-96h-95v96zM63 281h46l16 -141v-320h-79v320z" />
    <glyph glyph-name="cent" unicode="&#xa2;" horiz-adv-x="481" 
d="M207 540h76v-83q131 -16 157 -152h-78q-23 92 -117 92q-64 0 -94.5 -41t-30.5 -131t30.5 -131t94.5 -41q94 0 117 92h78q-26 -136 -157 -152v-83h-76v83q-166 19 -166 232t166 232v83z" />
    <glyph glyph-name="sterling" unicode="&#xa3;" horiz-adv-x="534" 
d="M285 639q109 0 161 -44.5t52 -138.5h-86q0 114 -126 114q-127 0 -127 -115v-117h184v-60h-184v-205h360v-73h-505v73h60v205h-60v60h60v117q0 93 51.5 138.5t159.5 45.5z" />
    <glyph glyph-name="currency" unicode="&#xa4;" horiz-adv-x="455" 
d="M229 431q53 0 95 -32l59 59l34 -34l-59 -59q32 -42 32 -95t-32 -95l59 -59l-34 -34l-59 59q-42 -32 -95 -32t-95 32l-59 -59l-34 34l59 59q-32 42 -32 95t32 95l-59 59l34 34l59 -59q42 32 95 32zM229 377q-45 0 -76.5 -31t-31.5 -76t31.5 -76t76.5 -31t76 31t31 76
t-31 76t-76 31z" />
    <glyph glyph-name="yen" unicode="&#xa5;" horiz-adv-x="571" 
d="M20 630h93l174 -334l172 334h93l-190 -357h134v-55h-164l-2 -5v-54h166v-55h-166v-104h-85v104h-169v55h169v54l-3 5h-166v55h137z" />
    <glyph glyph-name="brokenbar" unicode="&#xa6;" horiz-adv-x="200" 
d="M61 -118v360h79v-360h-79zM61 332v360h79v-360h-79z" />
    <glyph glyph-name="section" unicode="&#xa7;" horiz-adv-x="555" 
d="M268 639q111 0 171 -37t60 -110h-82q0 83 -149 83q-75 0 -108 -19.5t-33 -61.5q0 -33 20.5 -53t64.5 -33l166 -46q71 -21 103.5 -55.5t32.5 -94.5q0 -89 -97 -122q97 -40 97 -134q0 -145 -227 -145q-111 0 -170.5 37t-59.5 110h81q0 -84 149 -84q75 0 108.5 19.5
t33.5 62.5q0 33 -21 53t-65 33l-166 46q-71 21 -103.5 55.5t-32.5 94.5q0 89 98 122q-98 40 -98 134q0 145 227 145zM298 125q131 6 131 87q0 35 -18.5 54.5t-62.5 33.5l-90 24q-131 -6 -131 -86q0 -35 18.5 -54.5t62.5 -33.5z" />
    <glyph glyph-name="dieresis" unicode="&#xa8;" horiz-adv-x="320" 
d="M199 523v81h82v-81h-82zM41 523v81h82v-81h-82z" />
    <glyph glyph-name="copyright" unicode="&#xa9;" horiz-adv-x="697" 
d="M193 316q0 97 39.5 142.5t119.5 45.5q125 0 150 -117h-55q-19 72 -95 72q-54 0 -79.5 -33.5t-25.5 -109.5t25.5 -110t79.5 -34q76 0 95 72h55q-25 -117 -150 -117q-80 0 -119.5 46t-39.5 143zM92 315q0 -136 66.5 -207.5t190.5 -71.5t191 71.5t67 207.5t-67 207.5
t-191 71.5t-190.5 -71.5t-66.5 -207.5zM41 315q0 157 80 240.5t228 83.5t228 -83.5t80 -240.5t-80 -240.5t-228 -83.5t-228 83.5t-80 240.5z" />
    <glyph glyph-name="ordfeminine" unicode="&#xaa;" horiz-adv-x="403" 
d="M65 530q0 104 137 104t137 -107v-168q0 -31 7.5 -38.5t39.5 -7.5v-41q-16 -6 -44 -6q-58 0 -66 48q-50 -48 -129 -48q-50 0 -78.5 24t-28.5 72q0 63 55.5 92t179.5 30v42q0 58 -73 58q-40 0 -56 -13t-16 -41h-65zM275 443q-92 -1 -131 -17.5t-39 -57.5q0 -53 63 -53
q66 0 107 48v80z" />
    <glyph glyph-name="guillemotleft" unicode="&#xab;" horiz-adv-x="446" 
d="M218 209v32l135 225l57 -32l-126 -209l126 -209l-57 -32zM41 209v32l135 225l56 -32l-125 -209l125 -209l-56 -32z" />
    <glyph glyph-name="logicalnot" unicode="&#xac;" horiz-adv-x="374" 
d="M41 239v62h293v-148h-62v86h-231z" />
    <glyph glyph-name="uni00AD" unicode="&#xad;" horiz-adv-x="304" 
d="M41 239v62h225v-62h-225z" />
    <glyph glyph-name="registered" unicode="&#xae;" horiz-adv-x="697" 
d="M349 639q148 0 228 -83.5t80 -240.5t-80 -240.5t-228 -83.5t-228 83.5t-80 240.5t80 240.5t228 83.5zM349 594q-124 0 -190.5 -71.5t-66.5 -207.5t66.5 -207.5t190.5 -71.5t191 71.5t67 207.5t-67 207.5t-191 71.5zM221 495h153q116 0 116 -107q0 -78 -65 -97
q20 -15 30 -40l54 -118h-57l-51 108q-17 34 -58 34h-67v-142h-55v362zM276 318h88q72 0 72 66t-72 66h-88v-132z" />
    <glyph glyph-name="macron" unicode="&#xaf;" horiz-adv-x="318" 
d="M41 523v64h237v-64h-237z" />
    <glyph glyph-name="degree" unicode="&#xb0;" horiz-adv-x="330" 
d="M165 639q52 0 88.5 -36t36.5 -88t-36.5 -88.5t-88.5 -36.5t-88 36.5t-36 88.5t36 88t88 36zM165 587q-30 0 -51 -21t-21 -51t21 -51.5t51 -21.5t51.5 21.5t21.5 51.5t-21.5 51t-51.5 21z" />
    <glyph glyph-name="plusminus" unicode="&#xb1;" horiz-adv-x="396" 
d="M41 0v62h315v-62h-315zM41 264v62h127v127h62v-127h126v-62h-126v-126h-62v126h-127z" />
    <glyph glyph-name="uni00B2" unicode="&#xb2;" horiz-adv-x="328" 
d="M41 271v23q0 43 12.5 70t43.5 51l84 54q42 32 42 74q0 48 -58 48t-58 -46h-54q0 90 113 90q110 0 110 -91q0 -35 -15 -61.5t-54 -55.5l-73 -47q-33 -26 -39 -66h194v-43h-248z" />
    <glyph glyph-name="uni00B3" unicode="&#xb3;" horiz-adv-x="317" 
d="M41 363h53q0 -28 15.5 -40.5t49.5 -12.5q65 0 65 58q0 62 -63 62h-45v8v25v9h45q63 0 63 62q0 58 -65 58q-34 0 -49.5 -12.5t-15.5 -40.5h-53q0 98 116 98q121 0 121 -102q0 -61 -45 -84q45 -23 45 -85q0 -101 -121 -101q-116 0 -116 98z" />
    <glyph glyph-name="acute" unicode="&#xb4;" horiz-adv-x="302" 
d="M41 556l203 81l19 -60l-207 -67z" />
    <glyph glyph-name="mu" unicode="&#xb5;" horiz-adv-x="499" 
d="M61 450h79v-218v-85q0 -94 96 -94q77 0 123 60v337h79v-450h-53l-17 60q-59 -69 -157 -69q-43 0 -71 11v-137h-79v267v100v218z" />
    <glyph glyph-name="paragraph" unicode="&#xb6;" horiz-adv-x="535" 
d="M423 -180v810h52v-810h-52zM41 464q0 84 44 125t122 41h130v-810h-74v478h-56q-78 0 -122 41t-44 125z" />
    <glyph glyph-name="periodcentered" unicode="&#xb7;" horiz-adv-x="177" 
d="M41 200v95h96v-95h-96z" />
    <glyph glyph-name="cedilla" unicode="&#xb8;" horiz-adv-x="278" 
d="M41 -114h53q0 -45 46 -45q47 0 47 45q0 42 -47 42h-60v32l46 54h49l-35 -44q45 0 71.5 -21.5t26.5 -62.5t-26.5 -63.5t-71.5 -22.5t-72 22.5t-27 63.5z" />
    <glyph glyph-name="uni00B9" unicode="&#xb9;" horiz-adv-x="201" 
d="M27 520v42q67 0 67 68h54v-360h-54v273q-25 -23 -67 -23z" />
    <glyph glyph-name="ordmasculine" unicode="&#xba;" horiz-adv-x="393" 
d="M94 450q0 -75 25.5 -107.5t77.5 -32.5t77.5 32.5t25.5 107.5q0 74 -25.5 107t-77.5 33t-77.5 -33t-25.5 -107zM41 450q0 184 156 184t156 -184t-156 -184t-156 184z" />
    <glyph glyph-name="guillemotright" unicode="&#xbb;" horiz-adv-x="446" 
d="M41 16l125 209l-125 209l56 32l135 -225v-32l-135 -225zM218 16l126 209l-126 209l57 32l135 -225v-32l-135 -225z" />
    <glyph glyph-name="onequarter" unicode="&#xbc;" horiz-adv-x="613" 
d="M107 630h53v-360h-53v273q-25 -23 -67 -23v42q67 0 67 68zM385 630h59l-270 -630h-59zM456 360h74v-236h46v-44h-46v-80h-54v80h-174v42zM476 124v189l-121 -189h121z" />
    <glyph glyph-name="onehalf" unicode="&#xbd;" horiz-adv-x="646" 
d="M107 630h54v-360h-54v273q-25 -23 -66 -23v42q66 0 66 68zM386 630h59l-270 -630h-59zM485 365q111 0 111 -91q0 -35 -15.5 -62t-54.5 -56l-72 -47q-32 -25 -38 -63h193v-46h-249v24q0 43 13 70t44 51l83 54q42 32 42 73q0 46 -57 46q-59 0 -59 -44h-54q0 91 113 91z" />
    <glyph glyph-name="threequarters" unicode="&#xbe;" horiz-adv-x="685" 
d="M157 637q121 0 121 -102q0 -61 -45 -84q45 -23 45 -85q0 -100 -121 -100q-60 0 -88 24t-28 73h53q0 -28 15.5 -40.5t49.5 -12.5q65 0 65 59q0 28 -16 44.5t-47 16.5h-45v8v25v9h45q31 0 47 16.5t16 44.5q0 59 -65 59q-34 0 -49.5 -12.5t-15.5 -40.5h-53q0 98 116 98z
M457 630h60l-270 -630h-60zM525 360h74v-236h46v-44h-46v-80h-54v80h-174v42zM545 124v189l-121 -189h121z" />
    <glyph glyph-name="questiondown" unicode="&#xbf;" horiz-adv-x="459" 
d="M189 450h95v-96h-95v96zM197 281h78q0 -45 -16 -84t-38.5 -66t-45.5 -51.5t-39 -53t-16 -59.5q0 -45 26.5 -66t82.5 -21q111 0 111 91h79q0 -160 -188 -160q-190 0 -190 147q0 40 15.5 75t38 61.5t45 52.5t39.5 60.5t18 73.5z" />
    <glyph glyph-name="Agrave" unicode="&#xc0;" horiz-adv-x="565" 
d="M146 757l18 60l204 -81l-15 -46zM230 630h105l222 -630h-91l-61 181h-245l-60 -181h-91zM283 550l-100 -300h200z" />
    <glyph glyph-name="Aacute" unicode="&#xc1;" horiz-adv-x="565" 
d="M204 736l203 81l19 -60l-208 -67zM230 630h105l222 -630h-91l-61 181h-245l-60 -181h-91zM283 550l-100 -300h200z" />
    <glyph glyph-name="Acircumflex" unicode="&#xc2;" horiz-adv-x="565" 
d="M146 741l122 86h33l122 -86l-33 -44l-106 74l-106 -74zM230 630h105l222 -630h-91l-61 181h-245l-60 -181h-91zM283 550l-100 -300h200z" />
    <glyph glyph-name="Atilde" unicode="&#xc3;" horiz-adv-x="565" 
d="M157 701v15q0 76 73 76q27 0 58 -22t48 -22q32 0 32 30v7h47v-15q0 -76 -73 -76q-28 0 -59 21.5t-48 21.5q-31 0 -31 -29v-7h-47zM230 630h105l222 -630h-91l-61 181h-245l-60 -181h-91zM283 550l-100 -300h200z" />
    <glyph glyph-name="Adieresis" unicode="&#xc4;" horiz-adv-x="565" 
d="M322 703v81h81v-81h-81zM163 703v81h83v-81h-83zM230 630h105l222 -630h-91l-61 181h-245l-60 -181h-91zM283 550l-100 -300h200z" />
    <glyph glyph-name="Aring" unicode="&#xc5;" horiz-adv-x="565" 
d="M237 779q0 -43 47 -43t47 43t-47 43t-47 -43zM187 779q0 43 27.5 64t69.5 21t70 -21.5t28 -63.5t-28 -63.5t-70 -21.5t-69.5 21t-27.5 64zM230 630h105l222 -630h-91l-61 181h-245l-60 -181h-91zM283 550l-100 -300h200z" />
    <glyph glyph-name="AE" unicode="&#xc6;" horiz-adv-x="877" 
d="M9 0l224 630h618v-69h-331v-212h235v-68h-235v-212h331v-69h-416v189h-268l-67 -189h-91zM435 258v303h-138l-106 -303h244z" />
    <glyph glyph-name="Ccedilla" unicode="&#xc7;" horiz-adv-x="613" 
d="M221 -114h53q0 -45 46 -45q47 0 47 45q0 42 -47 42h-60v32l27 32q-124 8 -185 86.5t-61 236.5q0 166 68 245t206 79q109 0 172.5 -49.5t85.5 -151.5h-85q-19 70 -61 101t-111 31q-96 0 -142.5 -60t-46.5 -195t46.5 -195t142.5 -60q69 0 111 31t61 101h85
q-41 -192 -236 -201l-17 -21q45 0 71.5 -21.5t26.5 -62.5t-26.5 -63.5t-71.5 -22.5t-72 22.5t-27 63.5z" />
    <glyph glyph-name="Egrave" unicode="&#xc8;" horiz-adv-x="547" 
d="M188 757l19 60l204 -81l-16 -46zM62 0v630h468v-69h-383v-212h288v-68h-288v-212h383v-69h-468z" />
    <glyph glyph-name="Eacute" unicode="&#xc9;" horiz-adv-x="541" 
d="M204 736l204 81l19 -60l-208 -67zM62 0v630h468v-69h-383v-212h288v-68h-288v-212h383v-69h-468z" />
    <glyph glyph-name="Ecircumflex" unicode="&#xca;" horiz-adv-x="547" 
d="M167 741l122 86h33l122 -86l-33 -44l-106 74l-105 -74zM62 0v630h468v-69h-383v-212h288v-68h-288v-212h383v-69h-468z" />
    <glyph glyph-name="Edieresis" unicode="&#xcb;" horiz-adv-x="547" 
d="M346 703v81h82v-81h-82zM188 703v81h82v-81h-82zM62 0v630h468v-69h-383v-212h288v-68h-288v-212h383v-69h-468z" />
    <glyph glyph-name="Igrave" unicode="&#xcc;" horiz-adv-x="207" 
d="M-43 757l18 60l204 -81l-15 -46zM61 0v630h86v-630h-86z" />
    <glyph glyph-name="Iacute" unicode="&#xcd;" horiz-adv-x="207" 
d="M33 736l203 81l19 -60l-207 -67zM61 0v630h86v-630h-86z" />
    <glyph glyph-name="Icircumflex" unicode="&#xce;" horiz-adv-x="207" 
d="M-34 741l122 86h32l123 -86l-33 -44l-106 74l-106 -74zM61 0v630h86v-630h-86z" />
    <glyph glyph-name="Idieresis" unicode="&#xcf;" horiz-adv-x="207" 
d="M142 703v81h82v-81h-82zM-16 703v81h82v-81h-82zM61 0v630h86v-630h-86z" />
    <glyph glyph-name="Eth" unicode="&#xd0;" horiz-adv-x="660" 
d="M6 288v54h89v288h257q268 0 268 -315t-268 -315h-257v288h-89zM180 69h155q102 0 150.5 61t48.5 185t-48.5 185t-150.5 61h-155v-219h137v-54h-137v-219z" />
    <glyph glyph-name="Ntilde" unicode="&#xd1;" horiz-adv-x="625" 
d="M184 701v15q0 76 72 76q27 0 58.5 -22t48.5 -22q32 0 32 30v7h47v-15q0 -76 -73 -76q-28 0 -59 21.5t-48 21.5q-32 0 -32 -29v-7h-46zM61 0v630h92l326 -496v496h85v-630h-91l-326 494v-494h-86z" />
    <glyph glyph-name="Ograve" unicode="&#xd2;" horiz-adv-x="629" 
d="M195 757l19 60l204 -81l-16 -46zM127 315q0 -135 46.5 -195t141.5 -60t141.5 60t46.5 195t-46.5 195.5t-141.5 60.5t-141.5 -60.5t-46.5 -195.5zM41 315q0 166 68 245t206 79t206 -79t68 -245t-68 -245t-206 -79t-206 79t-68 245z" />
    <glyph glyph-name="Oacute" unicode="&#xd3;" horiz-adv-x="629" 
d="M218 736l203 81l19 -60l-207 -67zM127 315q0 -135 46.5 -195t141.5 -60t141.5 60t46.5 195t-46.5 195.5t-141.5 60.5t-141.5 -60.5t-46.5 -195.5zM41 315q0 166 68 245t206 79t206 -79t68 -245t-68 -245t-206 -79t-206 79t-68 245z" />
    <glyph glyph-name="Ocircumflex" unicode="&#xd4;" horiz-adv-x="629" 
d="M176 741l123 86h32l123 -86l-33 -44l-106 74l-106 -74zM127 315q0 -135 46.5 -195t141.5 -60t141.5 60t46.5 195t-46.5 195.5t-141.5 60.5t-141.5 -60.5t-46.5 -195.5zM41 315q0 166 68 245t206 79t206 -79t68 -245t-68 -245t-206 -79t-206 79t-68 245z" />
    <glyph glyph-name="Otilde" unicode="&#xd5;" horiz-adv-x="629" 
d="M187 701v15q0 76 72 76q27 0 58.5 -22t48.5 -22q32 0 32 30v7h47v-15q0 -76 -73 -76q-28 0 -59 21.5t-48 21.5q-31 0 -31 -29v-7h-47zM127 315q0 -135 46.5 -195t141.5 -60t141.5 60t46.5 195t-46.5 195.5t-141.5 60.5t-141.5 -60.5t-46.5 -195.5zM41 315q0 166 68 245
t206 79t206 -79t68 -245t-68 -245t-206 -79t-206 79t-68 245z" />
    <glyph glyph-name="Odieresis" unicode="&#xd6;" horiz-adv-x="629" 
d="M354 703v81h81v-81h-81zM196 703v81h82v-81h-82zM127 315q0 -135 46.5 -195t141.5 -60t141.5 60t46.5 195t-46.5 195.5t-141.5 60.5t-141.5 -60.5t-46.5 -195.5zM41 315q0 166 68 245t206 79t206 -79t68 -245t-68 -245t-206 -79t-206 79t-68 245z" />
    <glyph glyph-name="multiply" unicode="&#xd7;" horiz-adv-x="346" 
d="M41 360l44 43l89 -89l90 89l44 -43l-90 -90l90 -90l-44 -43l-90 89l-89 -89l-44 43l89 90z" />
    <glyph glyph-name="Oslash" unicode="&#xd8;" horiz-adv-x="629" 
d="M455 719l48 -20l-38 -93q124 -69 124 -291q0 -166 -68 -245t-206 -79q-58 0 -101 13l-39 -93l-48 21l38 92q-124 70 -124 291q0 166 68 245t206 79q58 0 101 -13zM195 96l193 464q-35 11 -73 11q-95 0 -141.5 -60.5t-46.5 -195.5q0 -162 68 -219zM242 70q30 -10 73 -10
q95 0 141.5 60t46.5 195q0 162 -68 219z" />
    <glyph glyph-name="Ugrave" unicode="&#xd9;" horiz-adv-x="625" 
d="M187 757l19 60l204 -81l-15 -46zM61 212v418h86v-416q0 -72 45.5 -113t120.5 -41t120.5 41t45.5 113v416h85v-418q0 -105 -66.5 -163t-184.5 -58t-185 58t-67 163z" />
    <glyph glyph-name="Uacute" unicode="&#xda;" horiz-adv-x="625" 
d="M212 736l203 81l19 -60l-208 -67zM61 212v418h86v-416q0 -72 45.5 -113t120.5 -41t120.5 41t45.5 113v416h85v-418q0 -105 -66.5 -163t-184.5 -58t-185 58t-67 163z" />
    <glyph glyph-name="Ucircumflex" unicode="&#xdb;" horiz-adv-x="625" 
d="M179 741l122 86h33l122 -86l-32 -44l-106 74l-106 -74zM61 212v418h86v-416q0 -72 45.5 -113t120.5 -41t120.5 41t45.5 113v416h85v-418q0 -105 -66.5 -163t-184.5 -58t-185 58t-67 163z" />
    <glyph glyph-name="Udieresis" unicode="&#xdc;" horiz-adv-x="621" 
d="M347 703v81h82v-81h-82zM189 703v81h82v-81h-82zM61 212v418h86v-416q0 -72 45.5 -113t120.5 -41t120.5 41t45.5 113v416h85v-418q0 -105 -66.5 -163t-184.5 -58t-185 58t-67 163z" />
    <glyph glyph-name="Yacute" unicode="&#xdd;" horiz-adv-x="549" 
d="M191 736l204 81l19 -60l-208 -67zM9 630h93l174 -331l171 331h94l-222 -407v-223h-86v223z" />
    <glyph glyph-name="Thorn" unicode="&#xde;" horiz-adv-x="570" 
d="M61 630h86v-103h179q205 0 205 -213q0 -211 -205 -211h-179v-103h-86v630zM147 458v-286h166q132 0 132 143t-132 143h-166z" />
    <glyph glyph-name="germandbls" unicode="&#xdf;" horiz-adv-x="509" 
d="M469 204q0 -213 -192 -213q-20 0 -38.5 2t-26.5 5l-8 2v56h38q148 0 148 152q0 78 -36.5 115t-110.5 37h-7v45v17h8q40 0 61 28t21 76q0 44 -22.5 70t-66.5 26q-97 0 -97 -118v-504h-79v495q0 189 177 189q80 0 123.5 -41t43.5 -111q0 -96 -71 -134q135 -32 135 -194z
" />
    <glyph glyph-name="agrave" unicode="&#xe0;" horiz-adv-x="485" 
d="M126 577l18 60l204 -81l-15 -46zM71 326q0 133 174 133q173 0 173 -136v-216q0 -41 9 -50t50 -9v-49q-18 -8 -53 -8q-73 0 -83 62q-64 -62 -166 -62q-63 0 -99 31.5t-36 94.5q0 80 71 116t229 38v51q0 75 -95 75t-95 -71h-79zM340 219q-119 -1 -170.5 -22t-51.5 -72
q0 -72 84 -72q86 0 138 64v102z" />
    <glyph glyph-name="aacute" unicode="&#xe1;" horiz-adv-x="485" 
d="M139 556l204 81l19 -60l-208 -67zM71 326q0 133 174 133q173 0 173 -136v-216q0 -41 9 -50t50 -9v-49q-18 -8 -53 -8q-73 0 -83 62q-64 -62 -166 -62q-63 0 -99 31.5t-36 94.5q0 80 71 116t229 38v51q0 75 -95 75t-95 -71h-79zM340 219q-119 -1 -170.5 -22t-51.5 -72
q0 -72 84 -72q86 0 138 64v102z" />
    <glyph glyph-name="acircumflex" unicode="&#xe2;" horiz-adv-x="485" 
d="M108 561l122 86h33l122 -86l-32 -44l-107 74l-105 -74zM71 326q0 133 174 133q173 0 173 -136v-216q0 -41 9 -50t50 -9v-49q-18 -8 -53 -8q-73 0 -83 62q-64 -62 -166 -62q-63 0 -99 31.5t-36 94.5q0 80 71 116t229 38v51q0 75 -95 75t-95 -71h-79zM340 219
q-119 -1 -170.5 -22t-51.5 -72q0 -72 84 -72q86 0 138 64v102z" />
    <glyph glyph-name="atilde" unicode="&#xe3;" horiz-adv-x="485" 
d="M119 521v15q0 76 73 76q27 0 58 -22t48 -22q32 0 32 30v7h47v-15q0 -76 -73 -76q-28 0 -59 21.5t-48 21.5q-31 0 -31 -29v-7h-47zM71 326q0 133 174 133q173 0 173 -136v-216q0 -41 9 -50t50 -9v-49q-18 -8 -53 -8q-73 0 -83 62q-64 -62 -166 -62q-63 0 -99 31.5
t-36 94.5q0 80 71 116t229 38v51q0 75 -95 75t-95 -71h-79zM340 219q-119 -1 -170.5 -22t-51.5 -72q0 -72 84 -72q86 0 138 64v102z" />
    <glyph glyph-name="adieresis" unicode="&#xe4;" horiz-adv-x="485" 
d="M283 523v81h81v-81h-81zM125 523v81h82v-81h-82zM71 326q0 133 174 133q173 0 173 -136v-216q0 -41 9 -50t50 -9v-49q-18 -8 -53 -8q-73 0 -83 62q-64 -62 -166 -62q-63 0 -99 31.5t-36 94.5q0 80 71 116t229 38v51q0 75 -95 75t-95 -71h-79zM340 219q-119 -1 -170.5 -22
t-51.5 -72q0 -72 84 -72q86 0 138 64v102z" />
    <glyph glyph-name="aring" unicode="&#xe5;" horiz-adv-x="485" 
d="M199 599q0 -43 47 -43q46 0 46 43t-46 43q-47 0 -47 -43zM148 599q0 42 28 63.5t70 21.5t69.5 -21t27.5 -64t-27.5 -64t-69.5 -21t-70 21.5t-28 63.5zM71 326q0 133 174 133q173 0 173 -136v-216q0 -41 9 -50t50 -9v-49q-18 -8 -53 -8q-73 0 -83 62q-64 -62 -166 -62
q-63 0 -99 31.5t-36 94.5q0 80 71 116t229 38v51q0 75 -95 75t-95 -71h-79zM340 219q-119 -1 -170.5 -22t-51.5 -72q0 -72 84 -72q86 0 138 64v102z" />
    <glyph glyph-name="ae" unicode="&#xe6;" horiz-adv-x="783" 
d="M72 326q0 133 172 133q125 0 148 -83q44 83 156 83q197 0 197 -234q0 -16 -1 -26h-324q4 -76 34.5 -111t89.5 -35q89 0 113 82h79q-32 -144 -192 -144q-125 0 -173 88q-74 -88 -195 -88q-63 0 -99 31.5t-36 94.5q0 80 71 116t229 38v51q0 75 -95 75t-95 -71h-79zM665 251
q-4 76 -34.5 111t-88.5 35t-88 -35t-34 -111h245zM353 126q-12 46 -12 93q-119 -1 -170 -22t-51 -72q0 -72 84 -72q89 0 149 73z" />
    <glyph glyph-name="ccedilla" unicode="&#xe7;" horiz-adv-x="481" 
d="M154 -114h53q0 -45 47 -45q46 0 46 45q0 42 -46 42h-60v32l26 32q-179 13 -179 233q0 234 204 234q166 0 195 -154h-78q-23 92 -117 92q-64 0 -94.5 -41t-30.5 -131t30.5 -131t94.5 -41q94 0 117 92h78q-27 -141 -169 -153l-18 -22h1q45 0 71 -21.5t26 -62.5t-26.5 -63.5
t-70.5 -22.5q-45 0 -72.5 22.5t-27.5 63.5z" />
    <glyph glyph-name="egrave" unicode="&#xe8;" horiz-adv-x="485" 
d="M120 577l19 60l204 -81l-15 -46zM41 225q0 234 201 234q203 0 203 -234q0 -16 -1 -26h-324q4 -76 34.5 -111t89.5 -35q89 0 113 82h79q-32 -144 -192 -144q-203 0 -203 234zM366 251q-4 76 -34.5 111t-88.5 35t-88.5 -35t-34.5 -111h246z" />
    <glyph glyph-name="eacute" unicode="&#xe9;" horiz-adv-x="474" 
d="M136 556l203 81l19 -60l-207 -67zM41 225q0 234 201 234q203 0 203 -234q0 -16 -1 -26h-324q4 -76 34.5 -111t89.5 -35q89 0 113 82h79q-32 -144 -192 -144q-203 0 -203 234zM366 251q-4 76 -34.5 111t-88.5 35t-88.5 -35t-34.5 -111h246z" />
    <glyph glyph-name="ecircumflex" unicode="&#xea;" horiz-adv-x="491" 
d="M104 561l122 86h33l122 -86l-32 -44l-107 74l-105 -74zM41 225q0 234 201 234q203 0 203 -234q0 -16 -1 -26h-324q4 -76 34.5 -111t89.5 -35q89 0 113 82h79q-32 -144 -192 -144q-203 0 -203 234zM366 251q-4 76 -34.5 111t-88.5 35t-88.5 -35t-34.5 -111h246z" />
    <glyph glyph-name="edieresis" unicode="&#xeb;" horiz-adv-x="485" 
d="M280 523v81h82v-81h-82zM122 523v81h82v-81h-82zM41 225q0 234 201 234q203 0 203 -234q0 -16 -1 -26h-324q4 -76 34.5 -111t89.5 -35q89 0 113 82h79q-32 -144 -192 -144q-203 0 -203 234zM366 251q-4 76 -34.5 111t-88.5 35t-88.5 -35t-34.5 -111h246z" />
    <glyph glyph-name="igrave" unicode="&#xec;" horiz-adv-x="200" 
d="M-50 577l18 60l204 -81l-15 -46zM61 0v450h79v-450h-79z" />
    <glyph glyph-name="iacute" unicode="&#xed;" horiz-adv-x="200" 
d="M31 556l203 81l19 -60l-207 -67zM61 0v450h79v-450h-79z" />
    <glyph glyph-name="icircumflex" unicode="&#xee;" horiz-adv-x="200" 
d="M-38 561l122 86h33l123 -86l-33 -44l-106 74l-106 -74zM61 0v450h79v-450h-79z" />
    <glyph glyph-name="idieresis" unicode="&#xef;" horiz-adv-x="200" 
d="M139 523v81h81v-81h-81zM-19 523v81h82v-81h-82zM61 0v450h79v-450h-79z" />
    <glyph glyph-name="eth" unicode="&#xf0;" horiz-adv-x="458" 
d="M41 230q0 113 47.5 171t129.5 58q71 0 117 -50q-9 122 -38.5 167.5t-87.5 45.5q-32 0 -57 -11.5t-34 -22.5l-8 -12l-42 42q1 3 4 7.5t15.5 15.5t27.5 20t42 16t59 7q51 0 84 -15l50 64l44 -41l-46 -60q70 -80 70 -336q0 -163 -46.5 -234t-137.5 -71q-99 0 -146 59
t-47 180zM338 336q-38 61 -104 61q-53 0 -83.5 -42.5t-30.5 -129.5q0 -89 27 -130.5t85 -41.5q54 0 80.5 48t26.5 166q0 48 -1 69z" />
    <glyph glyph-name="ntilde" unicode="&#xf1;" horiz-adv-x="499" 
d="M120 521v15q0 76 72 76q27 0 58.5 -22t48.5 -22q32 0 32 30v7h47v-15q0 -76 -73 -76q-28 0 -59 21.5t-48 21.5q-32 0 -32 -29v-7h-46zM61 450h54l17 -59q60 68 156 68q74 0 112 -36.5t38 -104.5v-318h-79v303q0 94 -96 94q-77 0 -123 -60v-337h-79v450z" />
    <glyph glyph-name="ograve" unicode="&#xf2;" horiz-adv-x="503" 
d="M126 577l19 60l204 -81l-15 -46zM120 225q0 -90 32.5 -131t99.5 -41t99.5 41t32.5 131t-32 131t-100 41q-67 0 -99.5 -41t-32.5 -131zM41 225q0 234 211 234t211 -234t-211 -234t-211 234z" />
    <glyph glyph-name="oacute" unicode="&#xf3;" horiz-adv-x="503" 
d="M148 556l203 81l19 -60l-207 -67zM120 225q0 -90 32.5 -131t99.5 -41t99.5 41t32.5 131t-32 131t-100 41q-67 0 -99.5 -41t-32.5 -131zM41 225q0 234 211 234t211 -234t-211 -234t-211 234z" />
    <glyph glyph-name="ocircumflex" unicode="&#xf4;" horiz-adv-x="503" 
d="M113 561l122 86h33l122 -86l-32 -44l-107 74l-105 -74zM120 225q0 -90 32.5 -131t99.5 -41t99.5 41t32.5 131t-32 131t-100 41q-67 0 -99.5 -41t-32.5 -131zM41 225q0 234 211 234t211 -234t-211 -234t-211 234z" />
    <glyph glyph-name="otilde" unicode="&#xf5;" horiz-adv-x="503" 
d="M123 521v15q0 76 72 76q27 0 58.5 -22t48.5 -22q32 0 32 30v7h47v-15q0 -76 -73 -76q-28 0 -59 21.5t-48 21.5q-32 0 -32 -29v-7h-46zM120 225q0 -90 32.5 -131t99.5 -41t99.5 41t32.5 131t-32 131t-100 41q-67 0 -99.5 -41t-32.5 -131zM41 225q0 234 211 234t211 -234
t-211 -234t-211 234z" />
    <glyph glyph-name="odieresis" unicode="&#xf6;" horiz-adv-x="503" 
d="M291 523v81h81v-81h-81zM133 523v81h82v-81h-82zM120 225q0 -90 32.5 -131t99.5 -41t99.5 41t32.5 131t-32 131t-100 41q-67 0 -99.5 -41t-32.5 -131zM41 225q0 234 211 234t211 -234t-211 -234t-211 234z" />
    <glyph glyph-name="divide" unicode="&#xf7;" horiz-adv-x="396" 
d="M162 442h74v-74h-74v74zM41 301h315v-62h-315v62zM162 172h74v-74h-74v74z" />
    <glyph glyph-name="oslash" unicode="&#xf8;" horiz-adv-x="503" 
d="M332 527l51 -15l-24 -73q104 -48 104 -214q0 -234 -211 -234q-27 0 -55 5l-25 -73l-51 15l25 73q-105 48 -105 214q0 234 211 234q28 0 56 -5zM252 397q-67 0 -99.5 -41t-32.5 -131q0 -113 53 -151l119 319q-16 4 -40 4zM332 376l-120 -319q16 -4 40 -4q67 0 99.5 41
t32.5 131q0 114 -52 151z" />
    <glyph glyph-name="ugrave" unicode="&#xf9;" horiz-adv-x="499" 
d="M126 577l18 60l204 -81l-15 -46zM61 450h79v-303q0 -94 96 -94q77 0 123 60v337h79v-450h-53l-17 60q-59 -69 -157 -69q-74 0 -112 36.5t-38 104.5v318z" />
    <glyph glyph-name="uacute" unicode="&#xfa;" horiz-adv-x="499" 
d="M153 556l203 81l19 -60l-208 -67zM61 450h79v-303q0 -94 96 -94q77 0 123 60v337h79v-450h-53l-17 60q-59 -69 -157 -69q-74 0 -112 36.5t-38 104.5v318z" />
    <glyph glyph-name="ucircumflex" unicode="&#xfb;" horiz-adv-x="499" 
d="M109 561l122 86h33l122 -86l-33 -44l-106 74l-106 -74zM61 450h79v-303q0 -94 96 -94q77 0 123 60v337h79v-450h-53l-17 60q-59 -69 -157 -69q-74 0 -112 36.5t-38 104.5v318z" />
    <glyph glyph-name="udieresis" unicode="&#xfc;" horiz-adv-x="499" 
d="M289 523v81h81v-81h-81zM131 523v81h82v-81h-82zM61 450h79v-303q0 -94 96 -94q77 0 123 60v337h79v-450h-53l-17 60q-59 -69 -157 -69q-74 0 -112 36.5t-38 104.5v318z" />
    <glyph glyph-name="yacute" unicode="&#xfd;" horiz-adv-x="439" 
d="M141 556l203 81l19 -60l-208 -67zM9 450h86l125 -348l126 348h85l-229 -601q-29 -74 -105 -74h-74v62h52q42 0 60 41l45 124z" />
    <glyph glyph-name="thorn" unicode="&#xfe;" horiz-adv-x="467" 
d="M42 675h78v-272q52 56 136 56q185 0 185 -234t-185 -234q-84 0 -136 56v-272h-78v900zM120 336v-222q38 -61 116 -61q126 0 126 172t-126 172q-78 0 -116 -61z" />
    <glyph glyph-name="ydieresis" unicode="&#xff;" horiz-adv-x="439" 
d="M262 523v81h81v-81h-81zM103 523v81h83v-81h-83zM9 450h86l125 -348l126 348h85l-229 -601q-29 -74 -105 -74h-74v62h52q42 0 60 41l45 124z" />
    <glyph glyph-name="dotlessi" unicode="&#x131;" horiz-adv-x="200" 
d="M61 0v450h79v-450h-79z" />
    <glyph glyph-name="Lslash" unicode="&#x141;" horiz-adv-x="575" 
d="M98 630h85v-283l146 39l14 -52l-160 -42v-223h384v-69h-469v269l-79 -21l-14 51l93 25v306z" />
    <glyph glyph-name="lslash" unicode="&#x142;" horiz-adv-x="234" 
d="M156 376l61 16l14 -52l-75 -20v-320h-78v299l-61 -16l-13 52l74 20v320h78v-299z" />
    <glyph glyph-name="OE" unicode="&#x152;" horiz-adv-x="908" 
d="M127 315q0 -124 48.5 -185t150.5 -61h141v492h-141q-102 0 -150.5 -61t-48.5 -185zM41 315q0 315 268 315h573v-69h-330v-212h235v-68h-235v-212h330v-69h-573q-268 0 -268 315z" />
    <glyph glyph-name="oe" unicode="&#x153;" horiz-adv-x="828" 
d="M252 397q-67 0 -99.5 -41t-32.5 -131t32.5 -131t99.5 -41t99.5 41t32.5 131t-32.5 131t-99.5 41zM591 459q197 0 197 -234q0 -16 -1 -26h-323q4 -77 34 -111.5t89 -34.5q89 0 113 82h79q-31 -144 -186 -144q-125 0 -170 94q-46 -94 -177 -94q-205 0 -205 234t205 234
q130 0 177 -93q45 93 168 93zM709 251q-4 76 -34.5 111t-88.5 35t-88 -35t-34 -111h245z" />
    <glyph glyph-name="Scaron" unicode="&#x160;" horiz-adv-x="569" 
d="M140 785l33 44l106 -74l106 74l33 -44l-123 -86h-32zM40 162h81q0 -102 169 -102q153 0 153 95q0 40 -17.5 60.5t-62.5 35.5l-169 54q-68 23 -103 61t-35 106q0 85 55 126t171 41q111 0 171 -41.5t60 -124.5h-81q0 97 -150 97q-75 0 -108 -22t-33 -71q0 -39 21 -62
t65 -38l166 -53q73 -24 104.5 -60.5t31.5 -104.5q0 -79 -59 -123.5t-181 -44.5q-249 0 -249 171z" />
    <glyph glyph-name="scaron" unicode="&#x161;" horiz-adv-x="447" 
d="M85 605l33 44l106 -74l106 74l33 -44l-123 -86h-32zM37 125h70q0 -76 118 -76q50 0 76.5 17.5t26.5 47.5t-16 46.5t-56 26.5l-83 18q-121 27 -121 132q0 122 166 122q173 0 173 -125h-68q0 67 -100 67q-92 0 -92 -63q0 -56 70 -74l83 -18q66 -15 94.5 -46.5t28.5 -85.5
q0 -58 -44.5 -90.5t-134.5 -32.5q-93 0 -142 34.5t-49 99.5z" />
    <glyph glyph-name="Ydieresis" unicode="&#x178;" horiz-adv-x="550" 
d="M308 703v81h81v-81h-81zM150 703v81h82v-81h-82zM9 630h93l174 -331l171 331h94l-222 -407v-223h-86v223z" />
    <glyph glyph-name="Zcaron" unicode="&#x17d;" horiz-adv-x="557" 
d="M141 785l33 44l105 -74l107 74l32 -44l-122 -86h-33zM41 0v65l360 496h-360v69h476v-65l-360 -496h360v-69h-476z" />
    <glyph glyph-name="zcaron" unicode="&#x17e;" horiz-adv-x="458" 
d="M92 605l33 44l106 -74l106 74l32 -44l-122 -86h-33zM41 0v53l264 335h-264v62h377v-53l-264 -335h264v-62h-377z" />
    <glyph glyph-name="circumflex" unicode="&#x2c6;" horiz-adv-x="357" 
d="M41 561l122 86h33l122 -86l-32 -44l-107 74l-105 -74z" />
    <glyph glyph-name="caron" unicode="&#x2c7;" horiz-adv-x="357" 
d="M41 605l33 44l105 -74l107 74l32 -44l-122 -86h-33z" />
    <glyph glyph-name="ring" unicode="&#x2da;" horiz-adv-x="277" 
d="M92 599q0 -43 47 -43t47 43t-47 43t-47 -43zM41 599q0 42 28 63.5t70 21.5t70 -21.5t28 -63.5t-28 -63.5t-70 -21.5t-70 21.5t-28 63.5z" />
    <glyph glyph-name="tilde" unicode="&#x2dc;" horiz-adv-x="339" 
d="M41 521v15q0 76 73 76q27 0 58 -22t48 -22q33 0 33 30v7h46v-15q0 -76 -73 -76q-28 0 -59 21.5t-48 21.5q-31 0 -31 -29v-7h-47z" />
    <glyph glyph-name="uni0E01" unicode="&#xe01;" horiz-adv-x="564" 
d="M30 355v21q0 78 60 125.5t177 47.5t177 -47.5t60 -125.5v-376h-82v367q0 53 -39.5 85t-118.5 32q-135 0 -153 -92l103 -28v-50h-7q-61 0 -61 -64v-250h-82v250q0 63 46 84z" />
    <glyph glyph-name="uni0E02" unicode="&#xe02;" horiz-adv-x="493" 
d="M9 475v65h120l137 -457l136 457h83l-162 -540h-115l-145 475h-54z" />
    <glyph glyph-name="uni0E03" unicode="&#xe03;" horiz-adv-x="539" 
d="M23 540h64v-25q0 -39 43 -39q29 0 49.5 16t26.5 32l5 16h63v-75q0 -71 -64 -109l-9 -6q-51 -32 -51 -94v-85q0 -115 123 -115t123 117v367h82v-374q0 -83 -52 -129t-153 -46t-153 45t-52 126v89q0 80 67 121l27 19q26 16 37.5 34t11.5 46q-37 -49 -102 -49
q-39 0 -62.5 21t-23.5 57v40z" />
    <glyph glyph-name="uni0E04" unicode="&#xe04;" horiz-adv-x="578" 
d="M61 0v362q0 86 57.5 136.5t171.5 50.5t171 -50.5t57 -136.5v-362h-82v352q0 132 -146 132q-147 0 -147 -131v-133q54 68 152 68h44v-65h-54q-53 0 -90.5 -26.5t-51.5 -72.5v-124h-82z" />
    <glyph glyph-name="uni0E05" unicode="&#xe05;" horiz-adv-x="578" 
d="M196 549l94 -63l94 63q60 0 97 -39t37 -99v-411h-82v406q0 60 -48 77l-87 -58h-23l-87 59q-48 -16 -48 -78v-186q54 68 152 68h44v-65h-54q-53 0 -90.5 -26.5t-51.5 -72.5v-124h-82v411q0 61 37 99.5t98 38.5z" />
    <glyph glyph-name="uni0E06" unicode="&#xe06;" horiz-adv-x="568" 
d="M23 540h63l1 -25q0 -39 43 -39q29 0 49.5 16t26.5 32l5 16h63v-77q0 -69 -64 -107l-9 -6q-51 -32 -51 -94v-121q60 -79 155 -79q57 0 89 31.5t32 90.5v362h82v-378q0 -82 -46 -126.5t-130 -44.5q-119 0 -189 85l-18 -76h-57v251q0 80 67 121l27 19q27 17 38 34t11 46
q-37 -49 -102 -49q-39 0 -62.5 21t-23.5 57v40z" />
    <glyph glyph-name="uni0E07" unicode="&#xe07;" horiz-adv-x="512" 
d="M9 540h84l99 -400q11 -41 32 -62.5t65 -21.5q40 0 60.5 23.5t20.5 63.5v291q0 18 -12 29.5t-30 11.5h-55v65h91q38 0 63 -25t25 -62v-307q0 -72 -41.5 -113.5t-121.5 -41.5q-82 0 -122 36t-58 107z" />
    <glyph glyph-name="uni0E08" unicode="&#xe08;" horiz-adv-x="513" 
d="M41 227v65h121l106 -231l96 217q27 62 27 110q0 96 -134 96q-68 0 -101 -23.5t-33 -74.5h-82q0 163 215 163q217 0 217 -162q0 -66 -36 -146l-114 -241h-109l-113 227h-60z" />
    <glyph glyph-name="uni0E09" unicode="&#xe09;" horiz-adv-x="533" 
d="M253 549q113 0 166 -45.5t53 -136.5v-367h-56l-18 60q-63 -69 -164 -69q-71 0 -108.5 36t-37.5 104v97h-55v62h137v-146q0 -88 92 -88q79 0 128 60v249q0 61 -32.5 90t-104.5 29q-138 0 -138 -113h-82q0 178 220 178z" />
    <glyph glyph-name="uni0E0A" unicode="&#xe0a;" horiz-adv-x="519" 
d="M12 437q0 112 126 112q125 0 125 -91q0 -34 -15 -58q73 3 107 36t34 104h82q0 -129 -104 -167q100 -28 100 -149v-59q0 -82 -52 -128t-153 -46t-153 46.5t-52 127.5v89q0 77 67 122l23 16q25 17 35.5 29.5t10.5 32.5q0 41 -55 41q-62 0 -62 -58h-64zM181 342
q-42 -28 -42 -82v-89q0 -115 123 -115t123 114v60q0 61 -31 86.5t-98 25.5h-75z" />
    <glyph glyph-name="uni0E0B" unicode="&#xe0b;" horiz-adv-x="519" 
d="M12 540h64v-25q0 -39 43 -39q29 0 49 16t26 32l5 16h64v-75q0 -37 -17 -65q74 2 108.5 35.5t34.5 104.5h82q0 -129 -104 -167q100 -28 100 -148v-60q0 -82 -52 -128t-153 -46t-153 46.5t-52 127.5v86q0 80 67 121l26 19q26 16 37.5 34t11.5 46q-37 -49 -101 -49
q-39 0 -62.5 21t-23.5 57v40zM179 343q-40 -30 -40 -87v-85q0 -115 123 -115t123 114v59q0 62 -31 88t-97 26h-78z" />
    <glyph glyph-name="uni0E0C" unicode="&#xe0c;" horiz-adv-x="871" 
d="M267 549q117 0 177 -47.5t60 -125.5v-257q48 -63 127 -63q98 0 98 102v382h82v-397q0 -74 -38.5 -113t-113.5 -39q-102 0 -164 72l-17 -63h-56v367q0 53 -39.5 85t-118.5 32q-136 0 -154 -92l104 -28v-50h-7q-61 0 -61 -64v-148q0 -16 10 -26.5t26 -10.5h61v-65h-92
q-37 0 -62 25t-25 62v163q0 63 46 84l-80 21v21q0 78 60 125.5t177 47.5z" />
    <glyph glyph-name="uni0E0D" unicode="&#xe0d;" horiz-adv-x="871" 
d="M267 549q117 0 177 -47.5t60 -125.5v-218q0 -102 97 -102q79 0 128 64v420h82v-617q0 -75 -49 -116t-144 -41q-196 0 -196 155h82q0 -93 114 -93q111 0 111 97v128q-58 -62 -155 -62q-75 0 -113.5 39t-38.5 113v224q0 53 -39.5 85t-118.5 32q-136 0 -154 -92l104 -28v-50
h-7q-61 0 -61 -64v-148q0 -16 10 -26.5t26 -10.5h61v-65h-92q-37 0 -62 25t-25 62v163q0 63 46 84l-80 21v21q0 78 60 125.5t177 47.5z" />
    <glyph glyph-name="uni0E0E" unicode="&#xe0e;" horiz-adv-x="577" 
d="M280 549q117 0 176.5 -47.5t59.5 -125.5v-601h-82q-1 52 -39.5 78.5t-101.5 26.5t-97.5 -29t-36.5 -76h-83q0 77 54.5 123.5t150.5 46.5q98 0 153 -44v466q0 54 -39 85.5t-118 31.5q-136 0 -154 -92l104 -28v-50h-7q-61 0 -61 -64v-181q0 -30 -19.5 -49.5t-49.5 -19.5
h-84v65h42q28 0 28 28v157q0 62 47 84l-81 21v21q0 78 60.5 125.5t177.5 47.5z" />
    <glyph glyph-name="uni0E0F" unicode="&#xe0f;" horiz-adv-x="577" 
d="M76 -160h40q52 0 76.5 22t24.5 74h12h29h12q0 -96 96 -96h68v527q0 54 -39 85.5t-118 31.5q-136 0 -154 -92l104 -28v-50h-7q-61 0 -61 -64v-181q0 -30 -19.5 -49.5t-49.5 -19.5h-84v65h42q28 0 28 28v157q0 62 47 84l-81 21v21q0 78 60.5 125.5t177.5 47.5t176.5 -47.5
t59.5 -125.5v-601h-144q-92 0 -127 77q-29 -77 -127 -77h-42v65z" />
    <glyph glyph-name="uni0E10" unicode="&#xe10;" horiz-adv-x="518" 
d="M513 549v-65q-32 0 -59 -16q19 -34 19 -81q0 -66 -36 -146l-114 -241h-109l-113 227h-60v65h121l106 -231l96 217q27 62 27 110q0 96 -134 96q-68 0 -101 -23.5t-33 -74.5h-82q0 163 215 163q99 0 154 -36q44 36 103 36zM472 -35v-162h-94q-92 0 -127 76
q-29 -76 -128 -76h-82v65h81q52 0 76.5 22.5t24.5 74.5h12h30h11q0 -97 96 -97h31v97h69z" />
    <glyph glyph-name="uni0E11" unicode="&#xe11;" horiz-adv-x="568" 
d="M23 540h64v-25q0 -39 43 -39q29 0 49.5 16t26.5 32l5 16h63v-77q0 -69 -64 -107l-9 -6q-51 -32 -51 -94v-158l291 442h67v-540h-82v393l-263 -393h-95v251q0 81 67 122l27 18q27 17 38 34t11 46q-37 -49 -102 -49q-39 0 -62.5 21t-23.5 57v40z" />
    <glyph glyph-name="uni0E12" unicode="&#xe12;" horiz-adv-x="886" 
d="M196 549l94 -63l94 63q59 0 96.5 -39t37.5 -100v-291q48 -63 128 -63q97 0 97 102v382h82v-397q0 -74 -38.5 -113t-113.5 -39q-101 0 -163 72l-17 -63h-57v406q0 60 -48 77l-86 -57h-24l-87 58q-48 -16 -48 -78v-324l144 154h-82v62h172v-62l-215 -236h-100v410
q0 61 36.5 100t97.5 39z" />
    <glyph glyph-name="uni0E13" unicode="&#xe13;" horiz-adv-x="871" 
d="M267 549q117 0 177 -47.5t60 -125.5v-218q0 -102 97 -102q80 0 128 63v421h82v-540h-57l-17 63q-62 -72 -163 -72q-75 0 -113.5 39t-38.5 113v224q0 53 -39.5 85t-118.5 32q-136 0 -154 -92l104 -28v-50h-7q-61 0 -61 -64v-148q0 -16 10 -26.5t26 -10.5h61v-65h-92
q-37 0 -62 25t-25 62v163q0 63 46 84l-80 21v21q0 78 60 125.5t177 47.5z" />
    <glyph glyph-name="uni0E14" unicode="&#xe14;" horiz-adv-x="578" 
d="M62 0v361q0 86 57 137t171 51q113 0 170.5 -51t57.5 -137v-361h-82v356q0 132 -146 132q-147 0 -147 -131v-275l144 154h-82v62h172v-62l-215 -236h-100z" />
    <glyph glyph-name="uni0E15" unicode="&#xe15;" horiz-adv-x="578" 
d="M196 549l94 -63l94 63q59 0 96.5 -39t37.5 -100v-410h-82v406q0 61 -48 77l-87 -57h-23l-87 58q-48 -15 -48 -78v-324l144 154h-82v62h172v-62l-215 -236h-100v410q0 61 36.5 100t97.5 39z" />
    <glyph glyph-name="uni0E16" unicode="&#xe16;" horiz-adv-x="564" 
d="M30 355v21q0 78 60 125.5t177 47.5t177 -47.5t60 -125.5v-376h-82v367q0 53 -39.5 85t-118.5 32q-136 0 -154 -92l104 -28v-50h-7q-61 0 -61 -64v-148q0 -16 10 -26.5t26 -10.5h61v-65h-92q-37 0 -62 25t-25 62v163q0 63 46 84z" />
    <glyph glyph-name="uni0E17" unicode="&#xe17;" horiz-adv-x="562" 
d="M61 540h57l18 -76q70 85 189 85q84 0 130 -44.5t46 -128.5v-376h-82v360q0 61 -31.5 92.5t-88.5 31.5q-98 0 -156 -79v-405h-82v540z" />
    <glyph glyph-name="uni0E18" unicode="&#xe18;" horiz-adv-x="489" 
d="M38 418q0 133 204 133q207 0 207 -153h-78q0 86 -129 86q-63 0 -92.5 -15.5t-29.5 -49.5q0 -33 19 -48t66 -33l104 -31q74 -26 107 -62t33 -101q0 -62 -36 -103t-103 -41h-258v199h78v-135h157q38 0 58.5 22.5t20.5 55.5q0 35 -17 56t-59 36l-104 31q-76 27 -112 59
t-36 94z" />
    <glyph glyph-name="uni0E19" unicode="&#xe19;" horiz-adv-x="562" 
d="M61 540h82v-362q0 -59 32 -90.5t89 -31.5q95 0 155 79v405h82v-540h-57l-17 76q-70 -85 -190 -85q-84 0 -130 44.5t-46 126.5v378z" />
    <glyph glyph-name="uni0E1A" unicode="&#xe1a;" horiz-adv-x="562" 
d="M61 179v361h82v-353q0 -131 138 -131t138 130v354h82v-361q0 -87 -55 -137.5t-165 -50.5t-165 50.5t-55 137.5z" />
    <glyph glyph-name="uni0E1B" unicode="&#xe1b;" horiz-adv-x="562" 
d="M61 179v361h82v-353q0 -131 138 -131t138 130v579h82v-586q0 -87 -55 -137.5t-165 -50.5t-165 50.5t-55 137.5z" />
    <glyph glyph-name="uni0E1C" unicode="&#xe1c;" horiz-adv-x="652" 
d="M62 0v453q0 37 25 62t62 25h91v-69h-61q-16 0 -25.5 -10.5t-9.5 -26.5v-321l161 247h43l161 -246v426h82v-540h-84l-181 277l-180 -277h-84z" />
    <glyph glyph-name="uni0E1D" unicode="&#xe1d;" horiz-adv-x="652" 
d="M62 0v453q0 37 25 62t62 25h91v-69h-61q-16 0 -25.5 -10.5t-9.5 -26.5v-321l161 247h43l161 -246v651h82v-765h-85l-180 277l-180 -277h-84z" />
    <glyph glyph-name="uni0E1E" unicode="&#xe1e;" horiz-adv-x="681" 
d="M9 540h85l109 -407l111 407h55l111 -405l108 405h85l-143 -540h-78l-111 404l-111 -404h-78z" />
    <glyph glyph-name="uni0E1F" unicode="&#xe1f;" horiz-adv-x="681" 
d="M9 540h85l109 -407l111 407h55l111 -405l169 630h86l-205 -765h-78l-111 404l-111 -404h-78z" />
    <glyph glyph-name="uni0E20" unicode="&#xe20;" horiz-adv-x="577" 
d="M6 0v65h42q28 0 28 28v157q0 62 47 84l-81 21v21q0 78 60.5 125.5t177.5 47.5t176.5 -47.5t59.5 -125.5v-376h-82v367q0 54 -39 85.5t-118 31.5q-136 0 -154 -92l104 -28v-50h-7q-61 0 -61 -64v-181q0 -30 -19.5 -49.5t-49.5 -19.5h-84z" />
    <glyph glyph-name="uni0E21" unicode="&#xe21;" horiz-adv-x="562" 
d="M61 540h82v-405q58 -79 156 -79q57 0 88.5 31.5t31.5 90.5v362h82v-378q0 -82 -46 -126.5t-130 -44.5q-119 0 -189 85l-18 -76h-57v540z" />
    <glyph glyph-name="uni0E22" unicode="&#xe22;" horiz-adv-x="564" 
d="M41 413q0 64 38.5 100t115.5 36q31 0 57.5 -2.5t37.5 -4.5l11 -2v-60h-87q-91 0 -91 -80q0 -85 91 -85h87v-22v-18v-22h-46q-69 0 -100.5 -21t-31.5 -72q0 -104 150 -104q148 0 148 128v356h82v-357q0 -91 -58 -141.5t-172 -50.5q-232 0 -232 163q0 101 93 128
q-93 24 -93 131z" />
    <glyph glyph-name="uni0E23" unicode="&#xe23;" horiz-adv-x="502" 
d="M36 148h78q0 -48 33.5 -70t104.5 -22q128 0 128 82q0 31 -17.5 48.5t-59.5 32.5l-103 30q-75 26 -111.5 61t-36.5 100q0 71 46.5 105.5t151.5 34.5q101 0 148.5 -36.5t47.5 -115.5h-78q0 45 -28 65.5t-91 20.5q-61 0 -88 -17t-27 -58q0 -36 21 -56t64 -35l103 -30
q76 -26 108 -58t32 -92q0 -147 -206 -147q-113 0 -166.5 38t-53.5 119z" />
    <glyph glyph-name="uni0E24" unicode="&#xe24;" horiz-adv-x="564" 
d="M30 355v21q0 78 60 125.5t177 47.5t177 -47.5t60 -125.5v-601h-82v592q0 53 -39.5 85t-118.5 32q-136 0 -154 -92l104 -28v-50h-7q-61 0 -61 -64v-148q0 -16 10 -26.5t26 -10.5h61v-65h-92q-37 0 -62 25t-25 62v163q0 63 46 84z" />
    <glyph glyph-name="uni0E25" unicode="&#xe25;" horiz-adv-x="543" 
d="M274 549q108 0 158.5 -43.5t50.5 -132.5v-373h-83v245q-159 -1 -218 -25t-59 -79q0 -46 35 -64.5t110 -18.5h48v-58q-37 -9 -86 -9q-189 0 -189 147q0 86 81 128.5t278 43.5v62q0 58 -29.5 85t-96.5 27q-65 0 -94.5 -27t-29.5 -83h-82q0 89 49.5 132t156.5 43z" />
    <glyph glyph-name="uni0E26" unicode="&#xe26;" horiz-adv-x="577" 
d="M6 0v65h42q28 0 28 28v157q0 62 47 84l-81 21v21q0 78 60.5 125.5t177.5 47.5t176.5 -47.5t59.5 -125.5v-601h-82v592q0 54 -39 85.5t-118 31.5q-136 0 -154 -92l104 -28v-50h-7q-61 0 -61 -64v-181q0 -30 -19.5 -49.5t-49.5 -19.5h-84z" />
    <glyph glyph-name="uni0E27" unicode="&#xe27;" horiz-adv-x="544" 
d="M41 158h82q32 -102 141 -102q80 0 118.5 51t38.5 163t-38.5 163t-118.5 51q-109 0 -141 -102h-82q40 167 223 167q121 0 180 -69t59 -210t-59 -210t-180 -69q-183 0 -223 167z" />
    <glyph glyph-name="uni0E28" unicode="&#xe28;" horiz-adv-x="581" 
d="M61 0v362q0 86 57.5 136.5t171.5 50.5q99 0 157 -41q47 41 112 41v-65q-36 0 -68 -21q27 -43 27 -101v-362h-82v352q0 132 -146 132q-147 0 -147 -131v-133q54 68 152 68h44v-65h-54q-53 0 -90.5 -26.5t-51.5 -72.5v-124h-82z" />
    <glyph glyph-name="uni0E29" unicode="&#xe29;" horiz-adv-x="568" 
d="M62 540h82v-353q0 -131 137 -131q138 0 138 130v97h-142v64h142v193h82v-193h66v-64h-66v-104q0 -87 -55 -137.5t-165 -50.5t-164.5 51t-54.5 137v361z" />
    <glyph glyph-name="uni0E2A" unicode="&#xe2a;" horiz-adv-x="546" 
d="M523 549v-65q-32 0 -60 -17q20 -40 20 -94v-373h-83v245q-159 -1 -218 -25t-59 -79q0 -46 35 -64.5t110 -18.5h48v-58q-37 -9 -86 -9q-189 0 -189 145q0 88 80.5 130.5t278.5 43.5v62q0 58 -29.5 85t-96.5 27q-65 0 -94.5 -27t-29.5 -83h-82q0 89 49.5 132t156.5 43
q95 0 147 -35q43 35 102 35z" />
    <glyph glyph-name="uni0E2B" unicode="&#xe2b;" horiz-adv-x="562" 
d="M61 0v540h82v-154h177q46 0 72.5 26t26.5 74v54h82v-59q0 -48 -23 -80.5t-62 -44.5q40 -12 62.5 -44.5t22.5 -80.5v-231h-82v220q0 48 -26.5 74.5t-72.5 26.5h-177v-321h-82z" />
    <glyph glyph-name="uni0E2C" unicode="&#xe2c;" horiz-adv-x="681" 
d="M9 540h85l108 -407l112 407h54l112 -404l68 263q10 38 10 58q0 46 -21 67.5t-70 21.5h-42v15v26v16h79q68 0 98 29.5t30 87.5h82q0 -131 -124 -154q50 -31 50 -111q0 -33 -13 -79l-98 -376h-77l-111 404l-111 -404h-78z" />
    <glyph glyph-name="uni0E2D" unicode="&#xe2d;" horiz-adv-x="566" 
d="M41 270q0 12 2 32h235v-64h-154q5 -95 44 -138.5t116 -43.5q83 0 121.5 51t38.5 163t-38.5 163t-121.5 51q-120 0 -147 -110h-86q37 175 233 175q123 0 182.5 -69t59.5 -210t-59.5 -210t-182.5 -69q-124 0 -183.5 69t-59.5 210z" />
    <glyph glyph-name="uni0E2E" unicode="&#xe2e;" horiz-adv-x="572" 
d="M41 270q0 12 2 32h235v-64h-154q5 -95 44 -138.5t116 -43.5q83 0 121.5 51t38.5 163t-38.5 163t-121.5 51q-120 0 -147 -110h-86q37 175 233 175q97 0 156 -44q46 44 113 44v-65q-37 0 -71 -24q44 -66 44 -190q0 -141 -59.5 -210t-182.5 -69q-124 0 -183.5 69t-59.5 210z
" />
    <glyph glyph-name="uni0E2F" unicode="&#xe2f;" horiz-adv-x="541" 
d="M242 549q22 0 42.5 -2.5t29.5 -4.5l10 -2v-56h-48q-74 0 -113.5 -33.5t-39.5 -94.5q0 -66 39.5 -100t111.5 -34h125v318h82v-540h-82v157h-133q-108 0 -166.5 51.5t-58.5 149.5q0 90 53.5 140.5t147.5 50.5z" />
    <glyph glyph-name="uni0E30" unicode="&#xe30;" horiz-adv-x="309" 
d="M41 173v49h79v-34q0 -36 36 -36h113v-65h-142q-40 0 -63 24t-23 62zM41 411v49h79v-34q0 -36 36 -36h113v-65h-142q-40 0 -63 24t-23 62z" />
    <glyph glyph-name="uni0E31" unicode="&#xe31;" 
d="M-274 714v48h79v-38q0 -16 9.5 -25.5t24.5 -9.5h199v-62h-225q-40 0 -63.5 24.5t-23.5 62.5z" />
    <glyph glyph-name="uni0E32" unicode="&#xe32;" horiz-adv-x="465" 
d="M9 370q0 179 198 179t198 -179v-370h-82v370q0 58 -27.5 86t-88.5 28q-60 0 -88 -28t-28 -86h-82z" />
    <glyph glyph-name="uni0E33" unicode="&#xe33;" horiz-adv-x="465" 
d="M-149 698q0 -16 11 -25t28 -9t28 9t11 25t-11 25t-28 9t-28 -9t-11 -25zM-197 698q0 37 24.5 58.5t62.5 21.5t62.5 -21.5t24.5 -58.5t-24.5 -58.5t-62.5 -21.5t-62.5 21.5t-24.5 58.5zM9 370q0 179 198 179t198 -179v-370h-82v370q0 58 -27.5 86t-88.5 28q-60 0 -88 -28
t-28 -86h-82z" />
    <glyph glyph-name="uni0E34" unicode="&#xe34;" 
d="M-456 627v31l69 31h326v-62h-395z" />
    <glyph glyph-name="uni0E35" unicode="&#xe35;" 
d="M-456 627v30l69 32h247v80h79v-142h-395z" />
    <glyph glyph-name="uni0E36" unicode="&#xe36;" 
d="M-175 704q0 -14 10 -23t27 -9t27 9t10 23q0 30 -37 30t-37 -30zM-457 627v31l69 31h166q-1 5 -1 15q0 35 23 55.5t62 20.5t62.5 -21t23.5 -55q0 -36 -23.5 -56.5t-62.5 -20.5h-319z" />
    <glyph glyph-name="uni0E37" unicode="&#xe37;" 
d="M-456 627v31l67 31h132v80h71v-80h54v80h70v-142h-394z" />
    <glyph glyph-name="uni0E38" unicode="&#xe38;" 
d="M-203 -87h63q34 0 56 -22t22 -57v-104h-78v90q0 14 -9 22.5t-22 8.5h-32v62z" />
    <glyph glyph-name="uni0E39" unicode="&#xe39;" 
d="M-358 -87h57q34 0 56.5 -22t22.5 -57v-42h53q15 0 25 10t10 25v86h72v-104q0 -35 -22 -57t-57 -22h-81h-26h-46v90q0 14 -9 22.5t-22 8.5h-33v62z" />
    <glyph glyph-name="uni0E3A" unicode="&#xe3a;" 
d="M-160 -87h99v-99h-99v99z" />
    <glyph glyph-name="uni0E3F" unicode="&#xe3f;" horiz-adv-x="575" 
d="M220 720h75v-90h13q100 0 146.5 -42.5t46.5 -127.5q0 -98 -65 -137q99 -32 99 -154q0 -85 -46.5 -127t-145.5 -42h-48v-90h-75v90h-158v630h158v90zM147 282v-213h177q65 0 95 26.5t30 80.5t-30 80t-95 26h-177zM147 348h142q66 0 96 26t30 80t-30 80.5t-96 26.5h-142
v-213z" />
    <glyph glyph-name="uni0E40" unicode="&#xe40;" horiz-adv-x="204" 
d="M61 0v540h82v-540h-82z" />
    <glyph glyph-name="uni0E41" unicode="&#xe41;" horiz-adv-x="407" 
d="M266 0v540h82v-540h-82zM61 0v540h82v-540h-82z" />
    <glyph glyph-name="uni0E42" unicode="&#xe42;" horiz-adv-x="322" 
d="M9 596v33q0 66 37 101t99 35h191v-65h-163q-69 0 -80 -58q57 -12 90 -53t33 -102v-376q0 -46 46 -46h47v-65h-81q-42 0 -68 26t-26 68v383q0 56 -33.5 87.5t-91.5 31.5z" />
    <glyph glyph-name="uni0E43" unicode="&#xe43;" horiz-adv-x="318" 
d="M9 632q0 71 40.5 106.5t126.5 35.5q79 0 119.5 -35t40.5 -95q0 -69 -53 -120l-35 -34q-37 -37 -37 -98v-281q0 -46 46 -46h46v-65h-80q-42 0 -68.5 26t-26.5 68v303q0 42 11.5 68.5t37.5 52.5l43 43q39 39 39 81q0 31 -21.5 49.5t-64.5 18.5q-93 0 -93 -78h-71z" />
    <glyph glyph-name="uni0E44" unicode="&#xe44;" horiz-adv-x="318" 
d="M9 700v65h327v-53l-68 -67q-57 -57 -57 -159v-375q0 -46 46 -46h46v-65h-80q-42 0 -68.5 26t-26.5 68v378q0 119 70 189l39 39h-228z" />
    <glyph glyph-name="uni0E45" unicode="&#xe45;" horiz-adv-x="465" 
d="M9 370q0 179 198 179t198 -179v-595h-82v595q0 58 -27.5 86t-88.5 28q-60 0 -88 -28t-28 -86h-82z" />
    <glyph glyph-name="uni0E46" unicode="&#xe46;" horiz-adv-x="550" 
d="M41 376q0 78 34.5 125.5t99.5 47.5l90 -63l90 63q60 0 97 -39t37 -99v-636h-82v631q0 62 -49 78l-82 -59l-22 1l-80 57q-51 -20 -51 -104q0 -68 35.5 -97t110.5 -29h6v-60q-18 -6 -57 -6q-177 0 -177 189z" />
    <glyph glyph-name="uni0E47" unicode="&#xe47;" 
d="M-378 719q0 44 25 67.5t68 23.5h223v-52h-213q-41 0 -41 -38q0 -40 40 -40h14l64 43h18l62 -43h56v-53h-64l-63 46l-66 -46h-32q-41 0 -66 24t-25 68z" />
    <glyph glyph-name="uni0E48" unicode="&#xe48;" 
d="M-140 828v156h79v-156h-79z" />
    <glyph glyph-name="uni0E49" unicode="&#xe49;" 
d="M-292 915v55h78q32 0 51 -18t19 -48v-20h130v-56h-197v57q0 30 -33 30h-48z" />
    <glyph glyph-name="uni0E4A" unicode="&#xe4a;" 
d="M-312 891v21q0 36 21.5 58.5t58.5 22.5l44 -31l43 31q36 0 58.5 -23t22.5 -58v-35h51v-48h-109v79q0 28 -20 39l-36 -27h-20l-37 27q-19 -10 -19 -37v-7q0 -34 34 -34h27v-40h-56q-28 0 -45.5 17t-17.5 45z" />
    <glyph glyph-name="uni0E4B" unicode="&#xe4b;" 
d="M-208 879v55h64v50h79v-50h64v-55h-64v-51h-79v51h-64z" />
    <glyph glyph-name="uni0E4C" unicode="&#xe4c;" 
d="M-286 830v44q0 38 23 62t63 24h138v-60h-111q-15 0 -25 -9.5t-10 -26.5v-34h-78z" />
    <glyph glyph-name="uni0E4D" unicode="&#xe4d;" 
d="M-149 698q0 -16 11 -25t28 -9t28 9t11 25t-11 25t-28 9t-28 -9t-11 -25zM-197 698q0 37 24.5 58.5t62.5 21.5t62.5 -21.5t24.5 -58.5t-24.5 -58.5t-62.5 -21.5t-62.5 21.5t-24.5 58.5z" />
    <glyph glyph-name="uni0E4E" unicode="&#xe4e;" 
d="M-293 627v43q0 38 23 62.5t62 24.5h38v13q0 38 23 62t63 24h89v-62h-69q-15 0 -24.5 -9.5t-9.5 -25.5v-59h-81q-36 0 -36 -34v-39h-78z" />
    <glyph glyph-name="uni0E4F" unicode="&#xe4f;" horiz-adv-x="639" 
d="M211 270q0 46 31.5 77.5t77.5 31.5t77.5 -31.5t31.5 -77.5t-31.5 -77.5t-77.5 -31.5t-77.5 31.5t-31.5 77.5zM86 270q0 -97 68.5 -165.5t165.5 -68.5t165.5 68.5t68.5 165.5t-68.5 165.5t-165.5 68.5t-165.5 -68.5t-68.5 -165.5zM41 270q0 116 81.5 197.5t197.5 81.5
t197.5 -81.5t81.5 -197.5t-81.5 -197.5t-197.5 -81.5t-197.5 81.5t-81.5 197.5z" />
    <glyph glyph-name="uni0E50" unicode="&#xe50;" horiz-adv-x="548" 
d="M120 225q0 -88 37 -130t117 -42q81 0 118 42t37 130q0 89 -37 130.5t-118 41.5q-80 0 -117 -41.5t-37 -130.5zM41 225q0 117 56 175.5t177 58.5t177.5 -58.5t56.5 -175.5t-56.5 -175.5t-177.5 -58.5t-177 58.5t-56 175.5z" />
    <glyph glyph-name="uni0E51" unicode="&#xe51;" horiz-adv-x="512" 
d="M41 263q0 196 211 196q112 0 166 -61t54 -192q0 -139 -62 -215t-186 -76q-46 0 -82 7t-48 14l-13 7v63q46 -29 125 -29q187 0 187 233q0 97 -33.5 142t-108.5 45q-131 0 -131 -130q0 -55 31 -87.5t88 -32.5h42v-55q-18 -7 -61 -7q-85 0 -132 48.5t-47 129.5z" />
    <glyph glyph-name="uni0E52" unicode="&#xe52;" horiz-adv-x="634" 
d="M62 181v359h78v-347q0 -72 41 -106.5t132 -34.5q181 0 181 141v163q0 31 -21 42l-71 -63h-19l-66 58q-13 -12 -13 -37v-158h-69v177q0 38 23 61t61 23l73 -67l75 67q52 0 79 -26t27 -73v-179q0 -190 -260 -190q-132 0 -191.5 48.5t-59.5 141.5z" />
    <glyph glyph-name="uni0E53" unicode="&#xe53;" horiz-adv-x="544" 
d="M61 91v238q0 58 36 94t96 36l80 -63l81 63q58 0 93.5 -36t35.5 -94v-329h-79v314q0 63 -49 78l-72 -55h-19l-72 55q-52 -16 -52 -78v-209q0 -21 13 -34t34 -13h51v-58h-86q-39 0 -65 25.5t-26 65.5z" />
    <glyph glyph-name="uni0E54" unicode="&#xe54;" horiz-adv-x="506" 
d="M41 225q0 225 206 225h88q34 0 47.5 14t13.5 47v29h70v-46q0 -54 -25.5 -80t-80.5 -26h-96q-144 0 -144 -163t144 -163h48q-42 27 -42 90q0 49 26.5 78.5t74.5 29.5h95v-62h-58q-31 0 -47.5 -17.5t-16.5 -48.5t17.5 -50.5t46.5 -19.5h58v-62h-219q-206 0 -206 225z" />
    <glyph glyph-name="uni0E55" unicode="&#xe55;" horiz-adv-x="506" 
d="M200 508q0 -37 41 -37t41 37t-41 37t-41 -37zM153 508q0 39 24 60.5t64 21.5t64 -21.5t24 -60.5q0 -37 -21 -58h26q34 0 48 14t14 47v29h70v-46q0 -54 -25.5 -80t-80.5 -26h-96q-144 0 -144 -163t144 -163h48q-42 28 -42 90q0 49 27 78.5t74 29.5h95v-61h-58
q-31 0 -47.5 -18t-16.5 -49t17.5 -50.5t46.5 -19.5h58v-62h-219q-206 0 -206 225q0 187 141 218q-29 23 -29 65z" />
    <glyph glyph-name="uni0E56" unicode="&#xe56;" horiz-adv-x="526" 
d="M41 134h80q34 -81 136 -81q78 0 114 42t36 130q0 89 -36 130.5t-114 41.5q-102 0 -136 -81h-80v224h79v-123q53 42 141 42q117 0 170.5 -57.5t53.5 -176.5t-55.5 -176.5t-174.5 -57.5q-183 0 -214 143z" />
    <glyph glyph-name="uni0E57" unicode="&#xe57;" horiz-adv-x="765" 
d="M61 91v238q0 58 36 94t96 36l80 -63l81 63q58 0 93.5 -36t35.5 -94v-271h88q24 0 39.5 15.5t15.5 39.5v427h79v-442q0 -43 -28 -70.5t-71 -27.5h-123h-18h-61v314q0 63 -49 78l-72 -55h-19l-72 55q-52 -16 -52 -78v-209q0 -21 12.5 -34t34.5 -13h51v-58h-86
q-39 0 -65 25.5t-26 65.5z" />
    <glyph glyph-name="uni0E58" unicode="&#xe58;" horiz-adv-x="523" 
d="M41 224q0 226 174 226h136q61 0 61 61v29h71v-41q0 -53 -27 -82t-79 -29h-135q-65 0 -93.5 -40.5t-28.5 -123.5q0 -134 62 -163l69 53h19l77 -59q57 10 57 77q0 68 -70 68h-45v57h76q118 0 118 -123q0 -143 -141 -143l-81 63l-81 -63q-64 0 -101.5 63t-37.5 170z" />
    <glyph glyph-name="uni0E59" unicode="&#xe59;" horiz-adv-x="626" 
d="M41 230q0 102 51.5 161t145.5 59h140l28 -135h26q34 0 55.5 21.5t21.5 55.5v148h79v-147q0 -60 -38 -98t-98 -38h-34l55 -257h-81l-81 388h-61q-59 0 -94.5 -40t-35.5 -117q0 -82 32.5 -128.5t95.5 -46.5h47v-56q-24 -9 -74 -9q-86 0 -133 62.5t-47 176.5z" />
    <glyph glyph-name="uni0E5A" unicode="&#xe5a;" horiz-adv-x="712" 
d="M242 549q22 0 42.5 -2.5t29.5 -4.5l10 -2v-56h-48q-74 0 -113.5 -33.5t-39.5 -94.5q0 -66 39.5 -100t111.5 -34h125v318h82v-540h-82v157h-133q-108 0 -166.5 51.5t-58.5 149.5q0 90 53.5 140.5t147.5 50.5zM570 540h82v-540h-82v540z" />
    <glyph glyph-name="uni0E5B" unicode="&#xe5b;" horiz-adv-x="1118" 
d="M41 273q0 135 62 205.5t182 70.5q203 0 203 -202h-68q-3 137 -134 137q-80 0 -121.5 -53t-41.5 -156q0 -107 53.5 -163t152.5 -56q264 0 264 394h68l146 -282l70 135h201v-64h-161l-76 -149h-68l-123 237q-20 -159 -101 -247.5t-222 -88.5q-139 0 -212.5 72.5
t-73.5 209.5z" />
    <glyph glyph-name="endash" unicode="&#x2013;" horiz-adv-x="419" 
d="M41 239v62h338v-62h-338z" />
    <glyph glyph-name="emdash" unicode="&#x2014;" horiz-adv-x="472" 
d="M41 239v62h391v-62h-391z" />
    <glyph glyph-name="quoteleft" unicode="&#x2018;" horiz-adv-x="173" 
d="M41 399v130q0 101 108 101v-44q-54 0 -54 -52v-43h37v-92h-91z" />
    <glyph glyph-name="quoteright" unicode="&#x2019;" horiz-adv-x="173" 
d="M24 399v45q54 0 54 51v44h-37v91h91v-130q0 -101 -108 -101z" />
    <glyph glyph-name="quotesinglbase" unicode="&#x201a;" horiz-adv-x="173" 
d="M41 91h91v-130q0 -100 -108 -100v44q54 0 54 51v44h-37v91z" />
    <glyph glyph-name="quotereversed" unicode="&#x201b;" horiz-adv-x="173" 
d="M41 500v130h91v-91h-37v-44q0 -51 54 -51v-45q-108 0 -108 101z" />
    <glyph glyph-name="quotedblleft" unicode="&#x201c;" horiz-adv-x="336" 
d="M206 399v130q0 101 108 101v-44q-54 0 -54 -52v-43h37v-92h-91zM41 399v130q0 101 108 101v-44q-54 0 -54 -52v-43h37v-92h-91z" />
    <glyph glyph-name="quotedblright" unicode="&#x201d;" horiz-adv-x="336" 
d="M24 399v45q54 0 54 51v44h-37v91h91v-130q0 -101 -108 -101zM189 399v45q54 0 54 51v44h-37v91h91v-130q0 -101 -108 -101z" />
    <glyph glyph-name="quotedblbase" unicode="&#x201e;" horiz-adv-x="336" 
d="M41 91h91v-130q0 -100 -108 -100v44q54 0 54 51v44h-37v91zM206 91h91v-130q0 -100 -108 -100v44q54 0 54 51v44h-37v91z" />
    <glyph glyph-name="dagger" unicode="&#x2020;" horiz-adv-x="320" 
d="M9 478v62h112v180h79v-180h112v-62h-112v-568h-79v568h-112z" />
    <glyph glyph-name="daggerdbl" unicode="&#x2021;" horiz-adv-x="320" 
d="M9 90v62h112v326h-112v62h112v180h79v-180h112v-62h-112v-326h112v-62h-112v-180h-79v180h-112z" />
    <glyph glyph-name="bullet" unicode="&#x2022;" horiz-adv-x="313" 
d="M41 270q0 48 34 82t82 34t82 -34t34 -82t-34 -82t-82 -34t-82 34t-34 82z" />
    <glyph glyph-name="ellipsis" unicode="&#x2026;" horiz-adv-x="570" 
d="M435 0v96h95v-96h-95zM238 0v96h96v-96h-96zM41 0v96h96v-96h-96z" />
    <glyph glyph-name="perthousand" unicode="&#x2030;" horiz-adv-x="1011" 
d="M167 638q65 0 95.5 -43.5t30.5 -144.5t-30.5 -144.5t-95.5 -43.5t-95.5 43.5t-30.5 144.5t30.5 144.5t95.5 43.5zM167 594q-39 0 -55.5 -31.5t-16.5 -112.5t16.5 -112.5t55.5 -31.5t55.5 31.5t16.5 112.5t-16.5 112.5t-55.5 31.5zM462 630h60l-270 -630h-60zM544 368
q65 0 95.5 -43.5t30.5 -144.5t-30.5 -144.5t-95.5 -43.5t-95.5 43.5t-30.5 144.5t30.5 144.5t95.5 43.5zM544 324q-39 0 -55.5 -31.5t-16.5 -112.5t16.5 -112.5t55.5 -31.5t55.5 31.5t16.5 112.5t-16.5 112.5t-55.5 31.5zM845 368q65 0 96 -44t31 -144t-31 -144t-96 -44
t-95.5 43.5t-30.5 144.5t30.5 144.5t95.5 43.5zM845 324q-39 0 -55.5 -31.5t-16.5 -112.5t16.5 -112.5t55.5 -31.5t56 32t17 112t-17 112t-56 32z" />
    <glyph glyph-name="guilsinglleft" unicode="&#x2039;" horiz-adv-x="267" 
d="M41 209v32l135 225l56 -32l-125 -209l125 -209l-56 -32z" />
    <glyph glyph-name="guilsinglright" unicode="&#x203a;" horiz-adv-x="267" 
d="M41 16l125 209l-125 209l56 32l135 -225v-32l-135 -225z" />
    <glyph glyph-name="fraction" unicode="&#x2044;" horiz-adv-x="345" 
d="M9 0l270 630h60l-270 -630h-60z" />
    <glyph glyph-name="Euro" unicode="&#x20ac;" horiz-adv-x="663" 
d="M364 639q109 0 173 -49t86 -152h-86q-19 70 -61.5 101t-110.5 31q-75 0 -120 -37t-60 -117h206v-55h-213q-2 -30 -2 -46t2 -46h213v-55h-206q15 -81 59.5 -117.5t120.5 -36.5q68 0 110.5 31t61.5 101h86q-22 -103 -86 -152t-173 -49q-230 0 -266 223h-89v55h83
q-1 15 -1 46t1 46h-83v55h89q36 223 266 223z" />
    <glyph glyph-name="trademark" unicode="&#x2122;" horiz-adv-x="524" 
d="M27 630h197v-40h-73v-191h-50v191h-74v40zM250 630h65l53 -166l53 166h63v-231h-46v154l-49 -154h-42l-50 156v-156h-47v231z" />
    <glyph glyph-name="minus" unicode="&#x2212;" horiz-adv-x="396" 
d="M41 239v61h315v-61h-315z" />
    <glyph glyph-name="glyph98" horiz-adv-x="518" 
d="M513 549v-65q-32 0 -59 -16q19 -34 19 -81q0 -66 -36 -146l-114 -241h-109l-113 227h-60v65h121l106 -231l96 217q27 62 27 110q0 96 -134 96q-68 0 -101 -23.5t-33 -74.5h-82q0 163 215 163q101 0 154 -35q43 35 103 35z" />
    <glyph glyph-name="glyph99" 
d="M-569 627v31l69 31h286v-62h-355z" />
    <glyph glyph-name="glyph100" 
d="M-569 627v30l69 32h212v80h74v-142h-355z" />
    <glyph glyph-name="glyph101" 
d="M-325 704q0 -14 10 -23t27 -9t27 9t10 23q0 30 -37 30t-37 -30zM-569 627v31l69 31h130q-1 5 -1 15q0 35 22.5 55.5t60.5 20.5t60.5 -20.5t22.5 -55.5q0 -36 -22.5 -56.5t-60.5 -20.5h-281z" />
    <glyph glyph-name="glyph102" 
d="M-569 627v31l67 31h108v80h62v-80h54v80h64v-142h-355z" />
    <glyph glyph-name="glyph104" 
d="M-339 627v183h79v-183h-79z" />
    <glyph glyph-name="glyph105" 
d="M-517 729v62h90q36 0 57.5 -20t21.5 -54v-25h164v-62h-243v64q0 35 -41 35h-49z" />
    <glyph glyph-name="glyph106" 
d="M-542 700v24q0 42 26 68.5t71 26.5l55 -45l54 45q42 0 69 -26.5t27 -68.5v-43h62v-54h-129v93q0 34 -24 46l-50 -42h-18l-53 43q-23 -11 -23 -45v-7q0 -40 40 -40h31v-48h-65q-32 0 -52.5 20.5t-20.5 52.5z" />
    <glyph glyph-name="glyph107" 
d="M-438 688v61h73v61h78v-61h73v-61h-73v-61h-78v61h-73z" />
    <glyph glyph-name="glyph108" 
d="M-456 627v49q0 38 23 62t63 24h163v-62h-135q-36 0 -36 -36v-37h-78z" />
    <glyph glyph-name="glyph109" 
d="M-140 627v183h79v-183h-79z" />
    <glyph glyph-name="glyph110" 
d="M-322 728v63h91q36 0 57 -20t21 -54v-25h164v-62h-243v63q0 35 -38 35h-52z" />
    <glyph glyph-name="glyph111" 
d="M-378 700v24q0 42 26 68.5t71 26.5l55 -45l54 45q42 0 69 -26.5t27 -68.5v-43h62v-54h-129v93q0 34 -24 46l-51 -42h-17l-53 43q-23 -12 -23 -45v-7q0 -40 40 -40h31v-48h-66q-32 0 -52 20.5t-20 52.5z" />
    <glyph glyph-name="glyph112" 
d="M-218 688v61h73v61h78v-61h73v-61h-73v-61h-78v61h-73z" />
    <glyph glyph-name="glyph113" 
d="M-254 627v49q0 38 23 62t63 24h164v-62h-137q-15 0 -25 -9t-10 -25v-39h-78z" />
    <glyph glyph-name="glyph114" horiz-adv-x="871" 
d="M30 355v21q0 78 60 125.5t177 47.5t177 -47.5t60 -125.5v-203q0 -117 112 -117q113 0 113 115v369h82v-375q0 -81 -48.5 -127.5t-146.5 -46.5q-97 0 -145.5 47t-48.5 127v202q0 53 -39.5 85t-118.5 32q-136 0 -154 -92l104 -28v-50h-7q-61 0 -61 -64v-148q0 -16 10 -26.5
t26 -10.5h61v-65h-92q-37 0 -62 25t-25 62v163q0 63 46 84z" />
    <glyph glyph-name="glyph122" 
d="M-500 714v48h78v-36q0 -17 9.5 -27t26.5 -10h172v-62h-200q-40 0 -63 24.5t-23 62.5z" />
    <glyph glyph-name="glyph123" 
d="M-335 698q0 -16 11 -25t28 -9t28 9t11 25t-11 25t-28 9t-28 -9t-11 -25zM-383 698q0 37 24.5 58.5t62.5 21.5t63 -21.5t25 -58.5t-25 -58.5t-63 -21.5t-62.5 21.5t-24.5 58.5z" />
    <glyph glyph-name="glyph124" 
d="M-530 719q0 44 25 67.5t68 23.5h223v-52h-213q-41 0 -41 -38q0 -40 40 -40h14l64 43h18l62 -43h56v-53h-64l-63 46l-65 -46h-33q-41 0 -66 24t-25 68z" />
    <glyph glyph-name="glyph125" 
d="M-288 828v156h74v-156h-74z" />
    <glyph glyph-name="glyph126" 
d="M-430 915v55h78q32 0 51 -18t19 -48v-20h130v-56h-197v57q0 30 -34 30h-47z" />
    <glyph glyph-name="glyph127" 
d="M-466 891v21q0 36 21.5 58.5t58.5 22.5l45 -31l43 31q36 0 58 -22.5t22 -58.5v-35h52v-48h-110v79q0 29 -19 39l-36 -27h-21l-37 27q-19 -10 -19 -37v-7q0 -34 34 -34h28v-40h-57q-28 0 -45.5 17t-17.5 45z" />
    <glyph glyph-name="glyph128" 
d="M-355 879v55h64v50h74v-50h64v-55h-64v-51h-74v51h-64z" />
    <glyph glyph-name="glyph129" 
d="M-438 830v44q0 38 23 62t63 24h138v-60h-115q-15 0 -25 -9t-10 -25v-36h-74z" />
    <glyph glyph-name="glyph217" 
d="M-203 -312h63q34 0 56 -22t22 -57v-104h-78v92q0 13 -8 21t-21 8h-34v62z" />
    <glyph glyph-name="glyph218" 
d="M-358 -312h57q34 0 56.5 -22t22.5 -57v-42h53q15 0 25 10t10 25v86h72v-104q0 -34 -22 -56.5t-57 -22.5h-81h-26h-46v92q0 13 -8.5 21t-21.5 8h-34v62z" />
    <glyph glyph-name="glyph219" 
d="M-160 -312h99v-99h-99v99z" />
    <glyph glyph-name="uni0E24_uni0E32.ccmp" horiz-adv-x="895" 
d="M640 546q95 0 145 -44t50 -128v-599h-82v589q0 60 -33 90.5t-92 30.5q-55 0 -87.5 -27.5t-36.5 -81.5v-601h-82v592q0 53 -39.5 85t-118.5 32q-136 0 -154 -92l104 -28v-50h-7q-61 0 -61 -64v-144q0 -18 11.5 -29.5t29.5 -11.5h56v-65h-92q-37 0 -62 25t-25 62v163
q0 63 46 84l-80 21v21q0 78 60 125.5t177 47.5q152 0 209 -80q46 77 164 77z" />
    <glyph glyph-name="uni0E26_uni0E32.ccmp" horiz-adv-x="908" 
d="M653 546q95 0 145 -44t50 -128v-599h-82v589q0 60 -33 90.5t-92 30.5t-92 -30.5t-33 -90.5v-589h-82v592q0 54 -39 85.5t-118 31.5q-136 0 -154 -92l104 -28v-50h-7q-61 0 -61 -64v-181q0 -30 -19.5 -49.5t-49.5 -19.5h-84v65h42q28 0 28 28v157q0 62 47 84l-81 21v21
q0 78 60.5 125.5t177.5 47.5q152 0 209 -80q46 77 164 77z" />
    <glyph glyph-name="glyph222" horiz-adv-x="681" 
d="M9 540h85l108 -407l112 407h55l114 -416l55 212q9 32 9 56q0 91 -93 91h-55v41v16h109q97 0 97 72h84q0 -46 -30 -75.5t-87 -36.5q49 -34 49 -113q0 -35 -14 -83l-77 -304h-78l-111 404l-110 -404h-79z" />
    <glyph glyph-name="glyph223" horiz-adv-x="465" 
d="M-335 698q0 -16 11 -25t28 -9t28 9t11 25t-11 25t-28 9t-28 -9t-11 -25zM-383 698q0 37 24.5 58.5t62.5 21.5t63 -21.5t25 -58.5t-25 -58.5t-63 -21.5t-62.5 21.5t-24.5 58.5zM9 370q0 179 198 179t198 -179v-370h-82v370q0 58 -27.5 86t-88.5 28q-60 0 -88 -28t-28 -86
h-82z" />
    <glyph glyph-name="glyph224" 
d="M-410 627v43q0 38 23 62.5t63 24.5h37v13q0 38 23 62t63 24h90v-62h-69q-15 0 -25 -9.5t-10 -25.5v-59h-82q-15 0 -25 -9t-10 -25v-39h-78z" />
    <glyph glyph-name="glyph333" horiz-adv-x="575" 
d="M501 630v-64l-177 -206h19q99 0 145.5 -44.5t46.5 -134.5q0 -91 -46.5 -136t-145.5 -45h-91v64h72q65 0 95 30t30 91t-30 91t-95 30h-72v54v6l165 200h-270v-566h-86v630h440z" />
    </font>
</defs>
</svg>
