<svg xmlns="http://www.w3.org/2000/svg" width="64" height="64" viewBox="0 0 64 64">
  <g id="Group_3067" data-name="Group 3067" transform="translate(-583 -549)">
    <g id="Rectangle_2005" data-name="Rectangle 2005" transform="translate(583 549)" fill="none" stroke="#161616" stroke-width="1">
      <rect width="64" height="64" stroke="none"/>
      <rect x="0.5" y="0.5" width="63" height="63" fill="none"/>
    </g>
    <g id="Group_17" data-name="Group 17" transform="translate(-3243.738 -2171.586)">
      <path id="Path_56" data-name="Path 56" d="M3859.293,2949v-3.115h-.179c-.438,0-.876,0-1.314,0q-.791-.01-1.583-.033-.765-.024-1.528-.065-.746-.04-1.49-.1c-.522-.039-1.045-.077-1.565-.132-.614-.065-1.225-.146-1.838-.224-.507-.063-1.015-.119-1.519-.2-.591-.094-1.18-.2-1.768-.32-.675-.132-1.353-.26-2.02-.425-.811-.2-1.616-.427-2.417-.663a19.129,19.129,0,0,1-3.506-1.411,9.488,9.488,0,0,1-1.826-1.217,4.445,4.445,0,0,1-1.02-1.2,2.472,2.472,0,0,1,.171-2.75,5.193,5.193,0,0,1,1.138-1.168,10.943,10.943,0,0,1,2.217-1.31c.613-.277,1.239-.526,1.869-.76a33.128,33.128,0,0,1,3.565-1.037.872.872,0,0,1,.142-.01c0,.317,0,.624-.006.93,0,.036-.079.085-.13.1-.69.218-1.39.414-2.074.65a12.085,12.085,0,0,0-3,1.454,3.489,3.489,0,0,0-1.256,1.356,1.6,1.6,0,0,0,.181,1.686,4.869,4.869,0,0,0,1.708,1.388,14.486,14.486,0,0,0,2.607,1.091,27.29,27.29,0,0,0,3.256.842c.666.129,1.33.267,2,.382.481.083.968.139,1.453.2q.832.1,1.665.195c.334.037.669.07,1,.1q.9.071,1.792.13c.4.027.8.052,1.2.064.839.026,1.678.044,2.518.066.306.009.612.028.918.03.2,0,.406-.021.632-.033v-3.281l4.406,4.4-1.323,1.319q-1.342,1.34-2.683,2.683c-.12.12-.224.257-.335.386Z" transform="translate(0 -183.095)" fill="#161616"/>
      <path id="Path_57" data-name="Path 57" d="M4781.562,2945.124c-.033.163-.064.325-.1.487a2.787,2.787,0,0,1-.613,1.173,7.328,7.328,0,0,1-2.2,1.735,18.8,18.8,0,0,1-2.7,1.208,33.364,33.364,0,0,1-3.731,1.09c-.73.177-1.469.317-2.208.455-.558.1-1.122.18-1.683.266-.436.066-.871.133-1.309.19-.322.042-.646.067-.97.1-.217.023-.433.051-.662.078v-2.36c.227-.026.458-.05.688-.078.412-.051.822-.1,1.234-.158.327-.042.654-.084.979-.134.54-.083,1.082-.16,1.618-.264.707-.137,1.412-.285,2.112-.451a23.094,23.094,0,0,0,3.434-1.081,9.787,9.787,0,0,0,1.886-.992,3.431,3.431,0,0,0,1.239-1.332,1.547,1.547,0,0,0-.1-1.5,4.29,4.29,0,0,0-1.568-1.45,16.6,16.6,0,0,0-3.639-1.546c-.065-.021-.133-.033-.2-.05v-1.068c.491.138.976.254,1.446.409.739.243,1.477.494,2.2.773a12.762,12.762,0,0,1,3.106,1.668,4.654,4.654,0,0,1,1.445,1.628,2.119,2.119,0,0,1,.252.93c0,.026.022.053.034.08Z" transform="translate(-899.823 -189.463)" fill="#161616"/>
      <path id="Path_58" data-name="Path 58" d="M4678.176,2770.105a7.514,7.514,0,0,1-.364,2.158,4.056,4.056,0,0,1-2.246,2.649,4.514,4.514,0,0,1-2.232.32,4.1,4.1,0,0,1-1.869-.609,4.2,4.2,0,0,1-1.656-2.113,7.69,7.69,0,0,1-.461-2.335,8.1,8.1,0,0,1,.236-2.611,5.118,5.118,0,0,1,1.421-2.491,3.826,3.826,0,0,1,2.6-1.059,4.6,4.6,0,0,1,2.032.375,3.849,3.849,0,0,1,1.978,2.1A8.9,8.9,0,0,1,4678.176,2770.105Zm-3.112-.383c-.044-.439-.067-.882-.137-1.317a3.139,3.139,0,0,0-.632-1.568.672.672,0,0,0-1.125,0,2.619,2.619,0,0,0-.281.432,4.457,4.457,0,0,0-.437,1.692,6.245,6.245,0,0,0,.338,2.8,2.182,2.182,0,0,0,.551.865.6.6,0,0,0,.937-.027,2.286,2.286,0,0,0,.392-.622A6.486,6.486,0,0,0,4675.064,2769.722Z" transform="translate(-806.879 -19.727)" fill="#161616"/>
      <path id="Path_59" data-name="Path 59" d="M4399.312,2768.494c-.345-.172-.669-.341-1-.5a2.873,2.873,0,0,0-1.186-.28,1.877,1.877,0,0,0-1.764,1.047,5.786,5.786,0,0,0-.317.841.2.2,0,0,0,0,.088,8.976,8.976,0,0,1,.971-.476,3.432,3.432,0,0,1,4.545,2.368,3.769,3.769,0,0,1-1.015,3.677,3.9,3.9,0,0,1-2.324,1.1,4.493,4.493,0,0,1-2.56-.332,4.119,4.119,0,0,1-2.143-2.373,7.138,7.138,0,0,1-.367-3.152,8.4,8.4,0,0,1,.43-2.178,4.5,4.5,0,0,1,1.793-2.42,4.119,4.119,0,0,1,1.879-.627,6.071,6.071,0,0,1,3.866,1.008c.082.052.154.117.246.188Q4399.839,2767.487,4399.312,2768.494Zm-1.429,4.155c-.018-.133-.028-.269-.058-.4a1.156,1.156,0,0,0-1.472-.942,2.415,2.415,0,0,0-1.216.724.3.3,0,0,0-.093.289,3.666,3.666,0,0,0,.1.474,1.405,1.405,0,0,0,1.568,1.149A1.337,1.337,0,0,0,4397.883,2772.649Z" transform="translate(-538.668 -20.934)" fill="#161616"/>
      <path id="Path_60" data-name="Path 60" d="M4139.128,2770.063a11,11,0,0,1,.817.855,3,3,0,0,1-.5,4.071,4.88,4.88,0,0,1-2.539,1.021,4.815,4.815,0,0,1-3.6-.987,8.9,8.9,0,0,1-.746-.7l1.615-1.677c.183.157.355.319.541.461a2.283,2.283,0,0,0,2.172.437.98.98,0,0,0,.719-.92,1.731,1.731,0,0,0-.079-.667.859.859,0,0,0-.805-.578c-.452-.034-.906-.027-1.36-.037h-.187v-1.87c.384,0,.761.01,1.136,0a2.247,2.247,0,0,0,.6-.094,1.049,1.049,0,0,0,.411-1.736,1.466,1.466,0,0,0-1.552-.355,3.147,3.147,0,0,0-1.33.853c-.5-.607-1.006-1.212-1.514-1.825a4.251,4.251,0,0,1,.942-.748,4.649,4.649,0,0,1,2.8-.726,4.55,4.55,0,0,1,2.177.639,2.863,2.863,0,0,1,1.32,1.986,2.606,2.606,0,0,1-.074,1.4,2.749,2.749,0,0,1-.849,1.1C4139.2,2770.005,4139.151,2770.045,4139.128,2770.063Z" transform="translate(-287.533 -20.51)" fill="#161616"/>
      <path id="Path_61" data-name="Path 61" d="M4949.783,2745.619a1.976,1.976,0,0,1,1.986-2,2,2,0,1,1-1.986,2Zm1.987,1.038a1.028,1.028,0,0,0,1.044-1.029,1.038,1.038,0,1,0-2.075-.01A1.021,1.021,0,0,0,4951.77,2746.658Z" transform="translate(-1078.228 0)" fill="#161616"/>
    </g>
  </g>
</svg>
