<svg xmlns="http://www.w3.org/2000/svg" width="16.613" height="18.902" viewBox="0 0 16.613 18.902">
  <g id="Group_5968" data-name="Group 5968" transform="translate(-17131 -5233.789)">
    <path id="Path_9400" data-name="Path 9400" d="M11.462,12.489c2.011-3.156,1.759-2.763,1.817-2.845A6.046,6.046,0,0,0,14.4,6.128,6.092,6.092,0,1,0,3.367,9.689l1.784,2.8C3.243,12.782,0,13.656,0,15.58c0,.7.458,1.7,2.638,2.479a17.479,17.479,0,0,0,5.668.843c3.988,0,8.307-1.125,8.307-3.323,0-1.924-3.239-2.8-5.151-3.091M4.292,9.08l-.019-.028A4.984,4.984,0,1,1,12.381,9c-.053.07.225-.362-4.074,6.384Zm4.015,8.715c-4.356,0-7.2-1.28-7.2-2.215,0-.628,1.461-1.661,4.7-2.064L7.84,16.708a.554.554,0,0,0,.934,0l2.034-3.192c3.237.4,4.7,1.436,4.7,2.064,0,.927-2.817,2.215-7.2,2.215" transform="translate(17131 5233.789)" fill="#fff"/>
    <path id="Path_9401" data-name="Path 9401" d="M152.769,91a2.769,2.769,0,1,0,2.769,2.769A2.772,2.772,0,0,0,152.769,91m0,4.43a1.661,1.661,0,1,1,1.661-1.661,1.663,1.663,0,0,1-1.661,1.661" transform="translate(16986.539 5146.149)" fill="#fff"/>
  </g>
</svg>
