<svg id="Group_5970" data-name="Group 5970" xmlns="http://www.w3.org/2000/svg" width="19.672" height="19.672" viewBox="0 0 19.672 19.672">
  <g id="Group_5963" data-name="Group 5963">
    <g id="Group_5962" data-name="Group 5962">
      <path id="Path_9569" data-name="Path 9569" d="M9.836,0a9.836,9.836,0,1,0,9.836,9.836A9.83,9.83,0,0,0,9.836,0Zm0,18.135a8.3,8.3,0,1,1,8.3-8.3A8.294,8.294,0,0,1,9.836,18.135Z" fill="#fff"/>
    </g>
  </g>
  <g id="Group_5965" data-name="Group 5965" transform="translate(9.068 8.235)">
    <g id="Group_5964" data-name="Group 5964">
      <path id="Path_9570" data-name="Path 9570" d="M236.768,214.33a.768.768,0,0,0-.768.768v4.948a.768.768,0,1,0,1.537,0V215.1A.768.768,0,0,0,236.768,214.33Z" transform="translate(-236 -214.33)" fill="#fff"/>
    </g>
  </g>
  <g id="Group_5967" data-name="Group 5967" transform="translate(8.799 5.219)">
    <g id="Group_5966" data-name="Group 5966">
      <circle id="Ellipse_293" data-name="Ellipse 293" cx="1.037" cy="1.037" r="1.037" fill="#fff"/>
    </g>
  </g>
</svg>
