<svg xmlns="http://www.w3.org/2000/svg" width="17.83" height="19.506" viewBox="0 0 17.83 19.506">
  <g id="Group_5969" data-name="Group 5969" transform="translate(-185 -22)">
    <path id="Path_9573" data-name="Path 9573" d="M202.258,22H186.791a.571.571,0,0,0-.571.571v2.514h-.648a.571.571,0,0,0,0,1.143h.648v1.9h-.648a.571.571,0,0,0,0,1.143h.648v1.9h-.648a.571.571,0,0,0,0,1.143h.648v1.9h-.648a.571.571,0,0,0,0,1.143h.648v1.9h-.648a.571.571,0,0,0,0,1.143h.648v2.514a.571.571,0,0,0,.571.571h15.468a.571.571,0,0,0,.571-.571V22.571A.571.571,0,0,0,202.258,22Zm-.571,18.363H187.362V38.42h.648a.571.571,0,1,0,0-1.143h-.648v-1.9h.648a.571.571,0,1,0,0-1.143h-.648v-1.9h.648a.571.571,0,1,0,0-1.143h-.648v-1.9h.648a.571.571,0,1,0,0-1.143h-.648v-1.9h.648a.571.571,0,1,0,0-1.143h-.648V23.143h14.325Z" fill="#fff"/>
    <path id="Path_9574" data-name="Path 9574" d="M343,167.5a.606.606,0,0,0,1.209,0,2.655,2.655,0,1,1,5.239,0,.606.606,0,0,0,1.209,0,4.353,4.353,0,0,0-1.985-3.724,2.643,2.643,0,0,0,1.018-2.067,2.866,2.866,0,0,0-5.723,0,2.643,2.643,0,0,0,1.018,2.067A4.354,4.354,0,0,0,343,167.5Zm2.176-5.791a1.655,1.655,0,1,1,1.652,1.562A1.611,1.611,0,0,1,345.176,161.7Z" transform="translate(-151.981 -131.781)" fill="#fff"/>
  </g>
</svg>
