<svg xmlns="http://www.w3.org/2000/svg" width="19.254" height="16.923" viewBox="0 0 19.254 16.923">
  <path id="Path_9575" data-name="Path 9575" d="M18.694,33.257H13.576v-.564A1.694,1.694,0,0,0,11.884,31H7.371a1.694,1.694,0,0,0-1.692,1.692v.564H.564A.566.566,0,0,0,0,33.82v12.41a1.694,1.694,0,0,0,1.692,1.692h15.87a1.694,1.694,0,0,0,1.692-1.692V33.83A.548.548,0,0,0,18.694,33.257ZM6.807,32.692a.565.565,0,0,1,.564-.564h4.513a.565.565,0,0,1,.564.564v.564H6.807Zm11.1,1.692L16.156,39.64a.563.563,0,0,1-.535.386H12.448v-.564a.564.564,0,0,0-.564-.564H7.371a.564.564,0,0,0-.564.564v.564H3.634A.563.563,0,0,1,3.1,39.64L1.347,34.385Zm-6.588,5.641v1.128H7.935V40.025Zm6.807,6.205a.565.565,0,0,1-.564.564H1.692a.565.565,0,0,1-.564-.564V37.3l.9,2.7a1.69,1.69,0,0,0,1.605,1.157H6.807v.564a.564.564,0,0,0,.564.564h4.513a.564.564,0,0,0,.564-.564v-.564h3.173A1.69,1.69,0,0,0,17.226,40l.9-2.7Z" transform="translate(0 -31)" fill="#fff"/>
</svg>
