<svg xmlns="http://www.w3.org/2000/svg" width="100" height="48.913" viewBox="0 0 100 48.913">
  <g id="Group_2939" data-name="Group 2939" transform="translate(-98.643 -87.202)">
    <path id="Path_1" data-name="Path 1" d="M216.3,104.185l-3.077,1.132,3.077-1.132ZM215.717,98l-5.817,2.176-3.17,4.269-.094.119,2.975,2.273.181-.264.364-.131-2.85-2.128,2.918-3.942,5.52-2.068-.176-.087.075-.112.074-.1" transform="translate(-48.665 -4.864)" fill="#ffbe00"/>
    <path id="Path_2" data-name="Path 2" d="M231.828,87.9l3.521,1.3-2.111,3.688-1.985.737L227.3,95.086l-3.229-1.666,2.4-3.5Z" transform="translate(-56.523 -0.315)" fill="#ffbe00"/>
    <path id="Path_3" data-name="Path 3" d="M231.534,87.2l3.951,1.433-2.33,4.131-6.332,2.346h0l6.153-2.28-.095-.329-2.16.806,1.985-.737,2.111-3.688-3.521-1.3L225.942,89.6l-2.4,3.5,3.229,1.666-.35.132-.144.229-3.207-1.7-.176-.087.075-.112.074-.1,2.544-3.682Z" transform="translate(-55.991)" fill="#ffbe00"/>
    <path id="Path_4" data-name="Path 4" d="M239.746,125.493l5.671,3.583-2.581,7.324-9.047,3.03-5.091-4.614,3.294-6.607Z" transform="translate(-58.606 -17.255)" fill="#ffbe00"/>
    <path id="Path_5" data-name="Path 5" d="M239.577,124.523v.01l5.691,3.531h0Zm-.769-.028-8.143,2.854-3.6,7.138-.107.209,5.64,5.232,10.2-3.408,2.7-7.836-.508.174-.36-.232-2.581,7.324L233,138.979l-5.091-4.614,3.294-6.607,7.754-2.716-.3-.2.07-.174.077-.178" transform="translate(-57.822 -16.805)" fill="#ffbe00"/>
    <path id="Path_6" data-name="Path 6" d="M259.54,108.635l6.524,2.829-1.783,6.934-9.181,3.139-.508.173-.361-.232-5.671-3.583-.3-.2.071-.173.077-.178,2.43-5.617.294.161,4.131-1.47-3.7,1.316-2.391,5.637v.011l5.691,3.531h0l8.59-2.953,1.658-6.164L259,109.091l.435-.157Z" transform="translate(-67.421 -9.658)" fill="#ffbe00"/>
    <path id="Path_7" data-name="Path 7" d="M215.865,109.261l-.156.256.194.126-6.186,2.27-3.279,4.793,3.2,2.9,6.974-2.481,2.946-5.163-1.884-1.194,2.119,1.341.387-.143-3.1,5.505-7.851,2.792-3.542-3.282.1-.147,3.395-4.921.181-.263.364-.131,3.062-1.122Z" transform="translate(-48.235 -9.94)" fill="#ffbe00"/>
    <path id="Path_8" data-name="Path 8" d="M254.076,96.435l5.085,1.88-1.709,4.826-7.371,2.635-4.74-2.458,2.238-4.5Z" transform="translate(-66.106 -4.161)" fill="#ffbe00"/>
    <path id="Path_9" data-name="Path 9" d="M249.638,105.377l-4.74-2.458,2.239-4.5,6.5-2.38,5.086,1.879-1.709,4.826Zm4.2-9.825-7.213,2.642-.065.124.63-.033-2.436,4.91-.4.144,4.721,2.5.294.162,4.13-1.47,3.733-1.332.435-.157.11-.3,1.755-5.117-5.7-2.07" transform="translate(-65.663 -3.763)" fill="#ffbe00"/>
    <path id="Path_10" data-name="Path 10" d="M233.35,96.851l.1.329-6.153,2.28h0l-2.632,4.2,3.679,2.278,6.7-2.421,2.317-4.611.63-.034-2.436,4.91-.4.144-6.751,2.444-.387.143L225.9,105.17l-1.769-1.12-.194-.126.156-.256h0l2.656-4.189.144-.229.35-.132,3.949-1.462Z" transform="translate(-56.459 -4.348)" fill="#ffbe00"/>
    <g id="Group_1" data-name="Group 1" transform="translate(99.645 99.702)">
      <path id="Path_11" data-name="Path 11" d="M197.44,151.121l4.174-19.482H212.1l-4.133,19.482Z" transform="translate(-144.166 -119.727)" fill="#fff"/>
      <path id="Path_12" data-name="Path 12" d="M122.3,138.684h-4.761l-3.083,6.226H144.32l1.561-7.346c.495-2.338,2.277-3.79,5.006-3.79a5.143,5.143,0,0,1,3.006,1.064l2-9.406c-3.558-.055-5.565.437-8.071,3H147.6l.724-2.561H137.861l-3.565,16.7-4.878-24.711H117.051L100.467,144.91h11.968l8.793-18.033h.391Z" transform="translate(-100.467 -113.516)" fill="#fff"/>
      <path id="Path_13" data-name="Path 13" d="M216.524,109.956l1.769,1.12,1.884,1.194-2.946,5.163-6.974,2.481-3.2-2.9,3.279-4.793Z" transform="translate(-148.5 -109.956)" fill="#fff"/>
    </g>
    <g id="Group_2" data-name="Group 2" transform="translate(98.643 133.203)">
      <path id="Path_14" data-name="Path 14" d="M100.235,171.817l-.062.3h.855l-.148.727h-.854l-.2.988H98.643l.576-2.825h2.163l-.165.808Z" transform="translate(-98.643 -170.968)" fill="#fff"/>
      <path id="Path_15" data-name="Path 15" d="M107.208,172.394a1.561,1.561,0,0,1-.264.611,1.868,1.868,0,0,1-.477.456,2.213,2.213,0,0,1-.628.287,2.583,2.583,0,0,1-.718.1,2.179,2.179,0,0,1-.678-.1,1.363,1.363,0,0,1-.511-.287,1.04,1.04,0,0,1-.291-.456,1.207,1.207,0,0,1-.015-.611,1.55,1.55,0,0,1,.262-.6,1.852,1.852,0,0,1,.477-.459,2.364,2.364,0,0,1,.63-.294,2.475,2.475,0,0,1,.719-.1,2.069,2.069,0,0,1,.676.1,1.443,1.443,0,0,1,.51.294,1.025,1.025,0,0,1,.29.459A1.2,1.2,0,0,1,107.208,172.394Zm-1.184.018a.447.447,0,0,0-.086-.39.5.5,0,0,0-.412-.163.719.719,0,0,0-.478.163.678.678,0,0,0-.239.39.427.427,0,0,0,.083.392.524.524,0,0,0,.411.148.77.77,0,0,0,.469-.148A.626.626,0,0,0,106.025,172.412Z" transform="translate(-100.875 -170.935)" fill="#fff"/>
      <path id="Path_16" data-name="Path 16" d="M114.277,172.394a1.553,1.553,0,0,1-.264.611,1.866,1.866,0,0,1-.476.456,2.216,2.216,0,0,1-.628.287,2.58,2.58,0,0,1-.718.1,2.178,2.178,0,0,1-.677-.1,1.355,1.355,0,0,1-.511-.287,1.041,1.041,0,0,1-.291-.456,1.207,1.207,0,0,1-.015-.611,1.542,1.542,0,0,1,.263-.6,1.85,1.85,0,0,1,.477-.459,2.364,2.364,0,0,1,.63-.294,2.477,2.477,0,0,1,.719-.1,2.067,2.067,0,0,1,.676.1,1.438,1.438,0,0,1,.51.294,1.025,1.025,0,0,1,.29.459A1.194,1.194,0,0,1,114.277,172.394Zm-1.184.018a.446.446,0,0,0-.086-.39.5.5,0,0,0-.411-.163.717.717,0,0,0-.478.163.678.678,0,0,0-.24.39.429.429,0,0,0,.083.392.525.525,0,0,0,.411.148.771.771,0,0,0,.469-.148A.626.626,0,0,0,113.094,172.412Z" transform="translate(-104.06 -170.935)" fill="#fff"/>
      <path id="Path_17" data-name="Path 17" d="M119.607,171.9l-.395,1.936h-1.168l.394-1.936-.651.029.187-.919h2.465l-.187.919Z" transform="translate(-107.27 -170.968)" fill="#fff"/>
      <path id="Path_18" data-name="Path 18" d="M125.065,173.055a.758.758,0,0,1-.176.363,1.061,1.061,0,0,1-.314.241,1.449,1.449,0,0,1-.4.134,2.283,2.283,0,0,1-.424.041h-1.628l.576-2.825h1.413a2.7,2.7,0,0,1,.441.035,1.068,1.068,0,0,1,.365.122.542.542,0,0,1,.224.241.607.607,0,0,1,.026.387.775.775,0,0,1-.172.346.706.706,0,0,1-.363.224l0,.024a.711.711,0,0,1,.369.244A.521.521,0,0,1,125.065,173.055Zm-.983-1.169c.019-.09,0-.145-.065-.166a.632.632,0,0,0-.209-.032h-.157l-.083.407h.157a.8.8,0,0,0,.119-.009.438.438,0,0,0,.107-.029.22.22,0,0,0,.082-.061A.239.239,0,0,0,124.082,171.887ZM124,172.922a.166.166,0,0,0-.013-.122.177.177,0,0,0-.085-.07.531.531,0,0,0-.125-.032,1.044,1.044,0,0,0-.138-.009h-.2l-.1.471h.2a1.13,1.13,0,0,0,.142-.009.5.5,0,0,0,.135-.035.344.344,0,0,0,.111-.073A.232.232,0,0,0,124,172.922Z" transform="translate(-109.226 -170.968)" fill="#fff"/>
      <path id="Path_19" data-name="Path 19" d="M129.687,173.834l-.038-.355h-.889l-.165.355h-1.25l1.71-2.825h1.291l.581,2.825Zm-.105-1.023c-.006-.065-.011-.13-.015-.194s-.008-.125-.012-.183q-.01-.151-.016-.291a1.6,1.6,0,0,1,0-.191H129.5l-.39.86Z" transform="translate(-111.576 -170.968)" fill="#fff"/>
      <path id="Path_20" data-name="Path 20" d="M134.318,173.834l.576-2.825h1.175l-.391,1.918h.982l-.185.907Z" transform="translate(-114.719 -170.968)" fill="#fff"/>
      <path id="Path_21" data-name="Path 21" d="M138.826,173.834l.576-2.825h1.175l-.391,1.918h.982l-.185.907Z" transform="translate(-116.751 -170.968)" fill="#fff"/>
      <path id="Path_22" data-name="Path 22" d="M148.467,173.731a1.033,1.033,0,0,1-.181.049c-.07.014-.144.025-.219.035s-.151.018-.226.023-.139.008-.194.008a1.836,1.836,0,0,1-.647-.107,1.262,1.262,0,0,1-.471-.3,1.068,1.068,0,0,1-.259-.453,1.2,1.2,0,0,1-.012-.57,1.577,1.577,0,0,1,.25-.584,1.967,1.967,0,0,1,.459-.471,2.248,2.248,0,0,1,1.326-.427,2.163,2.163,0,0,1,.371.032q.18.032.35.078l-.184,1.076a1.329,1.329,0,0,0-.273-.2.714.714,0,0,0-.355-.085.771.771,0,0,0-.259.044.869.869,0,0,0-.227.116.691.691,0,0,0-.173.174.593.593,0,0,0-.094.219.432.432,0,0,0,.008.218.4.4,0,0,0,.107.174.544.544,0,0,0,.186.116.643.643,0,0,0,.244.044.976.976,0,0,0,.378-.073,1.9,1.9,0,0,0,.344-.19Z" transform="translate(-120.087 -170.935)" fill="#fff"/>
      <path id="Path_23" data-name="Path 23" d="M154.968,172.394a1.553,1.553,0,0,1-.264.611,1.868,1.868,0,0,1-.477.456,2.213,2.213,0,0,1-.628.287,2.583,2.583,0,0,1-.718.1,2.173,2.173,0,0,1-.677-.1,1.361,1.361,0,0,1-.511-.287,1.04,1.04,0,0,1-.291-.456,1.207,1.207,0,0,1-.015-.611,1.55,1.55,0,0,1,.262-.6,1.852,1.852,0,0,1,.477-.459,2.364,2.364,0,0,1,.63-.294,2.474,2.474,0,0,1,.719-.1,2.069,2.069,0,0,1,.676.1,1.438,1.438,0,0,1,.51.294,1.025,1.025,0,0,1,.29.459A1.194,1.194,0,0,1,154.968,172.394Zm-1.184.018a.445.445,0,0,0-.086-.39.5.5,0,0,0-.411-.163.717.717,0,0,0-.478.163.679.679,0,0,0-.24.39.429.429,0,0,0,.083.392.525.525,0,0,0,.411.148.77.77,0,0,0,.469-.148A.626.626,0,0,0,153.785,172.412Z" transform="translate(-122.397 -170.935)" fill="#fff"/>
      <path id="Path_24" data-name="Path 24" d="M160.262,173.834l-.733-1.482h-.041c0,.089,0,.176,0,.261a2.121,2.121,0,0,1-.026.255l-.2.965H158.14l.576-2.825h1.128l.739,1.564h.035q0-.163.007-.332a2.2,2.2,0,0,1,.031-.337l.182-.895h1.122l-.576,2.825Z" transform="translate(-125.454 -170.968)" fill="#fff"/>
      <path id="Path_25" data-name="Path 25" d="M167.474,173.731a1.054,1.054,0,0,1-.182.049c-.07.014-.143.025-.219.035s-.151.018-.226.023-.139.008-.193.008a1.833,1.833,0,0,1-.647-.107,1.263,1.263,0,0,1-.471-.3,1.064,1.064,0,0,1-.259-.453,1.183,1.183,0,0,1-.012-.57,1.575,1.575,0,0,1,.249-.584,1.969,1.969,0,0,1,.46-.471,2.22,2.22,0,0,1,.613-.314,2.247,2.247,0,0,1,.713-.113,2.151,2.151,0,0,1,.371.032q.18.032.35.078l-.185,1.076a1.311,1.311,0,0,0-.273-.2.714.714,0,0,0-.355-.085.768.768,0,0,0-.259.044.872.872,0,0,0-.227.116.7.7,0,0,0-.172.174.593.593,0,0,0-.094.219.426.426,0,0,0,.008.218.4.4,0,0,0,.107.174.543.543,0,0,0,.186.116.647.647,0,0,0,.244.044.978.978,0,0,0,.379-.073,1.879,1.879,0,0,0,.343-.19Z" transform="translate(-128.652 -170.935)" fill="#fff"/>
      <path id="Path_26" data-name="Path 26" d="M170.088,173.834l.576-2.825h2.174l-.158.773h-1.005l-.057.279h.919l-.144.709h-.919l-.059.291h1.041l-.158.773Z" transform="translate(-130.838 -170.968)" fill="#fff"/>
      <path id="Path_27" data-name="Path 27" d="M178.154,172.05a1.1,1.1,0,0,1-.422.686,1.356,1.356,0,0,1-.839.25h-.6l-.173.849h-1.133l.576-2.825h1.489a1.917,1.917,0,0,1,.513.064.971.971,0,0,1,.376.192.665.665,0,0,1,.207.325A.938.938,0,0,1,178.154,172.05Zm-1.121-.035a.176.176,0,0,0-.01-.122.164.164,0,0,0-.073-.07.393.393,0,0,0-.113-.032.98.98,0,0,0-.135-.009h-.163l-.1.489h.163a.89.89,0,0,0,.272-.053A.252.252,0,0,0,177.033,172.015Z" transform="translate(-133.046 -170.968)" fill="#fff"/>
      <path id="Path_28" data-name="Path 28" d="M182.806,171.9l-.395,1.936h-1.168l.394-1.936-.652.029.188-.919h2.465l-.187.919Z" transform="translate(-135.749 -170.968)" fill="#fff"/>
      <path id="Path_29" data-name="Path 29" d="M190.566,172.836a.978.978,0,0,1-.213.445,1.393,1.393,0,0,1-.383.314,1.915,1.915,0,0,1-.489.188,2.24,2.24,0,0,1-.528.064,2.909,2.909,0,0,1-.628-.069,2.627,2.627,0,0,1-.569-.192l.529-.8a3.268,3.268,0,0,0,.292.192.846.846,0,0,0,.438.1.663.663,0,0,0,.205-.038.177.177,0,0,0,.131-.131.087.087,0,0,0-.032-.1.337.337,0,0,0-.119-.046c-.048-.009-.1-.018-.158-.023a.822.822,0,0,1-.146-.026,1.269,1.269,0,0,1-.312-.081.784.784,0,0,1-.242-.151.509.509,0,0,1-.141-.221.588.588,0,0,1-.006-.3,1,1,0,0,1,.213-.444,1.441,1.441,0,0,1,.386-.326,1.987,1.987,0,0,1,.491-.2,2.127,2.127,0,0,1,.535-.069,2.2,2.2,0,0,1,.52.058,1.677,1.677,0,0,1,.459.186l-.467.721a1.519,1.519,0,0,0-.292-.149.973.973,0,0,0-.351-.061.6.6,0,0,0-.175.029.148.148,0,0,0-.11.116.078.078,0,0,0,.043.09.454.454,0,0,0,.132.049c.052.012.107.021.163.029s.1.015.129.023a1.892,1.892,0,0,1,.325.1.762.762,0,0,1,.241.16.518.518,0,0,1,.131.23A.684.684,0,0,1,190.566,172.836Z" transform="translate(-138.8 -170.935)" fill="#fff"/>
      <path id="Path_30" data-name="Path 30" d="M195.3,171.9l-.394,1.936h-1.169l.394-1.936-.651.029.187-.919h2.465l-.187.919Z" transform="translate(-141.381 -170.968)" fill="#fff"/>
      <path id="Path_31" data-name="Path 31" d="M201.7,172.394a1.553,1.553,0,0,1-.264.611,1.866,1.866,0,0,1-.476.456,2.217,2.217,0,0,1-.628.287,2.58,2.58,0,0,1-.718.1,2.175,2.175,0,0,1-.677-.1,1.354,1.354,0,0,1-.511-.287,1.036,1.036,0,0,1-.291-.456,1.207,1.207,0,0,1-.015-.611,1.55,1.55,0,0,1,.262-.6,1.851,1.851,0,0,1,.477-.459,2.363,2.363,0,0,1,.63-.294,2.477,2.477,0,0,1,.719-.1,2.067,2.067,0,0,1,.676.1,1.438,1.438,0,0,1,.51.294,1.026,1.026,0,0,1,.29.459A1.2,1.2,0,0,1,201.7,172.394Zm-1.184.018a.445.445,0,0,0-.086-.39.5.5,0,0,0-.411-.163.717.717,0,0,0-.478.163.679.679,0,0,0-.24.39.429.429,0,0,0,.083.392.525.525,0,0,0,.411.148.771.771,0,0,0,.469-.148A.626.626,0,0,0,200.518,172.412Z" transform="translate(-143.456 -170.935)" fill="#fff"/>
      <path id="Path_32" data-name="Path 32" d="M206.591,173.834l-.332-.907h-.018l-.185.907h-1.151l.576-2.825H206.9a2.163,2.163,0,0,1,.506.056,1.082,1.082,0,0,1,.392.171.646.646,0,0,1,.229.3.826.826,0,0,1,.015.454,1.094,1.094,0,0,1-.091.272.655.655,0,0,1-.154.2.937.937,0,0,1-.227.145,2.357,2.357,0,0,1-.3.114l0,.023c.027.019.057.042.088.066a.327.327,0,0,1,.081.1l.516.919Zm.3-1.809q.033-.162-.069-.2a.71.71,0,0,0-.259-.041h-.087l-.1.477h.075a.97.97,0,0,0,.279-.038A.229.229,0,0,0,206.89,172.026Z" transform="translate(-146.527 -170.968)" fill="#fff"/>
      <path id="Path_33" data-name="Path 33" d="M210.8,173.834l.576-2.825h2.174l-.158.773h-1.006l-.057.279h.919l-.145.709h-.919l-.06.291h1.041l-.158.773Z" transform="translate(-149.183 -170.968)" fill="#fff"/>
    </g>
  </g>
</svg>
