<svg xmlns="http://www.w3.org/2000/svg" width="20.843" height="24.909" viewBox="0 0 20.843 24.909">
  <g id="bin" transform="translate(-42.396 0.25)">
    <path id="Path_9046" data-name="Path 9046" d="M241.715,220.765a.715.715,0,0,0,.715-.715v-9.6a.715.715,0,1,0-1.43,0v9.6A.715.715,0,0,0,241.715,220.765Z" transform="translate(-188.898 -199.734)" fill="#fff" stroke="#000" stroke-width="0.5"/>
    <path id="Path_9047" data-name="Path 9047" d="M155.236,220.116a.715.715,0,1,0,1.424-.134l-.907-9.6a.715.715,0,0,0-1.424.134Z" transform="translate(-106.356 -199.733)" fill="#fff" stroke="#000" stroke-width="0.5"/>
    <path id="Path_9048" data-name="Path 9048" d="M309.3,220.761a.715.715,0,0,0,.779-.645l.907-9.6a.715.715,0,0,0-1.424-.134l-.907,9.6A.715.715,0,0,0,309.3,220.761Z" transform="translate(-253.326 -199.733)" fill="#fff" stroke="#000" stroke-width="0.5"/>
    <path id="Path_9049" data-name="Path 9049" d="M43.361,8.051h.427L45.86,23.787a.715.715,0,0,0,.709.622h12.5a.715.715,0,0,0,.709-.622L61.846,8.051h.427a.715.715,0,0,0,.715-.715V4.207a.715.715,0,0,0-.715-.715H56.155V3.21A3.214,3.214,0,0,0,52.944,0h-.254a3.214,3.214,0,0,0-3.21,3.21v.282H43.361a.715.715,0,0,0-.715.715V7.336a.715.715,0,0,0,.715.715ZM58.439,22.979H47.2L45.231,8.051H60.4ZM50.911,3.21a1.782,1.782,0,0,1,1.78-1.78h.254a1.782,1.782,0,0,1,1.78,1.78v.282H50.911ZM44.076,4.922H61.559v1.7H44.076Z" fill="#fff" stroke="#000" stroke-width="0.5"/>
  </g>
</svg>
