<svg xmlns="http://www.w3.org/2000/svg" width="46.053" height="53.159" viewBox="0 0 46.053 53.159">
  <g id="badge-2" transform="translate(3.201 3.694)">
    <path id="Path_9521" data-name="Path 9521" d="M45.533,7.877,23.285.045a.779.779,0,0,0-.517,0L.52,7.877A.779.779,0,0,0,0,8.611V30.129A23.026,23.026,0,0,0,39.309,46.411a22.874,22.874,0,0,0,6.744-16.282V8.611A.778.778,0,0,0,45.533,7.877ZM44.5,30.129a21.469,21.469,0,1,1-42.939,0V9.162L23.026,1.6,44.5,9.162Zm0,0" transform="translate(-3.201 -3.695)" fill="#d6d6d6"/>
    <path id="Path_9522" data-name="Path 9522" d="M48.051,31.843,30.474,38.1A.722.722,0,0,0,30,38.78v4.115a.715.715,0,1,0,1.431,0v-3.6l16.862-6,16.862,6V50.819L48.526,44.9a.709.709,0,0,0-.475,0L31.427,50.819v-4.55a.715.715,0,1,0-1.43,0v5.556q0,.015,0,.029v4.86a18.293,18.293,0,1,0,36.585,0V38.78A.722.722,0,0,0,66.1,38.1L48.526,31.843A.708.708,0,0,0,48.051,31.843Zm.237,41.918A16.974,16.974,0,0,1,31.427,56.714V52.352l16.862-6,16.862,6v4.362A16.974,16.974,0,0,1,48.288,73.76Zm0,0" transform="translate(-28.463 -30.772)" fill="#161616"/>
    <path id="Path_9523" data-name="Path 9523" d="M97.918,72.478V69.566a.69.69,0,0,0-.461-.65L84.184,64.243a.69.69,0,0,0-.458,0L70.453,68.915a.69.69,0,0,0-.461.651v2.912a.69.69,0,0,0,.919.65l13.044-4.592,4.889,1.721a.69.69,0,0,0,.458-1.3l-5.118-1.8a.691.691,0,0,0-.458,0L71.372,71.5V70.054l12.583-4.429,12.583,4.429V71.5l-4.2-1.478a.69.69,0,1,0-.458,1.3L97,73.128A.69.69,0,0,0,97.918,72.478Zm0,0" transform="translate(-64.13 -58.963)"/>
    <path id="Path_9525" data-name="Path 9525" d="M113.1,210.516a11.008,11.008,0,0,0-9.857,6.1.69.69,0,1,0,1.235.616q.058-.117.12-.232l3.8-.962,1.158,1.078-1.542,4.593-2.06,1.253-2.374-2.852a.69.69,0,1,0-1.364-.208,11.01,11.01,0,1,0,10.89-9.389Zm8.008,13.577,1.6-1.922a9.563,9.563,0,0,1-1.433,4.439Zm-.858-1.125-2.1-1.257-1.492-4.591,1.149-1.079,3.79.961a9.551,9.551,0,0,1,1.027,3.111Zm.175-7.687-2.375-.6-1.3-2.065A9.67,9.67,0,0,1,120.422,215.28Zm-5.67-3.243,1.972,3.128-1.13,1.061h-4.979l-1.141-1.063,1.972-3.128A9.749,9.749,0,0,1,114.752,212.037Zm-5.295.564-1.309,2.076-2.39.606A9.545,9.545,0,0,1,109.457,212.6Zm1.382,5h4.526l1.4,4.3-3.66,2.659-3.707-2.659Zm-5.916,9a9.563,9.563,0,0,1-1.433-4.439l1.6,1.922Zm1.275,1.626.262-3.97,2.087-1.27,3.867,2.773v2.538l-3.653,1.813A9.688,9.688,0,0,1,106.2,228.236Zm4.3,2.562,2.6-1.291,2.6,1.291A9.652,9.652,0,0,1,110.5,230.8Zm6.936-.677-3.641-1.812v-2.541L117.61,223l2.125,1.273.262,3.967A9.678,9.678,0,0,1,117.434,230.121Zm0,0" transform="translate(-93.272 -191.815)"/>
  </g>
</svg>
