<svg xmlns="http://www.w3.org/2000/svg" xmlns:xlink="http://www.w3.org/1999/xlink" width="108" height="60" viewBox="0 0 108 60">
  <defs>
    <clipPath id="clip-path">
      <rect id="Rectangle_2606" data-name="Rectangle 2606" width="108" height="60" transform="translate(940.624 186.528)" fill="#fff" stroke="#707070" stroke-width="1"/>
    </clipPath>
  </defs>
  <g id="Mask_Group_146" data-name="Mask Group 146" transform="translate(-940.624 -186.528)" clip-path="url(#clip-path)">
    <g id="football-shirt" transform="translate(951.594 192.764)">
      <g id="Group_3238" data-name="Group 3238" transform="translate(0 0)">
        <g id="Group_3237" data-name="Group 3237" transform="translate(0 0)">
          <path id="Path_9354" data-name="Path 9354" d="M120.77,40.255,112.2,19.578c-.508-1.226-.94-2.521-1.359-3.772l-.18-.538a11.946,11.946,0,0,0-7.2-6.7C96.985,5.815,85.522.24,85.413.185A1.863,1.863,0,0,0,84.588,0H71.4a1.865,1.865,0,0,0-.825.185c-.115.055-11.579,5.63-18.057,8.388a11.942,11.942,0,0,0-7.2,6.7l-.18.536c-.419,1.251-.851,2.546-1.359,3.772L35.2,40.255a1.238,1.238,0,0,0,.247,1.31c.223.253,5.525,6.179,12.861,6.179a1.8,1.8,0,0,0,1.166-.411l5.8-4.943a49.9,49.9,0,0,1,1.275,8.163,44.521,44.521,0,0,1-1.672,7.958c-1.461,5.627-3.275,12.628-3.275,18.723a1.207,1.207,0,0,0,.049.341c.3,1.018,2.673,5.74,20.724,6.558a1.9,1.9,0,0,0,.663.122,1.857,1.857,0,0,0,.454-.077c1.408.049,2.9.077,4.493.077s3.085-.028,4.493-.077a1.847,1.847,0,0,0,.453.077,1.893,1.893,0,0,0,.66-.122c18.051-.817,20.425-5.54,20.724-6.558a1.21,1.21,0,0,0,.053-.341c0-6.094-1.814-13.1-3.275-18.723a44.525,44.525,0,0,1-1.672-7.958A49.914,49.914,0,0,1,100.7,42.39l5.8,4.943a1.8,1.8,0,0,0,1.166.411c7.336,0,12.639-5.926,12.862-6.179A1.236,1.236,0,0,0,120.77,40.255ZM71.834,2.808H84.151c.813.393,2.856,1.38,5.384,2.58v.229H65.967C68.718,4.314,70.97,3.23,71.834,2.808Zm36.5,42.1-1.283-1.093a35.9,35.9,0,0,0,5.09-3.511,1.262,1.262,0,0,0,0-1.986,1.859,1.859,0,0,0-2.332,0,31.69,31.69,0,0,1-5.145,3.464l-3.21-2.734c.66-2.809,1.224-5,1.237-5.055a1.422,1.422,0,0,0-1.258-1.65,1.678,1.678,0,0,0-1.961,1.041c-.14.531-3.341,12.847-3.341,17.164a43.519,43.519,0,0,0,1.75,8.566,79.378,79.378,0,0,1,3.2,17.852c-.285.39-1.944,2.154-8.245,3.348V47.744a1.67,1.67,0,0,0-3.3,0V80.833c-1.459.18-3.107.327-4.947.432V50.553a1.67,1.67,0,0,0-3.3,0V81.4q-1.568.04-3.3.042t-3.3-.042V50.553a1.67,1.67,0,0,0-3.3,0V81.269c-1.843-.105-3.486-.253-4.947-.431V47.744a1.67,1.67,0,0,0-3.3,0V80.322c-6.35-1.2-7.964-2.976-8.245-3.359a79.34,79.34,0,0,1,3.2-17.845,43.521,43.521,0,0,0,1.75-8.566c0-4.317-3.2-16.633-3.337-17.156a1.51,1.51,0,0,0-1.111-1.057,1.865,1.865,0,0,0-1.627.308,1.277,1.277,0,0,0-.481,1.359c.013.052.58,2.237,1.237,5.055L51.325,41.8a31.7,31.7,0,0,1-5.145-3.464,1.859,1.859,0,0,0-2.332,0,1.262,1.262,0,0,0,0,1.986,35.88,35.88,0,0,0,5.09,3.511l-1.283,1.093c-4.229-.281-7.717-3.23-9.019-4.477l8.258-19.932c.542-1.309.989-2.646,1.42-3.932l.178-.534a8.643,8.643,0,0,1,4.767-4.609v4.008a1.67,1.67,0,0,0,3.3,0V9.97c1.088-.484,2.238-1.007,3.4-1.545H61.5v4.213a1.67,1.67,0,0,0,3.3,0V8.425h4.947v4.213a1.67,1.67,0,0,0,3.3,0V8.425h8.245v4.213a1.67,1.67,0,0,0,3.3,0V8.425h4.947v4.213a1.67,1.67,0,0,0,3.3,0V8.425h3.194l1.753.8v6.221a1.67,1.67,0,0,0,3.3,0V10.693l.912.393a9.056,9.056,0,0,1,5.5,4.953l.18.531c.43,1.293.877,2.63,1.42,3.939l8.256,19.933C116.046,41.689,112.559,44.63,108.333,44.913Z" transform="translate(-35.113 0)" fill="#d6d6d6" stroke="#fff" stroke-width="1"/>
          <path id="Path_9355" data-name="Path 9355" d="M173.037,102.684a1.688,1.688,0,0,0-1.241-.261l-7.451,1.269a1.339,1.339,0,0,0-1.192,1.244v3.807a1.393,1.393,0,0,0,1.49,1.269v15.23a1.393,1.393,0,0,0,1.49,1.269h5.961a1.393,1.393,0,0,0,1.49-1.269V103.667A1.205,1.205,0,0,0,173.037,102.684Zm-2.433,21.29h-2.981v-15.23a1.393,1.393,0,0,0-1.49-1.269v-1.5l4.471-.762Z" transform="translate(-135.293 -84.285)" fill="#161616" stroke="#fff" stroke-width="0.5"/>
          <path id="Path_9356" data-name="Path 9356" d="M254.478,102.824a1.616,1.616,0,0,0-1.112-.424h-8.942a1.616,1.616,0,0,0-1.112.424l-2.981,2.843a1.168,1.168,0,0,0-.378.845V122.4a1.169,1.169,0,0,0,.378.845l2.981,2.843a1.616,1.616,0,0,0,1.112.424h8.942a1.616,1.616,0,0,0,1.112-.424l2.981-2.843a1.168,1.168,0,0,0,.378-.845v-15.89a1.169,1.169,0,0,0-.378-.845Zm.378,19.093-2.158,2.059h-7.6l-2.164-2.059V107l2.158-2.059h7.6L254.857,107Z" transform="translate(-198.682 -84.287)" fill="#161616" stroke="#fff" stroke-width="0.5"/>
          <path id="Path_9357" data-name="Path 9357" d="M284.111,145.067a1.393,1.393,0,0,0-1.49,1.269v8.884a1.509,1.509,0,0,0,2.98,0v-8.884A1.393,1.393,0,0,0,284.111,145.067Z" transform="translate(-233.897 -120.608)" fill="#161616" stroke="#fff" stroke-width="0.5"/>
        </g>
      </g>
    </g>
  </g>
</svg>
