<svg xmlns="http://www.w3.org/2000/svg" width="19.853" height="17.602" viewBox="0 0 19.853 17.602">
  <path id="Path_9566" data-name="Path 9566" d="M17.158,6.055H15.929V4.115a2.307,2.307,0,0,0-2.3-2.3H10.392a1.536,1.536,0,0,1-1.009-.378l-1.03-.9A2.19,2.19,0,0,0,6.916,0H2.3A2.307,2.307,0,0,0,0,2.3V14.45A2.655,2.655,0,0,0,2.512,17.1v0H15.565a2.194,2.194,0,0,0,2.147-1.759L19.3,8.681l0-.013a2.189,2.189,0,0,0-2.148-2.614M1.628,16.166A2,2,0,0,1,.652,14.45V2.3A1.654,1.654,0,0,1,2.3.651H6.916a1.537,1.537,0,0,1,1.009.378l1.03.9a2.189,2.189,0,0,0,1.437.538h3.232a1.654,1.654,0,0,1,1.652,1.652v1.94H8.758A2.181,2.181,0,0,0,6.63,7.732L4.6,14.9l0,.014a2,2,0,0,1-.454.872,2.234,2.234,0,0,1-.652.482,2,2,0,0,1-1.211.148,2.032,2.032,0,0,1-.652-.248m17.04-7.63L17.076,15.2l0,.013a1.541,1.541,0,0,1-1.508,1.239H4.4a2.646,2.646,0,0,0,.833-1.381L7.259,7.9l0-.014a1.532,1.532,0,0,1,1.5-1.183h8.4a1.537,1.537,0,0,1,1.509,1.829Z" transform="translate(0.25 0.251)" fill="#fff" stroke="#fff" stroke-width="0.5"/>
</svg>
