<svg id="edit" xmlns="http://www.w3.org/2000/svg" width="17.311" height="17.312" viewBox="0 0 17.311 17.312">
  <path id="Path_35" data-name="Path 35" d="M124.031,1.039a2.656,2.656,0,0,0-3.756,0L109.747,11.567a.59.59,0,0,0-.151.26l-1.385,5a.59.59,0,0,0,.726.726l5-1.385a.59.59,0,0,0,.26-.151L124.724,5.487a2.659,2.659,0,0,0,0-3.756Zm-13,10.912,8.617-8.617,2.779,2.779-8.617,8.617Zm-.555,1.114,2.22,2.22-3.071.851Zm13.411-8.412-.626.626L120.484,2.5l.626-.626a1.475,1.475,0,0,1,2.086,0l.693.692A1.477,1.477,0,0,1,123.889,4.652Zm0,0" transform="translate(-108.19 -0.261)" fill="#fff"/>
</svg>
