<svg xmlns="http://www.w3.org/2000/svg" width="33.012" height="27.518" viewBox="0 0 33.012 27.518">
  <g id="Group_5981" data-name="Group 5981" transform="translate(-97.999 -190.845)">
    <path id="Path_620" data-name="Path 620" d="M250.513,351.466l11.2,7.074L256.614,373l-17.864,5.983-10.052-9.11,6.5-13.045Z" transform="translate(-130.699 -160.621)" fill="#ffbe00"/>
    <path id="Path_622" data-name="Path 622" d="M12.07,64H1.249A1.25,1.25,0,0,0,0,65.249v7.492a1.25,1.25,0,0,0,1.249,1.249H12.07a1.25,1.25,0,0,0,1.249-1.249V65.249A1.25,1.25,0,0,0,12.07,64Zm0,.832a.414.414,0,0,1,.16.032L6.66,69.693l-5.57-4.828a.415.415,0,0,1,.16-.032Zm0,8.324H1.249a.416.416,0,0,1-.416-.416v-7l5.554,4.814a.417.417,0,0,0,.546,0l5.554-4.814v7A.416.416,0,0,1,12.07,73.157Z" transform="translate(109 135.006)"/>
  </g>
</svg>
