<svg id="Group_5834" data-name="Group 5834" xmlns="http://www.w3.org/2000/svg" width="23.854" height="23.854" viewBox="0 0 23.854 23.854">
  <path id="Path_9508" data-name="Path 9508" d="M23.854,11.927a11.927,11.927,0,1,0-13.79,11.782V15.374H7.035V11.927h3.028V9.3c0-2.989,1.781-4.64,4.5-4.64a18.341,18.341,0,0,1,2.67.233V7.827h-1.5A1.724,1.724,0,0,0,13.79,9.689v2.237H17.1l-.529,3.448H13.79v8.334A11.93,11.93,0,0,0,23.854,11.927Z" fill="#1877f2"/>
  <path id="Path_9509" data-name="Path 9509" d="M311.534,210.715l.529-3.448h-3.308v-2.237a1.724,1.724,0,0,1,1.944-1.863h1.5v-2.935a18.34,18.34,0,0,0-2.67-.233c-2.724,0-4.5,1.651-4.5,4.64v2.628H302v3.448h3.028v8.334a12.054,12.054,0,0,0,3.727,0v-8.334Z" transform="translate(-294.965 -195.341)" fill="#fff"/>
</svg>
