<svg xmlns="http://www.w3.org/2000/svg" width="18.79" height="17.215" viewBox="0 0 18.79 17.215">
  <g id="filter-2" transform="translate(-64.267 -80.334)">
    <path id="Path_9372" data-name="Path 9372" d="M82.322,81.908H71.127a2.309,2.309,0,0,0-4.378,0H65a.735.735,0,0,0,0,1.47h1.747a2.309,2.309,0,0,0,4.378,0H82.322a.735.735,0,1,0,0-1.47ZM68.938,83.483a.839.839,0,1,1,.839-.839A.84.84,0,0,1,68.938,83.483Z" transform="translate(0)" fill="#fff"/>
    <path id="Path_9373" data-name="Path 9373" d="M82.322,210.441H80.574a2.309,2.309,0,0,0-4.378,0H65a.735.735,0,1,0,0,1.47H76.2a2.309,2.309,0,0,0,4.378,0h1.747a.735.735,0,1,0,0-1.47Zm-3.936,1.574a.84.84,0,1,1,.839-.839A.84.84,0,0,1,78.385,212.016Z" transform="translate(0 -122.235)" fill="#fff"/>
    <path id="Path_9374" data-name="Path 9374" d="M82.322,338.974H74.276a2.309,2.309,0,0,0-4.378,0H65a.735.735,0,1,0,0,1.47h4.9a2.309,2.309,0,0,0,4.378,0h8.045a.735.735,0,1,0,0-1.47Zm-10.234,1.575a.839.839,0,1,1,.839-.84A.84.84,0,0,1,72.087,340.549Z" transform="translate(0 -244.47)" fill="#fff"/>
  </g>
</svg>
