<svg xmlns="http://www.w3.org/2000/svg" width="40.457" height="27.473" viewBox="0 0 40.457 27.473">
  <g id="Group_2914" data-name="Group 2914" transform="translate(-213.855 -600.203)">
    <path id="Path_9187" data-name="Path 9187" d="M380.85,97.946a.593.593,0,0,0,.578-.723L380.3,92.213a.593.593,0,0,0-.578-.463h-5.675a.593.593,0,0,0-.593.593v8.37a.593.593,0,0,0,1.185,0V97.946Zm-.741-1.185H374.64V92.935h4.609Z" transform="translate(-130.09 515.703)" fill="#fff"/>
    <path id="Path_9188" data-name="Path 9188" d="M373.527,259.491a2.4,2.4,0,0,0-.066.558,2.371,2.371,0,1,0,2.37-2.37.593.593,0,0,0,0,1.185,1.183,1.183,0,1,1-1.152.9.593.593,0,1,0-1.152-.278" transform="translate(-130.096 362.886)" fill="#fff"/>
    <path id="Path_9189" data-name="Path 9189" d="M119.153,259.038a.591.591,0,0,0-.576.453,2.4,2.4,0,0,0-.066.559,2.371,2.371,0,1,0,2.37-2.371.592.592,0,1,0,0,1.184,1.186,1.186,0,1,1-1.185,1.186,1.238,1.238,0,0,1,.033-.281.593.593,0,0,0-.436-.715.6.6,0,0,0-.14-.017" transform="translate(104.709 362.885)" fill="#fff"/>
    <path id="Path_9190" data-name="Path 9190" d="M.593,11.122a.593.593,0,0,0,0,1.185H3.161v2.127H1.383a.593.593,0,0,0,0,1.185H3.264A1.771,1.771,0,0,0,4.939,16.8h.474v4.742a1.78,1.78,0,0,0,1.618,1.77,4.74,4.74,0,0,0,9.407.008h10.74a4.74,4.74,0,0,0,9.406,0h2.689a1.187,1.187,0,0,0,1.185-1.185V20.954a1.186,1.186,0,0,0-.672-1.067V14.434a14.857,14.857,0,0,0-.361-3.252l-.9-3.989a2.947,2.947,0,0,0-2.891-2.313H28.325v-3.1A1.781,1.781,0,0,0,26.546,0H4.939A1.775,1.775,0,0,0,3.264,1.186H.593a.593.593,0,1,0,0,1.185H3.161V4.5H1.383a.593.593,0,1,0,0,1.185H3.161V7.81H2.173A.593.593,0,1,0,2.173,9h.988v2.127Zm37.676.319a13.664,13.664,0,0,1,.332,2.992v5.334H35.577a4.732,4.732,0,0,0-7.252-.168v-3.38s0-.005,0-.008V6.065h7.312a1.768,1.768,0,0,1,1.735,1.388Zm1,10.7H36.584a4.694,4.694,0,0,0-.309-1.185h3Zm-10.948.593a3.556,3.556,0,1,1,3.556,3.556,3.56,3.56,0,0,1-3.556-3.556m-20.146,0a3.556,3.556,0,1,1,3.556,3.556,3.56,3.56,0,0,1-3.556-3.556M4.939,15.62a.6.6,0,0,1-.593-.591v0s0,0,0,0v-3.3s0,0,0,0,0,0,0,0v-3.3s0,0,0,0,0,0,0,0V5.1s0,0,0,0,0,0,0,0v-3.3s0,0,0,0v0a.6.6,0,0,1,.593-.591H26.546a.6.6,0,0,1,.593.593V16.213h0v5.926h-10.7a4.74,4.74,0,0,0-9.4-.021.593.593,0,0,1-.436-.571V16.8H25.362a.592.592,0,1,0,0-1.184Z" transform="translate(213.855 600.203)" fill="#fff"/>
    <path id="Path_9191" data-name="Path 9191" d="M108.41,76.344h-1.817a.592.592,0,0,0-.592.592v3.555a.593.593,0,1,0,1.185,0V79.307h.751a.593.593,0,0,0,0-1.185h-.751v-.593h1.225a.592.592,0,1,0,0-1.185" transform="translate(116.23 529.892)" fill="#fff"/>
    <path id="Path_9192" data-name="Path 9192" d="M157.015,78.123a1.775,1.775,0,0,0-1.768-1.778h-1.156a.592.592,0,0,0-.592.592v3.555a.593.593,0,1,0,1.185,0V79.9H155l1,1.01a.593.593,0,0,0,.842-.834l-.531-.535a1.78,1.78,0,0,0,.7-1.418m-1.768.592h-.563V77.53h.563a.593.593,0,0,1,0,1.185" transform="translate(72.486 529.891)" fill="#fff"/>
    <path id="Path_9193" data-name="Path 9193" d="M212.4,77.528a.593.593,0,0,0,0-1.185h-1.817a.592.592,0,0,0-.592.592v3.555a.593.593,0,0,0,.592.593H212.4a.593.593,0,0,0,0-1.185h-1.225v-.593h.751a.593.593,0,0,0,0-1.185h-.751v-.593H212.4Z" transform="translate(20.455 529.893)" fill="#fff"/>
    <path id="Path_9194" data-name="Path 9194" d="M259.41,77.528a.593.593,0,0,0,0-1.185h-1.817a.592.592,0,0,0-.592.592v3.555a.593.593,0,0,0,.592.593h1.817a.593.593,0,0,0,0-1.185h-1.225v-.593h.751a.593.593,0,0,0,0-1.185h-.751v-.593h1.225Z" transform="translate(-22.836 529.893)" fill="#fff"/>
  </g>
</svg>
