<svg id="Group_5957" data-name="Group 5957" xmlns="http://www.w3.org/2000/svg" xmlns:xlink="http://www.w3.org/1999/xlink" width="21.698" height="18.724" viewBox="0 0 21.698 18.724">
  <defs>
    <clipPath id="clip-path">
      <rect id="Rectangle_2593" data-name="Rectangle 2593" width="21.698" height="18.724" fill="#fff"/>
    </clipPath>
  </defs>
  <g id="Group_5786" data-name="Group 5786" clip-path="url(#clip-path)">
    <path id="Path_9396" data-name="Path 9396" d="M130.26,344.287l-.024.021a.679.679,0,0,0-.021,1l.02.019a.679.679,0,0,0,1-.06l.022-.027a.677.677,0,0,0-.059-.918l-.009-.009a.681.681,0,0,0-.925-.024" transform="translate(-124.374 -329.204)" fill="#fff"/>
    <path id="Path_9397" data-name="Path 9397" d="M92.057,293.278l-.027.012a.679.679,0,0,0-.332.941l.015.027a.679.679,0,0,0,.964.255l.025-.016a.681.681,0,0,0,.233-.9l-.006-.011a.681.681,0,0,0-.871-.313" transform="translate(-87.648 -280.515)" fill="#fff"/>
    <path id="Path_9398" data-name="Path 9398" d="M17.031,1.263A9.351,9.351,0,0,0,3.068,8.126L1.183,6.241A.693.693,0,0,0,.2,7.221l2.9,2.9a.8.8,0,0,0,1.132,0l2.9-2.9a.693.693,0,0,0,0-.981h0a.693.693,0,0,0-.98,0L4.5,7.893a7.966,7.966,0,1,1,4.4,8.664.694.694,0,0,0-.6,1.252,9.362,9.362,0,0,0,8.73-16.546" transform="translate(0)" fill="#fff"/>
    <path id="Path_9399" data-name="Path 9399" d="M260.686,72.693v6.588a.694.694,0,0,0,.277.555l2.219,1.664a.693.693,0,0,0,.832-1.109l-1.664-1.248a.693.693,0,0,1-.277-.555V72.693a.693.693,0,0,0-.693-.693h0a.693.693,0,0,0-.693.693" transform="translate(-249.388 -68.88)" fill="#fff"/>
  </g>
</svg>
