<svg xmlns="http://www.w3.org/2000/svg" width="25.502" height="24.445" viewBox="0 0 25.502 24.445">
  <g id="Group_5983" data-name="Group 5983" transform="translate(-1161.496 -207.554)">
    <rect id="Rectangle_2607" data-name="Rectangle 2607" width="19" height="9" transform="translate(1165 213.996)" fill="#fff"/>
    <path id="Path_616" data-name="Path 616" d="M24.445,12.737C24.445,5.708,19.776,0,14.028,0,8.887,0,4.583,4.534,3.76,10.659c-.094.418-.27.985-.634,1.12a2.8,2.8,0,0,1-1.16.04L.873,11.644C.549,11.59-.4,11.388.185,12.764S4.543,20.1,7.633,22.79A9.248,9.248,0,0,0,14.015,25.5c5.761-.027,10.43-5.748,10.43-12.764ZM10.628,7.745V5.208a.686.686,0,0,1,.675-.675h5.1a.677.677,0,0,1,.675.675.686.686,0,0,1-.675.675H11.977V7.745a.675.675,0,0,1-1.349,0Zm.675,2.618a.668.668,0,1,1,0-1.336h5.1a.668.668,0,1,1,0,1.336Zm0,6.1A.682.682,0,0,1,10.669,16a.559.559,0,0,1-.027-.216.63.63,0,0,1,.27-.54l3.549-2.591H11.316a.668.668,0,1,1,0-1.336h5.1a.682.682,0,0,1,.634.459.6.6,0,0,1,.04.2.678.678,0,0,1-.27.526l-3.562,2.618h3.157a.677.677,0,0,1,.675.675.686.686,0,0,1-.675.675H11.3Zm3.211,4.088a.686.686,0,0,1-.675.675.677.677,0,0,1-.675-.675V18.688h-1.2V20.55a.675.675,0,1,1-1.349,0V18.013a.674.674,0,0,1,.675-.661h5.1a.677.677,0,0,1,.675.675v2.537a.675.675,0,0,1-1.349-.013V18.688h-1.2Z" transform="translate(1161.496 231.999) rotate(-90)" fill="#5bbd37"/>
  </g>
</svg>
