<svg id="Component_204_2" data-name="Component 204 – 2" xmlns="http://www.w3.org/2000/svg" width="18.176" height="21" viewBox="0 0 18.176 21">
  <path id="Path_9232" data-name="Path 9232" d="M53.172,20.31l-1.6-15.2a.625.625,0,0,0-.622-.56h-3V3.867a3.867,3.867,0,0,0-7.734,0v.684h-3a.625.625,0,0,0-.622.56L35,20.31a.625.625,0,0,0,.622.69H52.55a.625.625,0,0,0,.622-.69ZM41.47,3.867a2.617,2.617,0,0,1,5.234,0v.684H41.47ZM36.318,19.75,37.783,5.8H40.22V7.178a.625.625,0,0,0,1.25,0V5.8H46.7V7.178a.625.625,0,0,0,1.25,0V5.8h2.437L51.856,19.75Z" transform="translate(-34.999)" fill="#fff"/>
</svg>
