<svg xmlns="http://www.w3.org/2000/svg" width="79.717" height="28.413" viewBox="0 0 79.717 28.413">
  <path id="Path_74" data-name="Path 74" d="M1599.4,2042.372c-.032.057-.062.114-.095.171a22.653,22.653,0,0,0-2.4,5.532,12.611,12.611,0,0,0-.5,3.657,7.227,7.227,0,0,0,1.254,4.1,6.76,6.76,0,0,0,4.177,2.766,13.574,13.574,0,0,0,3.925.243,28.957,28.957,0,0,0,5.55-1.061q5.088-1.363,10.181-2.7l8.287-2.2q5.671-1.508,11.34-3.018,5.912-1.571,11.825-3.14,5.876-1.561,11.752-3.126l2.786-.74a.187.187,0,0,1,.136.009l-.289.125q-12.459,5.334-24.918,10.67-9.409,4.027-18.82,8.049-6.946,2.969-13.891,5.937a44.949,44.949,0,0,1-6.859,2.367,22.5,22.5,0,0,1-5.822.755,10.92,10.92,0,0,1-4.341-.882,7.893,7.893,0,0,1-4.2-4.3,8.429,8.429,0,0,1-.558-3.706,18.681,18.681,0,0,1,2.329-7.674,37.22,37.22,0,0,1,4.034-6c1.566-1.964,3.255-3.821,4.941-5.68.048-.053.094-.109.14-.163Z" transform="translate(-1587.91 -2042.348)" fill="#fff"/>
</svg>
