<svg xmlns="http://www.w3.org/2000/svg" width="62" height="62" viewBox="0 0 62 62">
  <g id="Group_6051" data-name="Group 6051" transform="translate(-779 -624)">
    <circle id="Ellipse_30" data-name="Ellipse 30" cx="31" cy="31" r="31" transform="translate(779 624)" fill="#2c2c2c"/>
    <g id="shipping" transform="translate(772.465 637)">
      <g id="Group_3090" data-name="Group 3090" transform="translate(19.983 24.349)">
        <g id="Group_3089" data-name="Group 3089" transform="translate(0)">
          <path id="Path_9238" data-name="Path 9238" d="M52.7,324.321a2.219,2.219,0,0,0-1.211-1.244,2.178,2.178,0,0,0-1.7,0l-3.947,1.676a2.084,2.084,0,0,0,.02-.22,2.131,2.131,0,0,0-2.131-2.131H39a3.1,3.1,0,0,1-1.376-.324,14.306,14.306,0,0,0-6.361-1.5h-.326a.609.609,0,1,0,0,1.218h.326a13.072,13.072,0,0,1,5.816,1.373,4.314,4.314,0,0,0,1.92.453h4.722a.913.913,0,0,1,.2,1.8c-.08.007-.158.024-.239.024H36.42a.609.609,0,1,0,0,1.218h7.305c.012,0,.024,0,.037,0a3.763,3.763,0,0,0,1.405-.3l5.089-2.161a.965.965,0,0,1,.76,0,1,1,0,0,1,.548.567,1.041,1.041,0,0,1-.016.81,1,1,0,0,1-.563.539l-9.4,3.586a9.315,9.315,0,0,1-6.85-.074l-5.007-2.081v-6.972a.609.609,0,0,0-.609-.609h-4.87a.609.609,0,0,0-.609.609H20.592a.609.609,0,1,0,0,1.218h3.044v3.044a.609.609,0,0,0,1.218,0v-3.653h3.653v7.305H24.853v-1.218a.609.609,0,0,0-1.218,0v.609H20.592a.609.609,0,1,0,0,1.218h3.044a.609.609,0,0,0,.609.609h4.87a.609.609,0,0,0,.609-.609v-.232l4.545,1.887a10.539,10.539,0,0,0,7.747.085l9.4-3.586a2.214,2.214,0,0,0,1.244-1.185A2.253,2.253,0,0,0,52.7,324.321Z" transform="translate(-19.983 -319.968)" fill="#fff"/>
        </g>
      </g>
      <g id="Group_3092" data-name="Group 3092" transform="translate(24.245 0)">
        <g id="Group_3091" data-name="Group 3091" transform="translate(0 0)">
          <path id="Path_9239" data-name="Path 9239" d="M103.961,4.7V4.684a.6.6,0,0,0-.107-.192c-.014-.018-.03-.03-.046-.046a.623.623,0,0,0-.118-.093.674.674,0,0,0-.069-.035.565.565,0,0,0-.055-.027L90.173.029a.609.609,0,0,0-.369,0L76.411,4.29a.609.609,0,0,0-.428.578V19.479a.609.609,0,0,0,.426.58L89.8,24.321a.609.609,0,0,0,.369,0l13.393-4.262a.609.609,0,0,0,.423-.58V4.868A.606.606,0,0,0,103.961,4.7ZM89.985,1.246,101.37,4.868l-2.355.749L87.631,1.995ZM85.623,2.634,97.007,6.256l-2.354.749L83.268,3.383Zm17.147,16.4L90.594,22.908V20.7a.609.609,0,1,0-1.218,0v2.211L77.2,19.034V5.313l4.059-1.291L92.644,7.645l-2.659.846L79.818,5.257a.609.609,0,0,0-.369,1.16l9.927,3.158v8.687a.609.609,0,1,0,1.218,0V9.575l3.45-1.1v4.039a.609.609,0,0,0,.609.609.622.622,0,0,0,.183-.029l1.42-.453a.609.609,0,0,0-.369-1.16l-.627.2V8.092l3.145-1v3.592l-.692.22a.609.609,0,0,0,.183,1.189.592.592,0,0,0,.183-.029l1.117-.355a.609.609,0,0,0,.426-.58V6.7l3.149-1Z" transform="translate(-75.983 0)" fill="#fff"/>
        </g>
      </g>
      <g id="Group_3094" data-name="Group 3094" transform="translate(26.68 15.217)">
        <g id="Group_3093" data-name="Group 3093" transform="translate(0)">
          <path id="Path_9240" data-name="Path 9240" d="M108.592,199.968a.609.609,0,0,0-.609.609V202.4a.609.609,0,1,0,1.218,0v-1.826A.609.609,0,0,0,108.592,199.968Z" transform="translate(-107.983 -199.968)" fill="#fff"/>
        </g>
      </g>
      <g id="Group_3096" data-name="Group 3096" transform="translate(29.115 15.826)">
        <g id="Group_3095" data-name="Group 3095" transform="translate(0)">
          <path id="Path_9241" data-name="Path 9241" d="M140.592,207.968a.609.609,0,0,0-.609.609V210.4a.609.609,0,1,0,1.218,0v-1.826A.609.609,0,0,0,140.592,207.968Z" transform="translate(-139.983 -207.968)" fill="#fff"/>
        </g>
      </g>
    </g>
  </g>
</svg>
