<svg xmlns="http://www.w3.org/2000/svg" width="33.281" height="33.281" viewBox="0 0 33.281 33.281">
  <g id="Group_2911" data-name="Group 2911" transform="translate(-827.001 -588.719)">
    <path id="Path_9205" data-name="Path 9205" d="M32.945,7.2,19.983.08a.65.65,0,0,0-.626,0L14.472,2.763a.651.651,0,0,0-.279.153L6.4,7.2a.65.65,0,0,0-.337.57v8.608A8.66,8.66,0,0,0,.878,28.429a.65.65,0,0,0,1.168-.571,7.349,7.349,0,1,1,3.378,3.378A.65.65,0,0,0,4.854,32.4a8.666,8.666,0,0,0,11.7-4.252l2.8,1.538a.65.65,0,0,0,.626,0l12.962-7.117a.65.65,0,0,0,.337-.57V17.485a.65.65,0,0,0-1.3,0v4.133l-11.66,6.4V15.269l3.848-2.113v3.35a.65.65,0,0,0,.963.57l2.778-1.529a.649.649,0,0,0,.336-.569v-4.06l3.734-2.05v3.419a.65.65,0,1,0,1.3,0V7.768a.65.65,0,0,0-.337-.57M19.67,1.392,31.281,7.768,27.619,9.779,16.007,3.4Zm0,12.752L8.059,7.768l3.8-2.085,11.612,6.376Zm5.148-2.827L13.206,4.941l1.45-.8L26.268,10.52Zm-10.051,7.2a8.592,8.592,0,0,0-6.116-2.533,8.775,8.775,0,0,0-1.293.1V8.866l11.664,6.4V28.023L17,26.911a8.692,8.692,0,0,0,.3-2.28,8.592,8.592,0,0,0-2.533-6.116m12.181-3.923-1.478.813V12.442l1.478-.811Z" transform="translate(827 588.718)" fill="#fff"/>
    <path id="Path_9206" data-name="Path 9206" d="M491.689,218.513a.65.65,0,1,0,.46.19.655.655,0,0,0-.46-.19" transform="translate(367.941 384.437)" fill="#fff"/>
    <path id="Path_9207" data-name="Path 9207" d="M67.542,324.713A.65.65,0,0,0,68,323.6l-.45-.45h3.842a1.69,1.69,0,1,1,0,3.38H69.116a.65.65,0,1,0,0,1.3h2.276a2.99,2.99,0,1,0,0-5.98H67.551l.45-.45a.65.65,0,0,0-.919-.919l-1.56,1.56a.651.651,0,0,0,0,.919l1.56,1.56a.648.648,0,0,0,.46.19" transform="translate(765.924 289.286)" fill="#fff"/>
    <path id="Path_9208" data-name="Path 9208" d="M36.648,456.341a.647.647,0,0,1-.5-.231h0a.649.649,0,1,1,.5.233" transform="translate(793.348 163.315)" fill="#fff"/>
  </g>
</svg>
