<svg xmlns="http://www.w3.org/2000/svg" xmlns:xlink="http://www.w3.org/1999/xlink" width="32.501" height="15.66" viewBox="0 0 32.501 15.66">
  <defs>
    <linearGradient id="linear-gradient" x1="0.038" y1="0.903" x2="1.056" gradientUnits="objectBoundingBox">
      <stop offset="0" stop-color="#ffbe00"/>
      <stop offset="0.369" stop-color="#32eb4e"/>
      <stop offset="0.594" stop-color="#508eb5"/>
      <stop offset="1" stop-color="#fd00cc"/>
    </linearGradient>
  </defs>
  <path id="Intersection_1" data-name="Intersection 1" d="M4272.779,29.717a.944.944,0,0,1-.944-.943v-.4l-1.057,0v.405a.943.943,0,0,1-.941.943h-.608a.944.944,0,0,1-.944-.943v-.412l-1.056,0v.414a.943.943,0,0,1-.942.943h-.608a.944.944,0,0,1-.944-.943v-.441a4.357,4.357,0,0,1-3.595-2.672l-.1-.243s0,0,0,0h0v0a.419.419,0,0,1-.017-.05l0-.014a.273.273,0,0,1-.007-.039.291.291,0,0,1-.006-.054c0-.006,0-.012,0-.018V25.2a3.7,3.7,0,0,1,2.91-3.6l3.411-.731a23.088,23.088,0,0,0,4.69-1.546l-.192-.206a.477.477,0,0,1,.7-.649l.39.423c.319-.161.632-.331.942-.506l-.26-.281a.476.476,0,0,1,.7-.647l.4.43q.465-.29.917-.6l-.318-.343a.476.476,0,0,1,.7-.647l.4.427c.282-.214.561-.435.833-.662l-.312-.334a.477.477,0,0,1,.7-.649l.332.358.055-.049.935-.851a1.862,1.862,0,0,1,2.6.1l1.816,1.941a4.31,4.31,0,0,0,6.071.213l.721-.67a1.026,1.026,0,0,1,1.642.347l.5,1.164a.476.476,0,0,1-.874.376l-.5-1.165a.075.075,0,0,0-.119-.024l-.721.67a5.264,5.264,0,0,1-7.362-.206,2.3,2.3,0,0,0-1.3-.356,2.732,2.732,0,0,0-1.665,1.028,14.742,14.742,0,0,1-5.991,3.3,16.032,16.032,0,0,1-4.872.739,17.826,17.826,0,0,1-1.831-.1l-2.935.628a2.742,2.742,0,0,0-2.119,2.221h14.836c.2-.919,1.259-2.05,2.308-1.809a.474.474,0,0,1,0,.936c-.578.159-1.069.226-1.316.873h6.147a1.344,1.344,0,0,0-1.254-.866h-1.6a.476.476,0,0,1,0-.952h1.6a2.3,2.3,0,0,1,2.246,1.818h6.708a5.412,5.412,0,0,0,.452-5.085.476.476,0,0,1,.249-.625c.988-.424,1.145,2.329,1.135,2.858a6.4,6.4,0,0,1-1.109,3.478v.936a2.034,2.034,0,0,1-2.032,2.031h-.044v.4a.945.945,0,0,1-.943.944h-.609a.944.944,0,0,1-.942-.944v-.4h-.526v.4a.945.945,0,0,1-.943.944h-.609a.944.944,0,0,1-.941-.944v-.4h-.024l-2.359.006-2.285.008a.476.476,0,0,1,0-.952l2.285-.006,2.36-.008h5.584a1.08,1.08,0,0,0,1.08-1.079v-.611h-29.216a3.4,3.4,0,0,0,2.941,1.7l9.2.022c.315,0,2.22,0,3.845-.009a.476.476,0,0,1,0,.952c-1.283,0-2.566.014-3.849.009h-.036v.4a.943.943,0,0,1-.941.943Zm.008-.952h.59v-.387h-.59Zm-3.551,0h.59v-.387h-.59Zm-3.549,0h.59v-.387h-.59Zm23.084-.028h.591V28.35h-.591Zm-3.02,0h.59V28.35h-.59Zm-15.271-7.771a14.629,14.629,0,0,0,2.977-.613,14.782,14.782,0,0,0,4.817-2.365c1.016-.727,1.7-1.925,3.07-2.007l.13,0-.641-.684a.906.906,0,0,0-1.268-.051l-.935.852-.048.043.3.323a.475.475,0,0,1-.025.672.485.485,0,0,1-.673-.026l-.32-.345c-.271.228-.549.45-.831.664l.231.25a.475.475,0,0,1-.026.672.48.48,0,0,1-.672-.025l-.306-.331q-.451.316-.914.609l.1.1a.478.478,0,0,1-.025.673.483.483,0,0,1-.673-.025l-.227-.244c-.311.178-.624.351-.941.516a.477.477,0,0,1-.076.607.483.483,0,0,1-.673-.025l-.134-.144A23.669,23.669,0,0,1,4270.48,20.966Zm16.9.718a2,2,0,1,1,2,2A2.024,2.024,0,0,1,4287.379,21.684Zm.952,0a1.051,1.051,0,0,0,2.1,0,1.051,1.051,0,0,0-2.1,0Z" transform="translate(-4261 -14.057)" fill="url(#linear-gradient)"/>
</svg>
