<svg xmlns="http://www.w3.org/2000/svg" width="33.012" height="27.518" viewBox="0 0 33.012 27.518">
  <g id="Group_5980" data-name="Group 5980" transform="translate(-97.999 -123.845)">
    <path id="Path_619" data-name="Path 619" d="M250.513,351.466l11.2,7.074L256.614,373l-17.864,5.983-10.052-9.11,6.5-13.045Z" transform="translate(-130.699 -227.621)" fill="#ffbe00"/>
    <g id="Group_2777" data-name="Group 2777" transform="translate(-204 302.677)">
      <g id="Group_2776" data-name="Group 2776" transform="translate(313 -171)">
        <path id="Path_621" data-name="Path 621" d="M324.331-162.914a6.994,6.994,0,0,1-2.2-.35,1,1,0,0,0-.977.206l-1.385,1.046a7.655,7.655,0,0,1-3.442-3.441l1.015-1.349a1,1,0,0,0,.245-1.009,7,7,0,0,1-.351-2.2.99.99,0,0,0-.988-.989h-2.262a.99.99,0,0,0-.989.989,11.343,11.343,0,0,0,11.331,11.331.99.99,0,0,0,.989-.989v-2.256A.99.99,0,0,0,324.331-162.914Z" transform="translate(-313 171)" fill="#1a1818"/>
      </g>
    </g>
  </g>
</svg>
