<svg xmlns="http://www.w3.org/2000/svg" width="33.245" height="35.426" viewBox="0 0 33.245 35.426">
  <g id="Group_2916" data-name="Group 2916" transform="translate(-583 -596.661)">
    <g id="Group_2915" data-name="Group 2915">
      <g id="Group_2913" data-name="Group 2913" transform="translate(0 -2)">
        <path id="Path_9195" data-name="Path 9195" d="M107.15,0h-3.325a.573.573,0,0,0-.554.59V.816L102.091.187A1.586,1.586,0,0,0,101.348,0H93.227A1.6,1.6,0,0,0,92.19.389L89.873,2.362H80.554a.573.573,0,0,0-.554.59V12.4a.573.573,0,0,0,.554.59H97.177a.573.573,0,0,0,.554-.59V7.94a4.732,4.732,0,0,0,4.4-.383l.741-.472h.4v.59a.573.573,0,0,0,.554.59h3.325a.573.573,0,0,0,.554-.59V.59A.573.573,0,0,0,107.15,0M81.108,11.809V3.543H94.367l-.621.662a1.854,1.854,0,0,0,.041,2.5,1.59,1.59,0,0,0,2.31,0l.526-.561v5.66Zm21.606-5.9a.526.526,0,0,0-.282.084l-.87.556A3.685,3.685,0,0,1,98.1,6.83l-.373-.162v-1.7l.7-.75.286.1a3.675,3.675,0,0,0,2.454,0l.609-.217a.6.6,0,0,0,.351-.747.548.548,0,0,0-.7-.374l-.609.217a2.624,2.624,0,0,1-1.752,0l-.609-.217a.53.53,0,0,0-.567.143L96.787,4.3l-1.474,1.57a.53.53,0,0,1-.783,0,.618.618,0,0,1,0-.835l2.153-2.3a.618.618,0,0,0-.014-.835.53.53,0,0,0-.77,0l-.424.452H91.648L92.881,1.31a.533.533,0,0,1,.346-.129h8.121a.537.537,0,0,1,.248.062l1.676.893V5.9ZM106.6,7.085H104.38v-5.9H106.6Z" transform="translate(508.541 598.661)" fill="#fff"/>
        <path id="Path_9196" data-name="Path 9196" d="M185.662,57.771a.573.573,0,0,1,.554.59h1.108a1.768,1.768,0,0,0-1.108-1.663V56h-1.108v.7a1.8,1.8,0,0,0-1.013,2.254,1.668,1.668,0,0,0,1.567,1.18.592.592,0,1,1-.554.59H184a1.768,1.768,0,0,0,1.108,1.663v.7h1.108v-.7a1.8,1.8,0,0,0,1.013-2.254,1.668,1.668,0,0,0-1.567-1.18.592.592,0,0,1,0-1.181" transform="translate(411.744 546.794)" fill="#fff"/>
        <path id="Path_9197" data-name="Path 9197" d="M137.662,96h-1.108a.592.592,0,0,0,0,1.181h1.108a.592.592,0,0,0,0-1.181" transform="translate(456.418 509.747)" fill="#fff"/>
        <path id="Path_9198" data-name="Path 9198" d="M249.662,96h-1.108a.592.592,0,0,0,0,1.181h1.108a.592.592,0,0,0,0-1.181" transform="translate(352.178 509.747)" fill="#fff"/>
      </g>
      <g id="Group_2912" data-name="Group 2912" transform="translate(0 -2)">
        <path id="Path_9199" data-name="Path 9199" d="M22.971,369.048a1.6,1.6,0,0,0-2.26-.657l-.012.008-3.561,2.185a1.691,1.691,0,0,0-1.624-1.4H11.248l-.111-.079a5.767,5.767,0,0,0-6.7-.039v-.472a.573.573,0,0,0-.554-.59H.554a.573.573,0,0,0-.554.59v7.085a.573.573,0,0,0,.554.59H3.879a.573.573,0,0,0,.554-.59v-.08l.518.366a1.581,1.581,0,0,0,.929.3h8.228a1.544,1.544,0,0,0,.831-.236l7.425-4.564a1.806,1.806,0,0,0,.831-1.539,1.843,1.843,0,0,0-.223-.88M3.325,375.086H1.108v-5.9H3.325Zm18.484-4.644-7.433,4.569a.492.492,0,0,1-.269.075H5.879a.519.519,0,0,1-.309-.1l-1.138-.8v-3.817a.53.53,0,0,0,.307-.1l.252-.177a4.721,4.721,0,0,1,5.533,0l.251.177a.53.53,0,0,0,.307.1h4.433a.592.592,0,0,1,0,1.181H12.19a.592.592,0,0,0,0,1.181h3.325a1.593,1.593,0,0,0,1.1-.451l4.647-2.855a.507.507,0,0,1,.413-.059.557.557,0,0,1,.339.279.6.6,0,0,1,.075.288.606.606,0,0,1-.277.516" transform="translate(583 257.821)" fill="#fff"/>
        <path id="Path_9200" data-name="Path 9200" d="M110.96,208H96.554a.573.573,0,0,0-.554.59v10.628a.573.573,0,0,0,.554.59H110.96a.573.573,0,0,0,.554-.59V208.59a.573.573,0,0,0-.554-.59m-6.649,3.543H103.2v-2.362h1.108Zm6.095,7.085h-13.3v-9.447h4.987v2.952a.573.573,0,0,0,.554.59h2.216a.573.573,0,0,0,.554-.59v-2.952h4.987Z" transform="translate(493.65 406.013)" fill="#fff"/>
        <path id="Path_9201" data-name="Path 9201" d="M122.77,304h-2.216a.592.592,0,0,0,0,1.181h2.216a.592.592,0,0,0,0-1.181" transform="translate(471.311 317.098)" fill="#fff"/>
        <path id="Path_9202" data-name="Path 9202" d="M177.108,304h-.554a.592.592,0,0,0,0,1.181h.554a.592.592,0,0,0,0-1.181" transform="translate(419.189 317.098)" fill="#fff"/>
        <path id="Path_9203" data-name="Path 9203" d="M122.77,328h-2.216a.592.592,0,0,0,0,1.181h2.216a.592.592,0,0,0,0-1.181" transform="translate(471.311 294.869)" fill="#fff"/>
        <path id="Path_9204" data-name="Path 9204" d="M177.108,328h-.554a.592.592,0,0,0,0,1.181h.554a.592.592,0,0,0,0-1.181" transform="translate(419.189 294.869)" fill="#fff"/>
      </g>
    </g>
  </g>
</svg>
