<svg id="price-tag" xmlns="http://www.w3.org/2000/svg" width="29.678" height="29.678" viewBox="0 0 29.678 29.678">
  <path id="Path_9567" data-name="Path 9567" d="M0,0H1.739V1.739H0Z" transform="translate(11.551 13.185) rotate(-45)" fill="#ffbe00"/>
  <path id="Path_9568" data-name="Path 9568" d="M0,0H1.739V1.739H0Z" transform="translate(11.53 20.613) rotate(-45)" fill="#ffbe00"/>
  <path id="Path_9569" data-name="Path 9569" d="M150.919,276.475h8.127v1.739h-8.127Z" transform="translate(-142.171 -260.449)" fill="#ffbe00"/>
  <path id="Path_9570" data-name="Path 9570" d="M26.185,8.715a4.34,4.34,0,0,0-.615-3.378L29.678,1.23,28.448,0,24.34,4.108a4.34,4.34,0,0,0-3.378-.615,11.983,11.983,0,0,1-5.8-.085L0,18.57,11.107,29.678,26.27,14.515a12.007,12.007,0,0,1-.085-5.8ZM20.7,8.98a.877.877,0,1,1-1.24,0A.878.878,0,0,1,20.7,8.98Zm-9.59,18.238L2.459,18.57,15.718,5.311a13.522,13.522,0,0,0,5.629-.123,2.615,2.615,0,0,1,1.719.193l-1.86,1.86a2.616,2.616,0,1,0,1.23,1.23l1.86-1.86a2.615,2.615,0,0,1,.193,1.719,13.521,13.521,0,0,0-.123,5.629Z" transform="translate(0 0)" fill="#ffbe00"/>
</svg>
