<svg xmlns="http://www.w3.org/2000/svg" width="38" height="38" viewBox="0 0 38 38">
  <g id="Group_6052" data-name="Group 6052" transform="translate(-614 -775)">
    <circle id="Ellipse_13" data-name="Ellipse 13" cx="19" cy="19" r="19" transform="translate(614 775)" fill="#434343"/>
    <g id="phone-call-6" transform="translate(521.788 681.608)">
      <g id="Group_2823" data-name="Group 2823" transform="translate(100.712 102.253)">
        <g id="Group_2822" data-name="Group 2822" transform="translate(0 0)">
          <path id="Path_9041" data-name="Path 9041" d="M120.671,117.325l-3.234-3.223a1.882,1.882,0,0,0-2.661,0l0,0-1.853,1.853a.409.409,0,0,1-.524.046,21.36,21.36,0,0,1-4.99-4.9.4.4,0,0,1,.04-.524l1.9-1.9a1.882,1.882,0,0,0,0-2.659l-3.234-3.234a1.928,1.928,0,0,0-2.665,0l-1.024,1.024a5.755,5.755,0,0,0-1.427,5.87,17.265,17.265,0,0,0,2.106,4.27,22.386,22.386,0,0,0,6.463,6.348,16.476,16.476,0,0,0,4.788,2.129,5.543,5.543,0,0,0,1.335.161,5.824,5.824,0,0,0,4.1-1.727l.881-.881A1.882,1.882,0,0,0,120.671,117.325Zm-.815,1.874,0,0,.006-.017-.881.881a4.6,4.6,0,0,1-4.345,1.243,15.3,15.3,0,0,1-4.443-1.991,21.278,21.278,0,0,1-6.124-6,16.113,16.113,0,0,1-1.968-3.983,4.6,4.6,0,0,1,1.151-4.7l1.024-1.024a.731.731,0,0,1,1.034,0l0,0,3.234,3.234a.731.731,0,0,1,0,1.034l0,0-1.9,1.9a1.548,1.548,0,0,0-.161,2.014,22.67,22.67,0,0,0,5.266,5.168,1.56,1.56,0,0,0,1.991-.173l1.836-1.865a.731.731,0,0,1,1.034,0l0,0,3.24,3.246A.731.731,0,0,1,119.856,119.2Z" transform="translate(-100.712 -102.253)" fill="#fff"/>
        </g>
      </g>
    </g>
  </g>
</svg>
