<svg xmlns="http://www.w3.org/2000/svg" width="97" height="25.841" viewBox="0 0 97 25.841">
  <g id="Group_5971" data-name="Group 5971" transform="translate(-634.5 -837)">
    <g id="Path_64" data-name="Path 64" transform="translate(439.301 485.534)" fill="none">
      <path d="M249.183,351.466l10.515,6.643-4.785,13.58-16.775,5.618-9.439-8.555,6.108-12.251Z" stroke="none"/>
      <path d="M 249.0891723632813 352.2939453125 L 235.3417205810547 357.1094360351563 L 229.6233215332031 368.5787658691406 L 238.3161926269531 376.4570922851563 L 254.3276977539063 371.0948181152344 L 258.7923889160156 358.4241943359375 L 249.0891723632813 352.2939453125 M 249.1833190917969 351.46630859375 L 259.698486328125 358.1094970703125 L 254.9132995605469 371.6896362304688 L 238.137939453125 377.3077392578125 L 228.6985168457031 368.7528076171875 L 234.806396484375 356.5022888183594 L 249.1833190917969 351.46630859375 Z" stroke="none" fill="#fff"/>
    </g>
    <line id="Line_1" data-name="Line 1" x1="97" transform="translate(634.5 849.5)" fill="none" stroke="#fff" stroke-width="0.75"/>
    <path id="Path_9209" data-name="Path 9209" d="M230.894,351.466l1.127.712-.513,1.456-1.8.6-1.012-.917.655-1.313Z" transform="translate(452.641 496.714)" fill="#ffbe00"/>
  </g>
</svg>
