<svg xmlns="http://www.w3.org/2000/svg" xmlns:xlink="http://www.w3.org/1999/xlink" width="17.705" height="18.983" viewBox="0 0 17.705 18.983">
  <defs>
    <linearGradient id="linear-gradient" x1="0.038" y1="0.903" x2="1.056" gradientUnits="objectBoundingBox">
      <stop offset="0" stop-color="#ffbe00"/>
      <stop offset="0.369" stop-color="#32eb4e"/>
      <stop offset="0.594" stop-color="#508eb5"/>
      <stop offset="1" stop-color="#fd00cc"/>
    </linearGradient>
  </defs>
  <path id="Intersection_2" data-name="Intersection 2" d="M4272.35-3747.444a.942.942,0,0,1-.761-1.108,24.9,24.9,0,0,0,.59-5.785,15.449,15.449,0,0,0-.294-2.836c-.354.026-.672.038-.962.038-2.294,0-2.715-.747-2.782-.919a.271.271,0,0,1-.02-.1v-1.909a3.477,3.477,0,0,1,2.076-3.48h.011s.005,0,.01,0a10.484,10.484,0,0,0,3.543-1.832l.5-.434a.827.827,0,0,1,.944-.069,4.125,4.125,0,0,0,1.765.409,4.127,4.127,0,0,0,1.765-.409.829.829,0,0,1,.945.069l.5.437a10.584,10.584,0,0,0,3.543,1.831s.007,0,.01,0h.011a3.469,3.469,0,0,1,2.077,3.478v1.909a.29.29,0,0,1-.019.1c-.067.172-.488.919-2.782.919-.29,0-.608-.012-.962-.038a15.366,15.366,0,0,0-.295,2.836,25.034,25.034,0,0,0,.59,5.785.942.942,0,0,1-.761,1.108,19.039,19.039,0,0,1-4.624.427A19.046,19.046,0,0,1,4272.35-3747.444Zm-1.535-15.612a24.727,24.727,0,0,1,2.1,8.719,25.47,25.47,0,0,1-.605,5.915.314.314,0,0,0,.251.37,18.293,18.293,0,0,0,4.411.4,18.293,18.293,0,0,0,4.411-.4.313.313,0,0,0,.25-.37,25.5,25.5,0,0,1-.6-5.915,24.694,24.694,0,0,1,2.1-8.719,11.436,11.436,0,0,1-3.055-1.551,4.912,4.912,0,0,1-2.993,2.617.41.41,0,0,1-.229,0,4.922,4.922,0,0,1-2.993-2.617A11.411,11.411,0,0,1,4270.814-3763.057Zm11.378,5.253c2.186.153,2.775-.306,2.9-.437v-.227a1.713,1.713,0,0,1-1.367-1.566l1.17-1.32a2.7,2.7,0,0,0-1.088-1.427A29.716,29.716,0,0,0,4282.192-3757.8Zm-13.333-2.261v1.831c.1.11.678.588,2.9.428a29.632,29.632,0,0,0-1.61-4.974A3.01,3.01,0,0,0,4268.859-3760.065Zm5.587-5.006a4.4,4.4,0,0,0,2.527,2.436,4.377,4.377,0,0,0,2.528-2.437l-.341-.294a4.87,4.87,0,0,1-2.187.528,4.9,4.9,0,0,1-2.187-.524Zm.354,5.346-.738-1.475a.369.369,0,0,1,.166-.5.37.37,0,0,1,.5.166l.737,1.475a.369.369,0,0,1-.165.5.374.374,0,0,1-.166.039A.368.368,0,0,1,4274.8-3759.724Zm-1.105-.081-.368-.737a.369.369,0,0,1,.164-.5.368.368,0,0,1,.5.164l.369.738a.369.369,0,0,1-.165.5.376.376,0,0,1-.165.039A.368.368,0,0,1,4273.694-3759.805Zm-1.041.023a.582.582,0,0,1-.043-.056.6.6,0,0,1-.037-.066.387.387,0,0,1-.019-.07.256.256,0,0,1-.007-.069.37.37,0,0,1,.107-.263.369.369,0,0,1,.4-.081.367.367,0,0,1,.226.344.368.368,0,0,1-.007.069.218.218,0,0,1-.022.07.313.313,0,0,1-.033.066.518.518,0,0,1-.044.056h0a.37.37,0,0,1-.262.107A.375.375,0,0,1,4272.653-3759.783Zm9-1.939a5.3,5.3,0,0,1-1.62-.828.368.368,0,0,1,0-.517.37.37,0,0,1,.518-.005,4.639,4.639,0,0,0,1.331.65.368.368,0,0,1,.233.467.37.37,0,0,1-.35.253A.355.355,0,0,1,4281.653-3761.722Zm-9.824-.232a.369.369,0,0,1,.233-.467,4.664,4.664,0,0,0,1.332-.65.369.369,0,0,1,.521,0,.373.373,0,0,1,.109.262.372.372,0,0,1-.109.261,5.328,5.328,0,0,1-1.619.826.361.361,0,0,1-.117.019A.368.368,0,0,1,4271.829-3761.954Z" transform="translate(-4268.121 3766)" fill="url(#linear-gradient)"/>
</svg>
