<svg xmlns="http://www.w3.org/2000/svg" width="40.918" height="19.717" viewBox="0 0 40.918 19.717">
  <g id="soccer-shoe" transform="translate(0 0)">
    <g id="Group_3232" data-name="Group 3232" transform="translate(33.213 7.083)">
      <g id="Group_3231" data-name="Group 3231" transform="translate(0 0)">
        <path id="Path_9350" data-name="Path 9350" d="M35.85,221.267a2.52,2.52,0,1,1-2.521,2.52A2.548,2.548,0,0,1,35.85,221.267Zm1.322,2.52a1.323,1.323,0,0,0-2.644,0A1.323,1.323,0,0,0,37.172,223.787Z" transform="translate(-33.329 -221.267)"/>
      </g>
    </g>
    <g id="Group_3234" data-name="Group 3234" transform="translate(0 0)">
      <g id="Group_3233" data-name="Group 3233" transform="translate(0 0)">
        <path id="Path_9351" data-name="Path 9351" d="M0,146.67a4.655,4.655,0,0,1,3.663-4.528l4.3-.919a28.94,28.94,0,0,0,5.9-1.947l-.241-.26a.6.6,0,0,1,.879-.815l.492.531q.6-.3,1.186-.637l-.328-.354a.6.6,0,0,1,.879-.815l.5.542q.586-.366,1.155-.76l-.4-.432a.6.6,0,0,1,.879-.815l.5.538q.533-.4,1.049-.832l-.391-.422a.6.6,0,0,1,.879-.815l.418.451.07-.063,1.177-1.071a2.346,2.346,0,0,1,3.28.131l2.286,2.445a5.426,5.426,0,0,0,7.644.268l.908-.844a1.292,1.292,0,0,1,2.067.437l.629,1.465a.6.6,0,1,1-1.1.473l-.629-1.465a.093.093,0,0,0-.149-.031l-.908.844a6.627,6.627,0,0,1-9.269-.26,2.9,2.9,0,0,0-1.637-.448,3.444,3.444,0,0,0-2.1,1.294,18.539,18.539,0,0,1-7.543,4.156,20.143,20.143,0,0,1-6.132.932,22.682,22.682,0,0,1-2.306-.12l-3.7.791a3.454,3.454,0,0,0-2.668,2.8h18.68c.245-1.157,1.585-2.582,2.906-2.278a.6.6,0,0,1,0,1.177c-.729.2-1.347.285-1.659,1.1h7.74a1.692,1.692,0,0,0-1.579-1.09H25.323a.6.6,0,0,1,0-1.2h2.012a2.894,2.894,0,0,1,2.827,2.289h8.445a6.81,6.81,0,0,0,.569-6.4.6.6,0,0,1,.314-.787c1.243-.533,1.439,2.932,1.427,3.6a8.032,8.032,0,0,1-1.4,4.378v1.18a2.56,2.56,0,0,1-2.558,2.557h-.057v.5a1.188,1.188,0,0,1-1.187,1.187h-.766a1.188,1.188,0,0,1-1.187-1.187v-.5H33.1v.5a1.188,1.188,0,0,1-1.187,1.187h-.766a1.188,1.188,0,0,1-1.187-1.187v-.5h-.03l-2.969.009-2.877.009a.6.6,0,0,1,0-1.2l2.877-.009,2.973-.009h7.03a1.36,1.36,0,0,0,1.359-1.358v-.769H1.539a4.285,4.285,0,0,0,3.7,2.135l11.586.028c.4,0,2.8-.006,4.839-.012a.607.607,0,0,1,.6.6.6.6,0,0,1-.6.6c-1.615,0-3.231.017-4.846.012h-.044v.5a1.188,1.188,0,0,1-1.187,1.187h-.766a1.188,1.188,0,0,1-1.187-1.187v-.507l-1.33,0v.51a1.188,1.188,0,0,1-1.187,1.187h-.766a1.189,1.189,0,0,1-1.187-1.187v-.518l-1.33,0v.521a1.188,1.188,0,0,1-1.187,1.187H5.889A1.188,1.188,0,0,1,4.7,151.171v-.556a5.479,5.479,0,0,1-4.526-3.364l-.127-.306,0-.006h0v0a.581.581,0,0,1-.021-.063l0-.018q-.006-.024-.01-.049A.507.507,0,0,1,0,146.74c0-.007,0-.015,0-.022s0-.005,0-.008v-.04H0Zm15.683-6.1a18.6,18.6,0,0,0,6.066-2.978c1.278-.915,2.138-2.423,3.865-2.526.054,0,.108,0,.162-.006l-.806-.862a1.142,1.142,0,0,0-1.6-.064L22.2,135.2l-.062.055.376.406a.6.6,0,0,1-.032.847.608.608,0,0,1-.847-.032l-.4-.434q-.514.43-1.046.835l.291.314a.6.6,0,0,1-.032.847.608.608,0,0,1-.847-.032l-.387-.417q-.566.4-1.149.767l.119.128a.6.6,0,0,1-.032.847.608.608,0,0,1-.847-.032L17.016,139q-.585.339-1.185.651a.6.6,0,0,1-.1.765.608.608,0,0,1-.847-.032l-.169-.182q-1.361.639-2.782,1.142A18.528,18.528,0,0,0,15.684,140.569Zm16.221,10.066h-.742v.487h.742Zm3.8,0h-.742v.487h.742Zm-20.868.523h.742v-.487h-.742Zm-4.47,0h.742v-.487h-.742Zm-4.47,0h.742v-.487H5.9Z" transform="translate(0 -132.641)"/>
      </g>
    </g>
  </g>
</svg>
