<svg xmlns="http://www.w3.org/2000/svg" width="87.889" height="73.264" viewBox="0 0 87.889 73.264">
  <g id="Group_6058" data-name="Group 6058" transform="translate(-1035.183 -524.591)">
    <path id="Path_9555" data-name="Path 9555" d="M286.776,351.466,316.588,370.3l-13.567,38.5-47.56,15.928L228.7,400.476l17.317-34.732Z" transform="translate(806.484 173.125)" fill="#ffbe00"/>
    <g id="Group_5953" data-name="Group 5953" transform="translate(1047.123 593.7)">
      <path id="Path_9152" data-name="Path 9152" d="M379.29,360h-2.742a.548.548,0,0,0,0,1.1h2.742a.548.548,0,0,0,0-1.1Z" transform="translate(-337.303 -383.398)" fill="#161616"/>
      <path id="Path_9153" data-name="Path 9153" d="M440.548,361.1h.548a.548.548,0,1,0,0-1.1h-.548a.548.548,0,0,0,0,1.1Z" transform="translate(-396.916 -383.398)" fill="#161616"/>
      <path id="Path_9154" data-name="Path 9154" d="M376,328.548a.548.548,0,0,0,.548.548h2.742a.548.548,0,1,0,0-1.1h-2.742A.548.548,0,0,0,376,328.548Z" transform="translate(-337.303 -353.592)" fill="#161616"/>
      <path id="Path_9155" data-name="Path 9155" d="M440.548,329.1h.548a.548.548,0,1,0,0-1.1h-.548a.548.548,0,0,0,0,1.1Z" transform="translate(-396.916 -353.592)" fill="#161616"/>
      <path id="Path_9156" data-name="Path 9156" d="M364.387,392h-3.838a.548.548,0,0,0,0,1.1h3.838a.548.548,0,0,0,0-1.1Z" transform="translate(-322.399 -413.205)" fill="#161616"/>
      <path id="Path_9157" data-name="Path 9157" d="M440.548,393.1h.548a.548.548,0,1,0,0-1.1h-.548a.548.548,0,0,0,0,1.1Z" transform="translate(-396.916 -413.205)" fill="#161616"/>
      <path id="Path_9158" data-name="Path 9158" d="M45.825-51.61a7.929,7.929,0,0,0-7.746,6.279H17.347l-1.46-1.46a.549.549,0,0,0-.776,0,.549.549,0,0,0,0,.776L26.5-34.623l-8.53,8.53-3.169-3.169a.548.548,0,0,0-.775.014.549.549,0,0,0,0,.762L16.216-26.3v8.933a.548.548,0,0,0,.548.548h9.709l1.97,1.97a1.61,1.61,0,0,0,1.135.478h.042a1.613,1.613,0,0,0,1.151-.478,1.627,1.627,0,0,0,.346-.51,1.63,1.63,0,0,0,.81.213,1.638,1.638,0,0,0,1.517-.987,1.594,1.594,0,0,0,.809.212,1.7,1.7,0,0,0,1.171-.478,1.63,1.63,0,0,0,.324-.459,1.652,1.652,0,0,0,2.077.039h8.548a.548.548,0,0,0,.548-.548V-35.853a7.927,7.927,0,0,0,6.82-7.84A7.925,7.925,0,0,0,45.825-51.61Zm-16.45,7.376h4.387v5.483H29.376ZM17.313-17.915V-25.2l.274.274a.549.549,0,0,0,.775,0l.775-.776.145.145a2.754,2.754,0,0,1,.713,1.245l.1.372a3.841,3.841,0,0,0,1,1.744l4.286,4.284Zm19.924.156a.578.578,0,0,1-.431.193h0a.568.568,0,0,1-.38-.157l-1-1a.547.547,0,0,0-.388-.161.547.547,0,0,0-.388.16.548.548,0,0,0,0,.776.549.549,0,0,1,0,.775.527.527,0,0,1-.4.158.558.558,0,0,1-.38-.157l-.776-.775a.548.548,0,0,0-.774.025.548.548,0,0,0,0,.751.545.545,0,0,1,.16.387.544.544,0,0,1-.16.387.576.576,0,0,1-.395.157.472.472,0,0,1-.38-.157l-.775-.774a.548.548,0,0,0-.776,0,.547.547,0,0,0,0,.775.549.549,0,0,1,0,.775.5.5,0,0,1-.395.158.541.541,0,0,1-.381-.158l-7.347-7.35a2.754,2.754,0,0,1-.713-1.245l-.1-.372a3.841,3.841,0,0,0-1-1.744l-.144-.145L25.729-32.3l.553.552a1.638,1.638,0,0,0,.794.439l2.742.63a8.24,8.24,0,0,1,4.727,3.071l2.8,3.72-.051.051a1.088,1.088,0,0,1-.774.321,1.092,1.092,0,0,1-.42-.084,1.091,1.091,0,0,1-.355-.239l-1.371-1.371a1.339,1.339,0,0,0-.953-.4,1.38,1.38,0,0,0-1.371,1.38v.009a1.384,1.384,0,0,0,.4.965l4.707,4.706A.593.593,0,0,1,37.237-17.76Zm8.588-.156H38.433a1.734,1.734,0,0,0-.5-1.4l-4.706-4.707a.281.281,0,0,1-.082-.2.3.3,0,0,1,.1-.212.253.253,0,0,1,.356,0l1.371,1.371a2.182,2.182,0,0,0,1.55.644h0a2.18,2.18,0,0,0,1.546-.643l.387-.388a.548.548,0,0,0,.051-.718l-3.089-4.1a9.333,9.333,0,0,0-5.357-3.478l-2.742-.629a.551.551,0,0,1-.266-.147l-.552-.552,1.164-1.164a.549.549,0,0,0,0-.775l-9.22-9.221h9.835V-38.2a.548.548,0,0,0,.548.548h5.483a.548.548,0,0,0,.548-.548v-6.031h3.069q-.02.268-.019.541a7.925,7.925,0,0,0,7.916,7.916Zm1.1-18.978a6.811,6.811,0,0,1-1.1.088,6.9,6.9,0,0,1-6.888-6.888q0-.273.021-.541a6.726,6.726,0,0,1,.176-1.1,6.9,6.9,0,0,1,6.691-5.251,6.9,6.9,0,0,1,6.888,6.888A6.9,6.9,0,0,1,46.922-36.893Z" transform="translate(0 0)" fill="#161616"/>
      <path id="Path_9159" data-name="Path 9159" d="M430.712,18.533l-2.529,2.528-1.1,1.1-1.221,1.221-1.794-1.794a.514.514,0,0,0-.727.727L425.5,24.47a.513.513,0,0,0,.727,0l.858-.858,1.1-1.1,3.256-3.256a.514.514,0,1,0-.727-.727Z" transform="translate(-381.261 -65.195)" fill="#161616"/>
    </g>
  </g>
</svg>
