<svg xmlns="http://www.w3.org/2000/svg" width="87.888" height="73.264" viewBox="0 0 87.888 73.264">
  <g id="Group_6054" data-name="Group 6054" transform="translate(-510.183 -524.591)">
    <path id="Path_9552" data-name="Path 9552" d="M286.775,351.466,316.587,370.3,303.02,408.8,255.46,424.73,228.7,400.476l17.317-34.732Z" transform="translate(281.484 173.125)" fill="#ffbe00"/>
    <g id="Group_5954" data-name="Group 5954" transform="translate(-244.789 112.895)">
      <path id="Path_9299" data-name="Path 9299" d="M796.516,439.244a4.274,4.274,0,1,0,3.818,2.359l-.08-.161,1.394-1.395a.636.636,0,0,0,0-.9.638.638,0,0,0-.9,0l-.922.923.309.265h-1.279l.229-.23A4.262,4.262,0,0,0,796.516,439.244Zm2.807,3.129.106.431a3,3,0,1,1-1.079-1.658l.225.174-1.952,1.949-.663-.663a.652.652,0,0,0-.9,0,.638.638,0,0,0,0,.9l1.114,1.114a.639.639,0,0,0,.9,0Z"/>
      <path id="Path_9300" data-name="Path 9300" d="M803.1,451.789h-8.578a.637.637,0,0,0,0,1.275H803.1a.637.637,0,0,0,0-1.275Z"/>
      <path id="Path_9301" data-name="Path 9301" d="M790.975,460.162a.637.637,0,1,0-.637-.637A.639.639,0,0,0,790.975,460.162Z"/>
      <path id="Path_9302" data-name="Path 9302" d="M803.1,455.339h-8.578a.638.638,0,0,0,0,1.275H803.1a.638.638,0,0,0,0-1.275Z"/>
      <path id="Path_9303" data-name="Path 9303" d="M794.525,460.163H803.1a.637.637,0,0,0,0-1.275h-8.578a.637.637,0,0,0,0,1.275Z"/>
      <path id="Path_9304" data-name="Path 9304" d="M790.975,456.613a.637.637,0,0,0,.031-1.274h-.031a.637.637,0,0,0,0,1.274Z"/>
      <path id="Path_9305" data-name="Path 9305" d="M810.112,435.105H790.8a4.023,4.023,0,0,0-4.008,4.011v25.142a.638.638,0,0,0,.637.637h19.227a.637.637,0,0,0,.637-.637V450.994l6.284,0a.637.637,0,0,0,.637-.637V439.2A4.117,4.117,0,0,0,810.112,435.105Zm-3.3,1.674a4.1,4.1,0,0,0-.8,2.424v24.422H788.063v-24.51a2.748,2.748,0,0,1,2.733-2.735h16.313Zm6.123,12.939H807.29V439.2a2.824,2.824,0,1,1,5.647,0Z"/>
      <path id="Path_9306" data-name="Path 9306" d="M790.975,451.789a.637.637,0,1,0,.637.637A.638.638,0,0,0,790.975,451.789Z"/>
    </g>
  </g>
</svg>
