<svg xmlns="http://www.w3.org/2000/svg" width="87.889" height="73.264" viewBox="0 0 87.889 73.264">
  <g id="Group_6056" data-name="Group 6056" transform="translate(-772.183 -524.591)">
    <path id="Path_9553" data-name="Path 9553" d="M286.776,351.466,316.587,370.3,303.02,408.8l-47.56,15.928L228.7,400.476l17.317-34.732Z" transform="translate(543.484 173.125)" fill="#ffbe00"/>
    <g id="open-box" transform="translate(801.061 544.063)">
      <path id="Path_9284" data-name="Path 9284" d="M33.877,9.261a.5.5,0,0,0-.23-.411L23.153,2.2a.5.5,0,0,0-.168-.067L12.363.011A.5.5,0,0,0,12,.917l4.754,3.01L12.926,5.063,9.685,3.01a.5.5,0,0,0-.537,0L5.217,5.587a.5.5,0,0,0,.544.83l3.663-2.4L19,10.081l-8.01,5.243L1.414,9.262,3.57,7.851a.5.5,0,0,0-.544-.83L.225,8.854A.5.5,0,0,0,0,9.269V26.737a.5.5,0,0,0,.231.419L10.726,33.8a.5.5,0,0,0,.407.057l18.19-5.4a.5.5,0,0,0-.282-.951L11.487,32.717V16.284l21.4-6.35V26.366l-1.355.4a.5.5,0,0,0,.282.951l1.71-.507a.5.5,0,0,0,.355-.476V9.269s0-.005,0-.008ZM22.7,3.093l8.156,5.165L22.947,6.674,14.791,1.509ZM20.178,9.655,14.04,5.767l3.827-1.136,4.627,2.93a.5.5,0,0,0,.168.067l8.66,1.734L14.1,14.475l6.089-3.986a.5.5,0,0,0-.006-.834ZM.993,10.17l9.5,6.016V32.48l-9.5-6.016Z" transform="translate(0 0)"/>
      <path id="Path_9285" data-name="Path 9285" d="M218.515,292.15a.5.5,0,0,0-.438-.078l-16.789,5a.5.5,0,0,0-.355.476v4.842a.5.5,0,0,0,.638.476l16.789-5a.5.5,0,0,0,.355-.476v-4.842A.5.5,0,0,0,218.515,292.15Zm-.793,4.87-15.8,4.7v-3.807l15.8-4.7Z" transform="translate(-187.637 -272.728)"/>
      <path id="Path_9286" data-name="Path 9286" d="M284.675,371.761a.5.5,0,0,0,.5-.5v-1.406a.5.5,0,0,0-.992,0v1.406A.5.5,0,0,0,284.675,371.761Z" transform="translate(-265.375 -344.941)"/>
      <path id="Path_9287" data-name="Path 9287" d="M384.206,341.254a.5.5,0,0,0,.5-.5v-1.406a.5.5,0,0,0-.992,0v1.406A.5.5,0,0,0,384.206,341.254Z" transform="translate(-358.321 -316.453)"/>
      <path id="Path_9288" data-name="Path 9288" d="M406.342,335.254a.5.5,0,0,0,.5-.5v-1.406a.5.5,0,0,0-.992,0v1.406A.5.5,0,0,0,406.342,335.254Z" transform="translate(-378.992 -310.85)"/>
      <path id="Path_9289" data-name="Path 9289" d="M428.478,329.254a.5.5,0,0,0,.5-.5v-1.406a.5.5,0,0,0-.992,0v1.406A.5.5,0,0,0,428.478,329.254Z" transform="translate(-399.663 -305.247)"/>
      <path id="Path_9290" data-name="Path 9290" d="M228.331,388.525a.5.5,0,0,0,.5-.5v-1.406a.5.5,0,0,0-.992,0v1.406A.5.5,0,0,0,228.331,388.525Z" transform="translate(-212.759 -360.596)"/>
      <path id="Path_9291" data-name="Path 9291" d="M250.009,383.191a.5.5,0,0,0,.5-.5v-1.406a.5.5,0,0,0-.992,0v1.406A.5.5,0,0,0,250.009,383.191Z" transform="translate(-233.003 -355.615)"/>
      <path id="Path_9292" data-name="Path 9292" d="M323.839,359.653a.5.5,0,0,0,.5-.5V357.75a.5.5,0,0,0-.992,0v1.406A.5.5,0,0,0,323.839,359.653Z" transform="translate(-301.948 -333.634)"/>
      <path id="Path_9293" data-name="Path 9293" d="M345.042,354.223a.5.5,0,0,0,.5-.5V352.32a.5.5,0,0,0-.992,0v1.406A.5.5,0,0,0,345.042,354.223Z" transform="translate(-321.748 -328.564)"/>
    </g>
  </g>
</svg>
