<svg xmlns="http://www.w3.org/2000/svg" width="87.888" height="73.263" viewBox="0 0 87.888 73.263">
  <g id="Group_6057" data-name="Group 6057" transform="translate(-905.183 -524.591)">
    <path id="Path_9554" data-name="Path 9554" d="M286.775,351.466,316.587,370.3,303.02,408.8,255.46,424.73,228.7,400.476l17.317-34.732Z" transform="translate(676.484 173.125)" fill="#ffbe00"/>
    <g id="truck-7" transform="translate(930 473.018)">
      <g id="Group_3183" data-name="Group 3183" transform="translate(5.467 93.716)">
        <g id="Group_3182" data-name="Group 3182">
          <path id="Path_9294" data-name="Path 9294" d="M72.367,337.067a4.1,4.1,0,1,0,4.1,4.1A4.1,4.1,0,0,0,72.367,337.067Zm0,6.833a2.733,2.733,0,1,1,2.733-2.733A2.736,2.736,0,0,1,72.367,343.9Z" transform="translate(-68.267 -337.067)"/>
        </g>
      </g>
      <g id="Group_3185" data-name="Group 3185" transform="translate(28.7 93.716)">
        <g id="Group_3184" data-name="Group 3184">
          <path id="Path_9295" data-name="Path 9295" d="M362.5,337.067a4.1,4.1,0,1,0,4.1,4.1A4.1,4.1,0,0,0,362.5,337.067Zm0,6.833a2.733,2.733,0,1,1,2.733-2.733A2.736,2.736,0,0,1,362.5,343.9Z" transform="translate(-358.4 -337.067)"/>
        </g>
      </g>
      <g id="Group_3187" data-name="Group 3187" transform="translate(25.967 80.05)">
        <g id="Group_3186" data-name="Group 3186" transform="translate(0 0)">
          <path id="Path_9296" data-name="Path 9296" d="M339.192,176.28l-6.15-9.567a.683.683,0,0,0-.575-.314H324.95a.683.683,0,0,0-.683.683v17.083a.683.683,0,0,0,.683.683h2.733v-1.367h-2.05V167.767h6.46l5.84,9.084v6.632h-3.417v1.367h4.1a.683.683,0,0,0,.683-.683V176.65A.682.682,0,0,0,339.192,176.28Z" transform="translate(-324.267 -166.4)"/>
        </g>
      </g>
      <g id="Group_3189" data-name="Group 3189" transform="translate(28.7 82.783)">
        <g id="Group_3188" data-name="Group 3188" transform="translate(0 0)">
          <path id="Path_9297" data-name="Path 9297" d="M359.768,206.683V201.9h5.467v-1.367h-6.15a.683.683,0,0,0-.683.683v6.15a.683.683,0,0,0,.683.683h10.25v-1.367h-9.567Z" transform="translate(-358.401 -200.533)"/>
        </g>
      </g>
      <g id="Group_3191" data-name="Group 3191" transform="translate(0 75.266)">
        <g id="Group_3190" data-name="Group 3190" transform="translate(0 0)">
          <path id="Path_9298" data-name="Path 9298" d="M26.65,106.667H.683A.684.684,0,0,0,0,107.35v21.867a.683.683,0,0,0,.683.683H6.15v-1.367H1.367v-20.5h24.6v20.5H12.983V129.9H26.65a.683.683,0,0,0,.683-.683V107.35A.683.683,0,0,0,26.65,106.667Z" transform="translate(0 -106.667)"/>
        </g>
      </g>
      <g id="Group_3193" data-name="Group 3193" transform="translate(0.683 94.4)">
        <g id="Group_3192" data-name="Group 3192" transform="translate(0 0)">
          <rect id="Rectangle_2318" data-name="Rectangle 2318" width="4.1" height="1.367"/>
        </g>
      </g>
      <g id="Group_3195" data-name="Group 3195" transform="translate(14.35 94.4)">
        <g id="Group_3194" data-name="Group 3194" transform="translate(0 0)">
          <rect id="Rectangle_2319" data-name="Rectangle 2319" width="11.617" height="1.367"/>
        </g>
      </g>
      <g id="Group_3197" data-name="Group 3197" transform="translate(37.583 94.4)">
        <g id="Group_3196" data-name="Group 3196" transform="translate(0 0)">
          <rect id="Rectangle_2320" data-name="Rectangle 2320" width="2.733" height="1.367"/>
        </g>
      </g>
      <g id="Group_3199" data-name="Group 3199" transform="translate(2.733 78)">
        <g id="Group_3198" data-name="Group 3198" transform="translate(0 0)">
          <rect id="Rectangle_2321" data-name="Rectangle 2321" width="23.917" height="1.367"/>
        </g>
      </g>
      <g id="Group_3201" data-name="Group 3201" transform="translate(8.883 97.133)">
        <g id="Group_3200" data-name="Group 3200" transform="translate(0 0)">
          <rect id="Rectangle_2322" data-name="Rectangle 2322" width="1.367" height="1.367"/>
        </g>
      </g>
      <g id="Group_3203" data-name="Group 3203" transform="translate(32.117 97.133)">
        <g id="Group_3202" data-name="Group 3202" transform="translate(0 0)">
          <rect id="Rectangle_2323" data-name="Rectangle 2323" width="1.367" height="1.367"/>
        </g>
      </g>
    </g>
  </g>
</svg>
