<svg xmlns="http://www.w3.org/2000/svg" width="94.936" height="79.139" viewBox="0 0 94.936 79.139">
  <g id="Group_6055" data-name="Group 6055" transform="translate(-640.659 -521.654)">
    <path id="Path_9556" data-name="Path 9556" d="M291.433,351.466l32.2,20.345L308.98,413.4l-51.374,17.205-28.908-26.2L247.4,366.889Z" transform="translate(411.961 170.188)" fill="#ffbe00"/>
    <g id="money-8" transform="translate(670 515.475)">
      <g id="Group_3181" data-name="Group 3181" transform="translate(0 28.588)">
        <g id="Group_3180" data-name="Group 3180">
          <path id="Path_9281" data-name="Path 9281" d="M35.7,45.982h0l-6.751-16.95a.7.7,0,0,0-.912-.393h0L.655,39.544a.688.688,0,0,0-.281.223A.694.694,0,0,0,0,40.376V58.625a.7.7,0,0,0,.7.7H30.18a.7.7,0,0,0,.7-.7V48.658l4.43-1.764A.7.7,0,0,0,35.7,45.982ZM29.479,57.923H1.4V41.078H29.479ZM11.711,39.678l11.752-4.683a5.584,5.584,0,0,0,4.024,1.735l1.172,2.948ZM30.882,47.15V40.376a.7.7,0,0,0-.7-.7h-.011l-1.487-3.735a.581.581,0,0,0-.058-.088.693.693,0,0,0-.733-.54,4.2,4.2,0,0,1-3.68-1.585.7.7,0,0,0-.9-.157.789.789,0,0,0-.1.018L8.864,39.3a.693.693,0,0,0-.385.375H4.121L27.909,30.2l6.232,15.648Z" transform="translate(0 -28.588)" fill="#161616"/>
          <path id="Path_9282" data-name="Path 9282" d="M32.5,197.648a4.2,4.2,0,0,1,2.833,2.83.7.7,0,0,0,.672.5.637.637,0,0,0,.108-.016.652.652,0,0,0,.1.02H53.056a.61.61,0,0,0,.086-.018.653.653,0,0,0,.789-.48v0a4.2,4.2,0,0,1,2.833-2.833.693.693,0,0,0,.481-.772.709.709,0,0,0,.02-.1v-5.615a.635.635,0,0,0-.021-.1.692.692,0,0,0-.481-.772,4.192,4.192,0,0,1-2.832-2.834.693.693,0,0,0-.778-.481.667.667,0,0,0-.1-.02H36.211a.661.661,0,0,0-.1.021.693.693,0,0,0-.772.481A4.2,4.2,0,0,1,32.5,190.28a.693.693,0,0,0-.481.772.711.711,0,0,0-.02.1v5.615a.646.646,0,0,0,.02.1A.7.7,0,0,0,32.5,197.648Zm.9-6.207a5.569,5.569,0,0,0,3.092-3.092H52.77a5.571,5.571,0,0,0,3.093,3.092v5.045a5.576,5.576,0,0,0-3.092,3.092H36.5a5.576,5.576,0,0,0-3.092-3.092Z" transform="translate(-29.193 -173.052)" fill="#161616"/>
          <path id="Path_9283" data-name="Path 9283" d="M132.211,227.367A4.211,4.211,0,1,0,128,223.156,4.211,4.211,0,0,0,132.211,227.367Zm0-7.019a2.807,2.807,0,1,1-2.807,2.808A2.808,2.808,0,0,1,132.211,220.349Z" transform="translate(-116.77 -202.244)" fill="#161616"/>
        </g>
      </g>
    </g>
  </g>
</svg>
