<svg xmlns="http://www.w3.org/2000/svg" width="21.279" height="21.974" viewBox="0 0 21.279 21.974">
  <g id="update-arrow" transform="matrix(0.259, -0.966, 0.966, 0.259, -8.427, 15.273)">
    <path id="Path_9557" data-name="Path 9557" d="M18.115,21.2a.7.7,0,0,0-.887-.452l-.915.3a8.584,8.584,0,1,0-7.73,4.849.7.7,0,1,0,0-1.407,7.173,7.173,0,1,1,6.46-4.049l-.313-.962a.7.7,0,0,0-1.338.435l.83,2.554a.7.7,0,0,0,.886.452l2.554-.83A.7.7,0,0,0,18.115,21.2Z" transform="translate(0)" fill="#ffbe00"/>
  </g>
</svg>
