<svg height="1300" viewBox="0 0 653.52082 343.95834" width="2470" xmlns="http://www.w3.org/2000/svg"><g transform="translate(0 46.95835)"><path d="m0-46.95835h653.52083v343.95833h-653.52083z" fill="#bf0a30" stroke-width=".264583"/><g fill="#fff" transform="matrix(.26458333 0 0 .26458333 0 -46.95835)"><path d="m0 100h2470v100h-2470z"/><path d="m0 300h2470v100h-2470z"/><path d="m0 500h2470v100h-2470z"/></g><g fill="#fff" transform="matrix(.26458333 0 0 .26458333 0 111.79165)"><path d="m0 100h2470v100h-2470z"/><path d="m0 300h2470v100h-2470z"/><path d="m0 500h2470v100h-2470z"/></g><path d="m0-46.95835h261.40833v185.20833h-261.40833z" fill="#002868" stroke-width=".264583"/><g fill="#fff" transform="matrix(.26458333 0 0 .26458333 0 -46.95835)"><path d="m649 90.135 58.713 182.053 191.286-.418-154.999 112.097 59.508 181.795-154.508-112.773-154.508 112.773 59.508-181.795-154.999-112.097 191.286.418z" transform="matrix(.248568 .00001442 -.00001442 .248568 -40.164701 520.09158)"/><path d="m649 90.135 58.713 182.053 191.286-.418-154.999 112.097 59.508 181.795-154.508-112.773-154.508 112.773 59.508-181.795-154.999-112.097 191.286.418z" transform="matrix(.248568 .00001442 -.00001442 .248568 108.97598 520.09158)"/><path d="m649 90.135 58.713 182.053 191.286-.418-154.999 112.097 59.508 181.795-154.508-112.773-154.508 112.773 59.508-181.795-154.999-112.097 191.286.418z" transform="matrix(.248568 .00001442 -.00001442 .248568 258.11678 520.09158)"/><path d="m649 90.135 58.713 182.053 191.286-.418-154.999 112.097 59.508 181.795-154.508-112.773-154.508 112.773 59.508-181.795-154.999-112.097 191.286.418z" transform="matrix(.248568 .00001442 -.00001442 .248568 407.25759 520.09158)"/><path d="m649 90.135 58.713 182.053 191.286-.418-154.999 112.097 59.508 181.795-154.508-112.773-154.508 112.773 59.508-181.795-154.999-112.097 191.286.418z" transform="matrix(.248568 .00001442 -.00001442 .248568 556.39836 520.09157)"/><path d="m649 90.135 58.713 182.053 191.286-.418-154.999 112.097 59.508 181.795-154.508-112.773-154.508 112.773 59.508-181.795-154.999-112.097 191.286.418z" transform="matrix(.248568 .00001442 -.00001442 .248568 705.53922 520.09158)"/><path d="m649 90.135 58.713 182.053 191.286-.418-154.999 112.097 59.508 181.795-154.508-112.773-154.508 112.773 59.508-181.795-154.999-112.097 191.286.418z" transform="matrix(.248568 .00001442 -.00001442 .248568 -40.164823 389.73162)"/><path d="m649 90.135 58.713 182.053 191.286-.418-154.999 112.097 59.508 181.795-154.508-112.773-154.508 112.773 59.508-181.795-154.999-112.097 191.286.418z" transform="matrix(.248568 .00001442 -.00001442 .248568 108.97586 389.73162)"/><path d="m649 90.135 58.713 182.053 191.286-.418-154.999 112.097 59.508 181.795-154.508-112.773-154.508 112.773 59.508-181.795-154.999-112.097 191.286.418z" transform="matrix(.248568 .00001442 -.00001442 .248568 258.11666 389.73162)"/><path d="m649 90.135 58.713 182.053 191.286-.418-154.999 112.097 59.508 181.795-154.508-112.773-154.508 112.773 59.508-181.795-154.999-112.097 191.286.418z" transform="matrix(.248568 .00001442 -.00001442 .248568 407.25744 389.73162)"/><path d="m649 90.135 58.713 182.053 191.286-.418-154.999 112.097 59.508 181.795-154.508-112.773-154.508 112.773 59.508-181.795-154.999-112.097 191.286.418z" transform="matrix(.248568 .00001442 -.00001442 .248568 556.39824 389.73159)"/><path d="m649 90.135 58.713 182.053 191.286-.418-154.999 112.097 59.508 181.795-154.508-112.773-154.508 112.773 59.508-181.795-154.999-112.097 191.286.418z" transform="matrix(.248568 .00001442 -.00001442 .248568 705.5391 389.73162)"/><path d="m649 90.135 58.713 182.053 191.286-.418-154.999 112.097 59.508 181.795-154.508-112.773-154.508 112.773 59.508-181.795-154.999-112.097 191.286.418z" transform="matrix(.248568 .00001442 -.00001442 .248568 -40.164823 265.44756)"/><path d="m649 90.135 58.713 182.053 191.286-.418-154.999 112.097 59.508 181.795-154.508-112.773-154.508 112.773 59.508-181.795-154.999-112.097 191.286.418z" transform="matrix(.248568 .00001442 -.00001442 .248568 108.97585 265.44756)"/><path d="m649 90.135 58.713 182.053 191.286-.418-154.999 112.097 59.508 181.795-154.508-112.773-154.508 112.773 59.508-181.795-154.999-112.097 191.286.418z" transform="matrix(.248568 .00001442 -.00001442 .248568 258.11666 265.44756)"/><path d="m649 90.135 58.713 182.053 191.286-.418-154.999 112.097 59.508 181.795-154.508-112.773-154.508 112.773 59.508-181.795-154.999-112.097 191.286.418z" transform="matrix(.248568 .00001442 -.00001442 .248568 407.25747 265.44756)"/><path d="m649 90.135 58.713 182.053 191.286-.418-154.999 112.097 59.508 181.795-154.508-112.773-154.508 112.773 59.508-181.795-154.999-112.097 191.286.418z" transform="matrix(.248568 .00001442 -.00001442 .248568 556.39824 265.44756)"/><path d="m649 90.135 58.713 182.053 191.286-.418-154.999 112.097 59.508 181.795-154.508-112.773-154.508 112.773 59.508-181.795-154.999-112.097 191.286.418z" transform="matrix(.248568 .00001442 -.00001442 .248568 705.5391 265.44756)"/><path d="m649 90.135 58.713 182.053 191.286-.418-154.999 112.097 59.508 181.795-154.508-112.773-154.508 112.773 59.508-181.795-154.999-112.097 191.286.418z" transform="matrix(.248568 .00001442 -.00001442 .248568 -40.164823 141.16356)"/><path d="m649 90.135 58.713 182.053 191.286-.418-154.999 112.097 59.508 181.795-154.508-112.773-154.508 112.773 59.508-181.795-154.999-112.097 191.286.418z" transform="matrix(.248568 .00001442 -.00001442 .248568 108.97585 141.16356)"/><path d="m649 90.135 58.713 182.053 191.286-.418-154.999 112.097 59.508 181.795-154.508-112.773-154.508 112.773 59.508-181.795-154.999-112.097 191.286.418z" transform="matrix(.248568 .00001442 -.00001442 .248568 258.11666 141.16356)"/><path d="m649 90.135 58.713 182.053 191.286-.418-154.999 112.097 59.508 181.795-154.508-112.773-154.508 112.773 59.508-181.795-154.999-112.097 191.286.418z" transform="matrix(.248568 .00001442 -.00001442 .248568 407.25747 141.16356)"/><path d="m649 90.135 58.713 182.053 191.286-.418-154.999 112.097 59.508 181.795-154.508-112.773-154.508 112.773 59.508-181.795-154.999-112.097 191.286.418z" transform="matrix(.248568 .00001442 -.00001442 .248568 556.39824 141.16356)"/><path d="m649 90.135 58.713 182.053 191.286-.418-154.999 112.097 59.508 181.795-154.508-112.773-154.508 112.773 59.508-181.795-154.999-112.097 191.286.418z" transform="matrix(.248568 .00001442 -.00001442 .248568 705.5391 141.16356)"/><path d="m649 90.135 58.713 182.053 191.286-.418-154.999 112.097 59.508 181.795-154.508-112.773-154.508 112.773 59.508-181.795-154.999-112.097 191.286.418z" transform="matrix(.248568 .00001442 -.00001442 .248568 -40.171119 16.879563)"/><path d="m649 90.135 58.713 182.053 191.286-.418-154.999 112.097 59.508 181.795-154.508-112.773-154.508 112.773 59.508-181.795-154.999-112.097 191.286.418z" transform="matrix(.248568 .00001442 -.00001442 .248568 108.96957 16.879563)"/><path d="m649 90.135 58.713 182.053 191.286-.418-154.999 112.097 59.508 181.795-154.508-112.773-154.508 112.773 59.508-181.795-154.999-112.097 191.286.418z" transform="matrix(.248568 .00001442 -.00001442 .248568 258.11036 16.879563)"/><path d="m649 90.135 58.713 182.053 191.286-.418-154.999 112.097 59.508 181.795-154.508-112.773-154.508 112.773 59.508-181.795-154.999-112.097 191.286.418z" transform="matrix(.248568 .00001442 -.00001442 .248568 407.25119 16.879563)"/><path d="m649 90.135 58.713 182.053 191.286-.418-154.999 112.097 59.508 181.795-154.508-112.773-154.508 112.773 59.508-181.795-154.999-112.097 191.286.418z" transform="matrix(.248568 .00001442 -.00001442 .248568 556.39193 16.879563)"/><path d="m649 90.135 58.713 182.053 191.286-.418-154.999 112.097 59.508 181.795-154.508-112.773-154.508 112.773 59.508-181.795-154.999-112.097 191.286.418z" transform="matrix(.248568 .00001442 -.00001442 .248568 705.53285 16.879563)"/></g></g></svg>