<svg id="youtube-3" xmlns="http://www.w3.org/2000/svg" width="26.648" height="18.658" viewBox="0 0 26.648 18.658">
  <path id="Path_9564" data-name="Path 9564" d="M26.1,2.92A3.339,3.339,0,0,0,23.751.571C21.665,0,13.324,0,13.324,0S4.983,0,2.9.549A3.407,3.407,0,0,0,.549,2.92,35.181,35.181,0,0,0,0,9.329a35.052,35.052,0,0,0,.549,6.41A3.339,3.339,0,0,0,2.9,18.088c2.107.571,10.427.571,10.427.571s8.341,0,10.427-.549A3.339,3.339,0,0,0,26.1,15.761a35.182,35.182,0,0,0,.549-6.41A33.393,33.393,0,0,0,26.1,2.92Zm0,0" fill="red"/>
  <path id="Path_9565" data-name="Path 9565" d="M204.969,110.474l6.936-4-6.936-4Zm0,0" transform="translate(-194.301 -97.15)" fill="#fff"/>
</svg>
